mtllib undead_bingmayong4.mtl

g Undead_bingmayong4_weapon
v -24.108430 -27.346520 -2.295718
v -25.539300 -26.832170 -2.275379
v -25.028880 -25.406660 -2.415853
v -23.598010 -25.921000 -2.436191
v -24.108430 -27.346520 -2.295718
v -23.598010 -25.921000 -2.436191
v -23.106320 -25.523400 0.216689
v -18.931310 -17.134750 103.682600
v -19.441730 -18.560260 103.823100
v -23.966100 -27.078530 0.940897
v -23.598010 -25.921000 -2.436191
v -25.028880 -25.406660 -2.415853
v -25.088040 -24.811050 0.244857
v -20.362170 -16.620410 103.703000
v -18.931310 -17.134750 103.682600
v -23.455680 -25.653020 0.800423
v -25.028880 -25.406660 -2.415853
v -25.794950 -26.785350 0.439416
v -25.088040 -24.811050 0.244857
v -20.872600 -18.045920 103.843400
v -20.362170 -16.620410 103.703000
v -24.886550 -25.138680 0.820762
v -25.539300 -26.832170 -2.275379
v -24.108430 -27.346520 -2.295718
v -23.813240 -27.497700 0.411242
v -19.441730 -18.560260 103.823100
v -20.872600 -18.045920 103.843400
v -25.396970 -26.564190 0.961241
v -17.872150 -16.751500 101.756200
v -19.190520 -19.411160 102.034300
v -19.441730 -18.560260 103.823100
v -18.931310 -17.134750 103.682600
v -20.774510 -16.072890 101.827600
v -17.872150 -16.751500 101.756200
v -18.931310 -17.134750 103.682600
v -20.362170 -16.620410 103.703000
v -22.092880 -18.732550 102.105800
v -20.774510 -16.072890 101.827600
v -20.362170 -16.620410 103.703000
v -20.872600 -18.045920 103.843400
v -19.190520 -19.411160 102.034300
v -22.092880 -18.732550 102.105800
v -20.872600 -18.045920 103.843400
v -19.441730 -18.560260 103.823100
v -18.226230 -16.410080 109.982000
v -19.175500 -18.009750 110.156200
v -19.190520 -19.411160 102.034300
v -17.872150 -16.751500 101.756200
v -20.071250 -16.121940 110.039300
v -18.226230 -16.410080 109.982000
v -17.872150 -16.751500 101.756200
v -20.774510 -16.072890 101.827600
v -21.020520 -17.721610 110.213500
v -20.071250 -16.121940 110.039300
v -20.774510 -16.072890 101.827600
v -22.092880 -18.732550 102.105800
v -19.175500 -18.009750 110.156200
v -21.020520 -17.721610 110.213500
v -22.092880 -18.732550 102.105800
v -19.190520 -19.411160 102.034300
v -16.857860 -15.681620 111.260500
v -18.812620 -18.531160 111.582400
v -20.312150 -15.370880 111.386700
v -16.857860 -15.681620 111.260500
v -22.266910 -18.220420 111.708600
v -20.312150 -15.370880 111.386700
v -18.812620 -18.531160 111.582400
v -22.266910 -18.220420 111.708600
v -17.174850 -14.988940 124.874000
v -18.604220 -16.594780 125.069800
v -19.329860 -15.065480 124.975100
v -17.174850 -14.988940 124.874000
v -20.759230 -16.671320 125.170900
v -19.329860 -15.065480 124.975100
v -18.604220 -16.594780 125.069800
v -20.759230 -16.671320 125.170900
v -18.713630 -15.353020 130.784900
v -18.713630 -15.353020 130.784900
v -18.713630 -15.353020 130.784900
v -18.713630 -15.353020 130.784900
v -23.966100 -27.078530 0.940897
v -25.539300 -26.832170 -2.275379
v -25.794950 -26.785350 0.439416
v -23.455680 -25.653020 0.800423
v -23.813240 -27.497700 0.411242
v -24.886550 -25.138680 0.820762
v -23.106320 -25.523400 0.216689
v -25.396970 -26.564190 0.961241
v -25.396970 -26.564190 0.961241
v -24.886550 -25.138680 0.820762
v -25.396970 -26.564190 0.961241
v -23.966100 -27.078530 0.940897
v -23.966100 -27.078530 0.940897
v -23.455680 -25.653020 0.800423
v -23.455680 -25.653020 0.800423
v -24.886550 -25.138680 0.820762
vt 0.519021 0.748592 0.000000
vt 0.697509 0.763431 0.000000
vt 0.637787 0.807778 0.000000
vt 0.459300 0.792939 0.000000
vt 0.345089 0.806122 0.000000
vt 0.582682 0.821499 0.000000
vt 0.674149 0.964381 0.000000
vt 0.973099 0.987637 0.000000
vt 0.867129 0.987637 0.000000
vt 0.867129 0.012813 0.000000
vt 0.107495 0.821499 0.000000
vt 0.345089 0.806122 0.000000
vt 0.345292 0.943124 0.000000
vt 0.867129 0.987637 0.000000
vt 0.761156 0.987637 0.000000
vt 0.761156 0.012813 0.000000
vt 0.345089 0.806122 0.000000
vt 0.674149 0.964381 0.000000
vt 0.345292 0.943124 0.000000
vt 0.973099 0.987637 0.000000
vt 0.867129 0.987637 0.000000
vt 0.867129 0.012813 0.000000
vt 0.107495 0.821499 0.000000
vt 0.345089 0.806122 0.000000
vt 0.344885 0.943046 0.000000
vt 0.867129 0.987637 0.000000
vt 0.761156 0.987637 0.000000
vt 0.761156 0.012813 0.000000
vt 0.036940 0.690310 0.000000
vt 0.257020 0.760647 0.000000
vt 0.151628 0.760500 0.000000
vt 0.035833 0.727700 0.000000
vt 0.257020 0.760647 0.000000
vt 0.036940 0.690310 0.000000
vt 0.035833 0.727700 0.000000
vt 0.151628 0.760500 0.000000
vt 0.032032 0.830020 0.000000
vt 0.257020 0.760647 0.000000
vt 0.151628 0.760500 0.000000
vt 0.033139 0.790950 0.000000
vt 0.257020 0.760647 0.000000
vt 0.032032 0.830020 0.000000
vt 0.033139 0.790950 0.000000
vt 0.151628 0.760500 0.000000
vt 0.571125 0.232364 0.000000
vt 0.357836 0.234342 0.000000
vt 0.357805 0.013581 0.000000
vt 0.613475 0.010084 0.000000
vt 0.357836 0.234342 0.000000
vt 0.144626 0.232362 0.000000
vt 0.102276 0.010081 0.000000
vt 0.357805 0.013581 0.000000
vt 0.571125 0.232364 0.000000
vt 0.357836 0.234342 0.000000
vt 0.357805 0.013581 0.000000
vt 0.613475 0.010084 0.000000
vt 0.357836 0.234342 0.000000
vt 0.144626 0.232362 0.000000
vt 0.102276 0.010081 0.000000
vt 0.357805 0.013581 0.000000
vt 0.685437 0.270111 0.000000
vt 0.357809 0.273421 0.000000
vt 0.357809 0.273421 0.000000
vt 0.030314 0.270107 0.000000
vt 0.685437 0.270111 0.000000
vt 0.357809 0.273421 0.000000
vt 0.357809 0.273421 0.000000
vt 0.030314 0.270107 0.000000
vt 0.583801 0.638582 0.000000
vt 0.357843 0.640184 0.000000
vt 0.357843 0.640184 0.000000
vt 0.131950 0.638580 0.000000
vt 0.583801 0.638582 0.000000
vt 0.357843 0.640184 0.000000
vt 0.357843 0.640184 0.000000
vt 0.131950 0.638580 0.000000
vt 0.357876 0.795421 0.000000
vt 0.357876 0.795421 0.000000
vt 0.357876 0.795421 0.000000
vt 0.357876 0.795421 0.000000
vt 0.867129 0.012813 0.000000
vt 0.582682 0.821499 0.000000
vt 0.016028 0.964381 0.000000
vt 0.973099 0.012813 0.000000
vt 0.344885 0.943046 0.000000
vt 0.867129 0.012813 0.000000
vt 0.016028 0.964381 0.000000
vt 0.973099 0.012813 0.000000
vt 0.582682 0.993810 0.000000
vt 0.345089 0.978433 0.000000
vt 0.107496 0.993810 0.000000
vt 0.345089 0.978433 0.000000
vt 0.345089 0.978433 0.000000
vt 0.582682 0.993810 0.000000
vt 0.107496 0.993810 0.000000
vt 0.345089 0.978433 0.000000
usemtl Material_2
f 1/1 2/2 3/3
f 3/3 4/4 1/1
f 5/5 6/6 7/7
f 8/8 9/9 10/10
f 11/11 12/12 13/13
f 14/14 15/15 16/16
f 17/17 18/18 19/19
f 20/20 21/21 22/22
f 23/23 24/24 25/25
f 26/26 27/27 28/28
f 29/29 30/30 31/31
f 31/31 32/32 29/29
f 33/33 34/34 35/35
f 35/35 36/36 33/33
f 37/37 38/38 39/39
f 39/39 40/40 37/37
f 41/41 42/42 43/43
f 43/43 44/44 41/41
f 45/45 46/46 47/47
f 47/47 48/48 45/45
f 49/49 50/50 51/51
f 51/51 52/52 49/49
f 53/53 54/54 55/55
f 55/55 56/56 53/53
f 57/57 58/58 59/59
f 59/59 60/60 57/57
f 61/61 62/62 46/46
f 46/46 45/45 61/61
f 63/63 64/64 50/50
f 50/50 49/49 63/63
f 65/65 66/66 54/54
f 54/54 53/53 65/65
f 67/67 68/68 58/58
f 58/58 57/57 67/67
f 69/69 70/70 62/62
f 62/62 61/61 69/69
f 71/71 72/72 64/64
f 64/64 63/63 71/71
f 73/73 74/74 66/66
f 66/66 65/65 73/73
f 75/75 76/76 68/68
f 68/68 67/67 75/75
f 70/70 69/69 77/77
f 72/72 71/71 78/78
f 74/74 73/73 79/79
f 76/76 75/75 80/80
f 26/26 28/28 81/81
f 17/17 82/82 18/18
f 25/25 83/83 23/23
f 8/8 10/10 84/84
f 7/7 85/85 5/5
f 14/14 16/16 86/86
f 13/13 87/87 11/11
f 20/20 22/22 88/88
f 18/18 89/89 19/19
f 90/90 19/19 89/89
f 91/91 83/83 92/92
f 25/25 92/92 83/83
f 93/93 85/85 94/94
f 7/7 94/94 85/85
f 95/95 87/87 96/96
f 13/13 96/96 87/87

g Undead_bingmayong4
v -2.351316 -8.407847 83.926050
v -2.360626 -8.586541 84.305550
v -2.845512 -8.534090 84.341870
v -2.939178 -8.304191 83.941910
v -2.332146 -8.161963 82.995110
v -3.125169 -7.839367 83.361590
v -3.233635 -7.372183 82.774150
v -2.317245 -7.767491 82.520490
v -2.390576 -9.332220 85.317270
v -2.804471 -9.242747 85.338970
v -2.834106 -8.783073 85.009220
v -2.375744 -8.827435 84.982020
v -5.547713 -3.228353 87.143910
v -4.770211 -4.176017 84.587450
v -5.808894 -4.571685 86.637530
v -5.208226 -8.543235 87.893500
v -4.983219 -8.461864 88.753490
v -5.837665 -6.906498 89.198410
v -5.873168 -6.573668 87.769990
v -4.252522 -7.495833 84.693060
v -4.690047 -7.775714 85.950400
v -4.772379 -5.587046 84.392500
v -3.668200 -8.182797 84.931690
v -3.748103 -7.483229 83.885120
v -4.069883 -6.499900 83.461110
v -2.286323 -5.984521 82.716630
v -3.309787 -8.806403 86.241780
v -5.219085 -8.169910 93.973530
v -6.206321 -6.957596 91.929860
v -5.086474 -9.284431 91.642650
v -6.240957 -4.695313 89.798800
v -6.484356 -3.290720 87.018780
v -5.808894 -4.571685 86.637530
v -6.240957 -4.695313 89.798800
v -7.218986 -2.524682 88.867920
v -5.547713 -3.228353 87.143910
v -6.484356 -3.290720 87.018780
v -7.218986 -2.524682 88.867920
v -6.206672 -2.756798 89.089670
v -5.547713 -3.228353 87.143910
v -6.541801 -3.846642 90.221700
v -7.190625 -2.961079 90.176080
v -6.541801 -3.846642 90.221700
v -6.240957 -4.695313 89.798800
v -7.190625 -2.961079 90.176080
v -2.396415 -9.159724 85.903590
v -2.415151 -10.039330 86.030690
v -3.394892 -8.985768 87.809070
v -5.201076 -8.892939 89.794420
v -3.258417 -10.027950 89.562100
v -3.361547 -9.189595 88.657020
v -2.492761 -5.926303 96.055760
v -5.293074 -5.634852 95.256810
v -2.519728 -8.855723 94.201320
v -6.566959 -4.359683 93.264790
v -2.434316 -2.695332 96.256390
v -5.439600 -3.104714 95.282720
v -5.159788 -1.082803 93.475010
v -4.680913 0.117690 91.155080
v -5.901008 -2.047694 89.897960
v -2.507781 -10.291180 91.675580
v -2.370599 -8.863873 84.606860
v -6.206672 -2.756798 89.089670
v -2.968738 -9.676828 87.728210
v -2.442435 -10.160140 87.636310
v -2.450646 -9.920841 88.456940
v -2.472714 -10.229230 89.497620
v -2.362602 -0.637159 94.167890
v -2.295817 0.652094 91.454510
v -2.423559 -10.288540 86.265860
v -4.383730 -0.189843 88.600300
v -2.253969 0.446444 88.513050
v -5.044192 -2.236768 87.152240
v -5.044192 -2.236768 87.152240
v -3.601071 -10.387330 65.664580
v -9.175353 -6.946045 66.063070
v -3.589795 -10.464510 59.225800
v -8.865726 -7.138420 59.484140
v -10.695290 -1.482266 65.409960
v -10.090530 -0.099194 59.945750
v -0.790960 4.989663 64.356320
v -6.212576 4.942894 64.304540
v -0.666197 5.869049 73.413570
v -6.411825 6.259392 73.849960
v -10.050460 -6.587682 73.330470
v -3.426292 -9.270725 73.006170
v -0.825483 4.711864 60.254320
v -5.906961 4.659597 60.112750
v -15.951440 -1.234044 76.903850
v -13.137430 -2.630375 78.958520
v -16.571210 2.422046 77.815540
v -11.944060 1.338676 81.582960
v -11.508720 2.556874 70.868180
v -13.312700 -1.814047 63.472190
v -12.008810 2.900289 68.996910
v -17.206870 2.346358 63.838330
v -20.250710 -3.379733 59.998020
v -14.736200 -4.284829 61.912080
v -6.615511 5.328161 79.693950
v -12.880220 6.133939 75.856800
v -11.042770 5.414024 71.965760
v -18.616340 -14.020370 61.916300
v -19.243300 -12.982460 66.730620
v -20.432910 -13.514950 62.910640
v -20.325250 0.310615 66.063420
v -4.383730 -0.189843 88.600300
v -6.121309 -0.004699 86.266740
v -5.044192 -2.236768 87.152240
v -2.202719 1.707520 86.763600
v -2.253969 0.446444 88.513050
v -2.276338 -6.897073 80.957230
v -2.286323 -5.984521 82.716630
v -4.854795 -4.210862 84.742780
v -6.761071 -3.570223 83.373990
v -5.044192 -2.236768 87.152240
v -6.121309 -0.004699 86.266740
v -10.424170 2.169063 64.944600
v -6.221935 0.187681 84.261760
v -6.250223 -4.194592 80.918950
v -12.615450 -3.333377 73.716420
v -11.508720 2.556874 70.868180
v -3.027064 -6.989429 77.303570
v -1.838896 1.494858 84.179900
v -6.221935 0.187681 84.261760
v -11.944060 1.338676 81.582960
v -13.137430 -2.630375 78.958520
v -0.868367 4.899591 79.847780
v -2.553526 -6.153120 78.858300
v -11.042770 5.414024 71.965760
v -12.615450 -3.333377 73.716420
v -12.880220 6.133939 75.856800
v -18.781940 -1.377364 66.865910
v -21.619420 -0.915613 63.949170
v -11.508720 2.556874 70.868180
v -12.983280 -3.391876 72.681950
v -13.312700 -1.814047 63.472190
v -14.736200 -4.284829 61.912080
v -15.188570 -2.820993 66.106530
v -4.925589 -9.298914 52.984460
v -9.617846 -5.073152 53.003820
v -8.499048 9.621370 44.215520
v -13.631340 2.530116 45.083800
v -6.020441 9.479383 48.601400
v -11.189540 3.092679 53.356380
v -5.714247 8.604933 53.670900
v 1.350399 7.944354 53.757640
v -0.389064 8.439494 42.476560
v 1.631748 8.711699 48.523160
v -14.913040 -5.895495 29.031860
v -9.375697 -5.388269 45.554190
v -19.948740 1.610290 28.774950
v -2.712208 -10.128500 45.724540
v -11.207490 11.872070 27.167010
v 0.455845 10.795040 25.390520
v -11.515220 -8.462842 28.866660
v -2.733453 -14.862990 29.244690
v -14.718350 0.601695 0.096351
v -11.510270 -2.567368 2.113707
v -12.536450 6.483484 5.845032
v -10.886110 2.940745 6.461810
v -15.559660 -2.217076 0.139234
v -12.503000 -5.195637 3.477689
v -14.718350 0.601695 0.096351
v -10.996450 9.864215 0.138882
v -7.644765 0.188689 0.096054
v -6.967367 9.562709 0.138762
v -8.302630 -4.310166 0.138939
v -15.559660 -2.217076 0.139234
v -6.967367 9.562709 0.138762
v -7.658379 4.405409 5.862670
v -7.644765 0.188689 0.096054
v -8.008085 -2.888139 2.099341
v -6.967367 9.562709 0.138762
v -10.996450 9.864215 0.138882
v -7.644467 8.105487 6.408360
v -10.467390 8.645403 6.702507
v -10.143200 10.124850 18.667490
v -9.692430 7.221946 30.134080
v -4.836958 7.675197 18.087230
v -4.432043 5.684188 29.591090
v -4.598551 6.329771 25.713670
v -9.692430 7.221946 30.134080
v -14.590220 2.041436 25.038040
v -15.738550 3.968105 18.373340
v -12.536450 6.483484 5.845032
v -10.886110 2.940745 6.461810
v -11.097010 -2.332712 16.550250
v -7.658379 4.405409 5.862670
v -5.322522 1.376531 16.818510
v -10.730280 -5.026473 24.045260
v -4.497462 -0.396741 24.603810
v -4.116515 -1.046241 27.999690
v -10.467390 8.645403 6.702507
v -7.644467 8.105487 6.408360
v -12.488630 -4.549735 0.139247
v -8.302630 -4.310166 0.138939
v -9.066680 -4.523406 3.530747
v -7.644467 8.105487 6.408360
v -12.488630 -4.549735 0.139247
v -7.644467 8.105487 6.408360
v -4.836958 7.675197 18.087230
v -4.497462 -0.396741 24.603810
v -4.598551 6.329771 25.713670
v -19.948740 1.610290 28.774950
v 1.099916 -7.009047 26.244650
v -14.913040 -5.895495 29.031860
v -11.207490 11.872070 27.167010
v 1.099916 -7.009047 26.244650
v -19.948740 1.610290 28.774950
v 0.455845 10.795040 25.390520
v 1.099916 -7.009047 26.244650
v -11.207490 11.872070 27.167010
v -14.913040 -5.895495 29.031860
v 1.099916 -7.009047 26.244650
v -11.515220 -8.462842 28.866660
v -21.759790 -7.067533 60.009000
v -16.561580 -9.379099 61.865380
v -21.394130 -6.865224 66.918810
v -23.539530 -5.972297 63.505470
v -16.561580 -9.379099 61.865380
v -17.276320 -8.306362 66.311810
v -23.814550 -11.708810 60.059920
v -18.616340 -14.020370 61.916300
v -23.396260 -11.527380 67.190300
v -25.594300 -10.613570 63.556390
v -18.616340 -14.020370 61.916300
v -19.243300 -12.982460 66.730620
v -11.515220 -8.462842 28.866660
v 1.099916 -7.009047 26.244650
v -2.733453 -14.862990 29.244690
v -23.063640 -12.243320 66.191870
v -23.396260 -11.527380 67.190300
v -20.395570 -13.301190 65.687300
v -20.395570 -13.301190 65.687300
v -18.616340 -14.020370 61.916300
v -20.432910 -13.514950 62.910640
v -23.814550 -11.708810 60.059920
v -22.968960 -13.052580 61.965460
v -22.968960 -13.052580 61.965460
v -25.594300 -10.613570 63.556390
v -24.586260 -11.974900 63.461170
v -23.063640 -12.243320 66.191870
v -18.865290 -20.265300 64.277500
v -18.773600 -20.276330 67.599620
v -18.264110 -20.433320 63.975760
v -18.202100 -20.432800 67.621150
v -23.401850 -18.628350 67.006680
v -23.770980 -19.211650 66.911830
v -20.737740 -19.085250 66.905600
v -22.672140 -19.761330 66.798190
v -20.666740 -21.424570 67.342130
v -20.855550 -22.482610 67.426850
v -22.171220 -18.982710 62.416170
v -22.672140 -19.761330 66.798190
v -20.437810 -21.531720 63.034930
v -20.666740 -21.424570 67.342130
v -19.853980 -20.634240 68.585060
v -20.168520 -20.903560 67.633200
v -18.817630 -20.439560 68.552970
v -19.155260 -20.688990 67.470320
v -20.319390 -16.974220 67.498640
v -22.552890 -17.492660 67.901700
v -20.664330 -22.773170 63.018310
v -24.628310 -20.414620 65.335950
v -24.145000 -20.305640 61.782780
v -24.586260 -11.974900 63.461170
v -24.882970 -14.596350 62.373520
v -23.063640 -12.243320 66.191870
v -24.324660 -14.260390 65.239690
v -23.063640 -12.243320 66.191870
v -21.682930 -14.852750 66.025280
v -21.040210 -15.359920 63.225140
v -20.395570 -13.301190 65.687300
v -20.432910 -13.514950 62.910640
v -21.040210 -15.359920 63.225140
v -22.968960 -13.052580 61.965460
v -22.515220 -15.880700 61.630310
v -23.966070 -17.223460 66.368480
v -21.040210 -15.359920 63.225140
v -22.171220 -18.982710 62.416170
v -20.437810 -21.531720 63.034930
v -20.319390 -16.974220 67.498640
v -18.817630 -20.439560 68.552970
v -19.155260 -20.688990 67.470320
v -20.737740 -19.085250 66.905600
v -20.666740 -21.424570 67.342130
v -18.773600 -20.276330 67.599620
v -18.865290 -20.265300 64.277500
v -21.682930 -14.852750 66.025280
v -22.515220 -15.880700 61.630310
v -20.395570 -13.301190 65.687300
v -22.968960 -13.052580 61.965460
v -20.432910 -13.514950 62.910640
v -19.190320 2.131382 71.653920
v -17.885060 -2.142171 72.391400
v -15.332880 5.072995 69.109270
v -19.617280 -1.518367 67.789410
v -22.526470 1.108038 66.782530
v -15.148950 -3.817530 67.493960
v -13.209980 -4.448173 73.159340
v -17.239250 3.659069 63.232470
v -12.093160 5.424966 70.127500
v -12.485440 2.040477 61.730140
v -19.452610 -0.043419 65.694470
v -17.919300 -1.442750 66.098860
v -19.617280 -1.518367 67.789410
v -22.526470 1.108038 66.782530
v -14.784490 -2.575553 65.478360
v -15.148950 -3.817530 67.493960
v -15.747990 -0.333452 64.635640
v -17.239250 3.659069 63.232470
v -14.308240 -2.136865 64.849510
v -12.485440 2.040477 61.730140
v -10.536780 -6.007695 27.670240
v -14.122720 1.167596 28.856080
v -4.432043 5.684188 29.591090
v -1.875461 -8.552574 84.356960
v -1.760713 -8.326647 83.960250
v -1.539193 -7.869588 83.386260
v -1.394797 -7.407222 82.802760
v -1.974452 -9.258563 85.351880
v -1.917090 -8.800549 85.023480
v 0.205259 -4.270824 84.664860
v 0.938407 -3.351946 87.244830
v 1.163858 -4.704552 86.746030
v 0.125212 -8.559206 88.832980
v 0.373591 -8.649597 87.980350
v 1.024025 -7.037248 89.305180
v 1.116586 -6.706859 87.878740
v -0.054296 -7.864048 86.022540
v -0.441532 -7.568452 84.752360
v 0.159746 -5.681028 84.469250
v -1.058731 -8.232521 84.972300
v -0.547702 -6.567016 83.515910
v -0.919733 -7.537124 83.929130
v -1.481203 -8.841247 86.270230
v 1.305342 -7.100730 92.046750
v 0.209569 -8.273354 94.057990
v 0.107161 -9.383396 91.723460
v 1.492376 -4.842672 89.919130
v 1.163858 -4.704552 86.746030
v 1.875434 -3.450016 87.148850
v 1.492376 -4.842672 89.919130
v 2.580844 -2.711418 89.020390
v 0.938407 -3.351946 87.244830
v 2.580844 -2.711418 89.020390
v 1.875434 -3.450016 87.148850
v 1.554018 -2.904680 89.210420
v 0.938407 -3.351946 87.244830
v 2.495213 -3.145644 90.326780
v 1.812027 -4.005825 90.351680
v 1.812027 -4.005825 90.351680
v 1.492376 -4.842672 89.919130
v 2.495213 -3.145644 90.326780
v -1.451775 -9.022795 87.839300
v 0.294014 -8.997649 89.879910
v -1.682301 -10.057980 89.586620
v -1.519217 -9.224701 88.685690
v 0.340111 -5.742193 95.344460
v 1.722976 -4.517648 93.393780
v 0.582021 -3.219457 95.376410
v 0.075351 0.027058 91.229090
v 0.435774 -1.189428 93.562080
v 1.250593 -2.183969 90.009230
v 1.554018 -2.904680 89.210420
v -1.901221 -9.697169 87.744820
v -0.153732 -0.270446 88.666120
v 0.473004 -2.341898 87.238080
v 0.473004 -2.341898 87.238080
v 2.826021 -9.135248 66.110320
v 2.518565 -9.215056 59.528960
v 6.146280 -3.060988 60.009670
v 6.182109 -4.560921 65.476400
v 4.265199 3.031617 64.345790
v 4.843705 4.206234 73.894260
v 3.715891 -9.098849 73.384650
v 3.911197 2.868643 60.151400
v 7.958278 -6.478538 79.041560
v 11.079590 -6.883102 75.945280
v 14.010390 -4.227941 76.818260
v 8.223161 -2.340140 81.662360
v 8.736055 -1.120060 63.708660
v 8.327644 -1.061542 70.946270
v 9.893950 1.062824 70.661510
v 14.242500 -0.150042 64.868700
v 15.197350 -0.532944 59.993470
v 9.408967 -1.658480 60.340330
v 4.721120 3.118870 79.939580
v 11.465770 1.416933 77.061060
v 9.559682 2.409546 73.174330
v 11.554460 -8.368719 52.000610
v 11.379120 -3.723886 50.256250
v 13.112450 -4.908340 50.626050
v 15.590500 -4.185838 65.714200
v 2.021456 -0.819608 86.346500
v -0.153732 -0.270446 88.666120
v 0.473004 -2.341898 87.238080
v 0.283582 -4.308774 84.822730
v 0.473004 -2.341898 87.238080
v 1.996507 -4.446660 83.459780
v 2.021456 -0.819608 86.346500
v 7.221179 -1.049676 65.014050
v 1.418407 -4.962049 80.994060
v 2.195927 -0.654758 84.344220
v 8.327644 -1.061542 70.946270
v 6.816806 -6.686557 73.622920
v 2.195927 -0.654758 84.344220
v 8.223161 -2.340140 81.662360
v 7.958278 -6.478538 79.041560
v 9.559682 2.409546 73.174330
v 6.816806 -6.686557 73.622920
v 11.465770 1.416933 77.061060
v 12.878010 -6.622983 65.259830
v 16.472570 -4.241650 62.852860
v 7.030465 -5.630661 71.718830
v 8.327644 -1.061542 70.946270
v 8.736055 -1.120060 63.708660
v 9.408967 -1.658480 60.340330
v 9.137686 -5.629823 64.458800
v 1.385212 -9.077910 53.003820
v 10.531140 -3.539438 45.543040
v 7.286149 4.358953 43.429830
v 7.987032 4.381116 48.601410
v 7.186870 3.909344 53.670900
v 7.838033 -3.832747 53.356380
v 4.493192 -10.129940 46.611220
v 10.562700 -14.113940 30.762070
v 17.248330 -8.071782 30.016560
v 11.295160 3.612941 26.505750
v 6.663458 -15.829460 30.632800
v 11.118000 -14.211200 2.113595
v 14.380900 -11.098590 0.096257
v 12.328180 -5.504583 5.920494
v 10.212100 -8.754778 6.776594
v 12.064710 -16.856410 3.477569
v 15.172890 -13.931620 0.139135
v 10.821210 -1.772509 0.138801
v 14.380900 -11.098590 0.096257
v 7.301186 -11.388100 0.095943
v 6.787477 -2.003667 0.138672
v 15.172890 -13.931620 0.139135
v 7.880440 -15.897760 0.138820
v 7.222560 -6.961851 5.930451
v 6.787477 -2.003667 0.138672
v 7.301186 -11.388100 0.095943
v 7.610754 -14.470820 2.099220
v 10.821210 -1.772509 0.138801
v 6.787477 -2.003667 0.138672
v 7.674036 -3.238741 6.154676
v 10.532950 -3.023287 6.509029
v 8.623752 -0.072400 29.521220
v 10.295880 0.516962 17.817830
v 4.584229 -0.695193 17.184220
v 3.674617 -0.542183 24.877000
v 3.177679 -0.417111 28.777810
v 8.623752 -0.072400 29.521220
v 12.335330 -7.085620 25.801750
v 14.224230 -6.720384 19.038050
v 10.212100 -8.754778 6.776594
v 12.328180 -5.504583 5.920494
v 8.272170 -11.992410 17.877610
v 3.573320 -7.056773 17.020010
v 7.222560 -6.961851 5.930451
v 6.914755 -13.121780 25.652430
v 1.983628 -7.147367 24.887710
v 1.300120 -7.063519 28.297220
v 10.532950 -3.023287 6.509029
v 7.674036 -3.238741 6.154676
v 12.061620 -16.210340 0.139137
v 7.880440 -15.897760 0.138820
v 8.640651 -16.124310 3.530623
v 7.674036 -3.238741 6.154676
v 12.061620 -16.210340 0.139137
v 7.674036 -3.238741 6.154676
v 4.584229 -0.695193 17.184220
v 1.983628 -7.147367 24.887710
v 3.674617 -0.542183 24.877000
v 17.248330 -8.071782 30.016560
v 10.562700 -14.113940 30.762070
v 11.295160 3.612941 26.505750
v 17.248330 -8.071782 30.016560
v 11.295160 3.612941 26.505750
v 10.562700 -14.113940 30.762070
v 6.663458 -15.829460 30.632800
v 15.980700 -1.330719 56.168910
v 10.246650 -2.658900 55.088360
v 14.760760 -7.986985 57.626990
v 17.461280 -4.864067 57.552980
v 10.246650 -2.658900 55.088360
v 10.561930 -6.953444 56.788330
v 17.113170 -2.395705 51.336790
v 11.379120 -3.723886 50.256250
v 15.809330 -9.261994 52.821500
v 18.593760 -5.929054 52.720870
v 11.379120 -3.723886 50.256250
v 11.554460 -8.368719 52.000610
v 6.663458 -15.829460 30.632800
v 15.482660 -8.340773 52.006200
v 15.809330 -9.261994 52.821500
v 12.753560 -7.580901 51.322890
v 12.753560 -7.580901 51.322890
v 13.112450 -4.908340 50.626050
v 11.379120 -3.723886 50.256250
v 17.113170 -2.395705 51.336790
v 15.791490 -4.320501 50.500040
v 18.593760 -5.929054 52.720870
v 15.791490 -4.320501 50.500040
v 17.371620 -5.877748 51.545220
v 15.482660 -8.340773 52.006200
v 14.386530 -11.289440 40.750700
v 14.433990 -8.044113 40.036070
v 14.906490 -7.864158 39.561670
v 14.823130 -11.418210 40.370770
v 15.117700 -10.024510 45.412050
v 14.734200 -9.386765 45.614200
v 13.072400 -8.581480 45.204990
v 14.126390 -9.787434 44.739100
v 14.736630 -10.596490 42.742820
v 15.927540 -10.685700 43.059540
v 14.126390 -9.787434 44.739100
v 13.834810 -5.288467 44.799510
v 14.961920 -6.398235 41.751120
v 14.736630 -10.596490 42.742820
v 12.967720 -8.774883 43.177350
v 12.765330 -9.789756 43.096260
v 11.719230 -9.920840 43.057920
v 11.919530 -8.785791 43.198920
v 14.702060 -9.829865 46.820240
v 12.376270 -9.825998 46.922470
v 16.361220 -6.387338 42.108320
v 16.556770 -8.587577 45.149610
v 16.507870 -5.022108 44.668690
v 17.417020 -5.427660 49.346820
v 17.371620 -5.877748 51.545220
v 15.482660 -8.340773 52.006200
v 15.482660 -8.340773 52.006200
v 16.310160 -8.071709 49.997470
v 13.449080 -5.542770 48.783540
v 13.538810 -8.352314 49.564240
v 12.753560 -7.580901 51.322890
v 13.449080 -5.542770 48.783540
v 13.112450 -4.908340 50.626050
v 15.791490 -4.320501 50.500040
v 15.187900 -4.342933 48.057430
v 15.544660 -9.061306 46.967310
v 13.449080 -5.542770 48.783540
v 13.834810 -5.288467 44.799510
v 14.961920 -6.398235 41.751120
v 11.719230 -9.920840 43.057920
v 12.376270 -9.825998 46.922470
v 11.919530 -8.785791 43.198920
v 13.072400 -8.581480 45.204990
v 14.386530 -11.289440 40.750700
v 14.736630 -10.596490 42.742820
v 14.433990 -8.044113 40.036070
v 13.538810 -8.352314 49.564240
v 15.187900 -4.342933 48.057430
v 12.753560 -7.580901 51.322890
v 15.791490 -4.320501 50.500040
v 13.112450 -4.908340 50.626050
v 11.821760 -7.157442 71.097500
v 15.298800 -4.317449 71.693720
v 13.850690 0.918187 70.987090
v 13.397420 -7.832211 65.573150
v 17.819430 -5.013266 66.302070
v 6.611069 -6.734206 71.755740
v 8.406395 -7.506211 64.608540
v 15.026460 1.060359 64.760720
v 10.523500 2.432139 71.263070
v 10.266470 2.906863 63.573970
v 12.217560 -5.679097 64.887410
v 14.691240 -3.854905 65.390490
v 13.397420 -7.832211 65.573150
v 17.819430 -5.013266 66.302070
v 8.995945 -4.766846 64.330280
v 8.406395 -7.506211 64.608540
v 11.868160 -0.770567 64.875320
v 15.026460 1.060359 64.760720
v 11.868160 -0.770567 64.875320
v 9.304768 -2.412096 64.708430
v 15.026460 1.060359 64.760720
v 10.266470 2.906863 63.573970
v 9.304768 -2.412096 64.708430
v 11.493790 -7.119438 29.655350
v 6.321222 -13.356930 29.358260
v 3.177679 -0.417111 28.777810
v -2.082677 -5.673000 95.200900
v 1.574035 -5.683710 97.315720
v -0.911023 -5.902554 98.375850
v 0.105644 -5.563303 94.614020
v 2.033874 -3.931800 97.354880
v 0.213567 -4.108368 94.656440
v 0.213567 -4.108368 94.656440
v 0.485324 -2.436727 97.649090
v -0.812417 -3.135084 94.720830
v -0.702121 -2.671556 98.841610
v -2.076419 -3.264951 95.294620
v -2.398268 -4.338820 98.638280
v -2.063304 -4.549052 100.002400
v -1.946141 -2.871438 98.659630
v 1.522139 -3.830092 98.963440
v 0.024817 -3.966771 99.605190
v -0.911972 -4.434202 99.266850
v -0.911972 -4.434202 99.266850
v -1.956900 -5.731023 98.570630
v -2.063304 -4.549052 100.002400
v -2.451576 -4.387358 95.465290
v -2.398268 -4.338820 98.638280
v -2.451576 -4.387358 95.465290
vt 0.004408 0.655458 0.000000
vt 0.004408 0.670049 0.000000
vt 0.020398 0.669565 0.000000
vt 0.028047 0.656594 0.000000
vt 0.004408 0.641343 0.000000
vt 0.035027 0.644146 0.000000
vt 0.041571 0.630546 0.000000
vt 0.004408 0.615706 0.000000
vt 0.004408 0.700546 0.000000
vt 0.018959 0.707302 0.000000
vt 0.020327 0.685617 0.000000
vt 0.004408 0.685518 0.000000
vt 0.214428 0.737218 0.000000
vt 0.191222 0.687187 0.000000
vt 0.179533 0.719443 0.000000
vt 0.113493 0.775478 0.000000
vt 0.117661 0.807383 0.000000
vt 0.155365 0.816495 0.000000
vt 0.157148 0.774999 0.000000
vt 0.088413 0.681688 0.000000
vt 0.097324 0.731123 0.000000
vt 0.127434 0.678996 0.000000
vt 0.071520 0.682416 0.000000
vt 0.074499 0.659158 0.000000
vt 0.079396 0.643685 0.000000
vt 0.082420 0.621025 0.000000
vt 0.041529 0.745329 0.000000
vt 0.094431 0.943722 0.000000
vt 0.144041 0.894368 0.000000
vt 0.078273 0.900107 0.000000
vt 0.196642 0.814419 0.000000
vt 0.294367 0.636065 0.000000
vt 0.336503 0.653954 0.000000
vt 0.308668 0.745203 0.000000
vt 0.255379 0.694652 0.000000
vt 0.325087 0.634288 0.000000
vt 0.412974 0.169060 0.000000
vt 0.374108 0.169495 0.000000
vt 0.375779 0.132226 0.000000
vt 0.417569 0.137498 0.000000
vt 0.278684 0.748124 0.000000
vt 0.261312 0.743888 0.000000
vt 0.333188 0.131516 0.000000
vt 0.343549 0.121623 0.000000
vt 0.326930 0.169126 0.000000
vt 0.004408 0.737792 0.000000
vt 0.004408 0.745775 0.000000
vt 0.042325 0.776761 0.000000
vt 0.111795 0.859576 0.000000
vt 0.036441 0.854327 0.000000
vt 0.041824 0.814265 0.000000
vt 0.056084 0.997030 0.000000
vt 0.146779 0.951368 0.000000
vt 0.004408 0.955970 0.000000
vt 0.191992 0.896120 0.000000
vt 0.215852 0.979064 0.000000
vt 0.210102 0.929716 0.000000
vt 0.251540 0.916719 0.000000
vt 0.315905 0.868162 0.000000
vt 0.268836 0.843061 0.000000
vt 0.004408 0.901950 0.000000
vt 0.004408 0.678121 0.000000
vt 0.239495 0.791503 0.000000
vt 0.024820 0.785722 0.000000
vt 0.004408 0.782520 0.000000
vt 0.004408 0.823316 0.000000
vt 0.004408 0.849803 0.000000
vt 0.290811 0.954299 0.000000
vt 0.365117 0.901705 0.000000
vt 0.004408 0.751983 0.000000
vt 0.342308 0.784872 0.000000
vt 0.404692 0.792840 0.000000
vt 0.271534 0.759704 0.000000
vt 0.214428 0.737218 0.000000
vt 0.580666 0.461569 0.000000
vt 0.681377 0.458698 0.000000
vt 0.580666 0.376424 0.000000
vt 0.679427 0.376084 0.000000
vt 0.764521 0.460474 0.000000
vt 0.793427 0.376067 0.000000
vt 0.993267 0.444433 0.000000
vt 0.894066 0.442074 0.000000
vt 0.993267 0.565448 0.000000
vt 0.904750 0.563438 0.000000
vt 0.692145 0.559302 0.000000
vt 0.580666 0.533407 0.000000
vt 0.993267 0.375634 0.000000
vt 0.894566 0.376022 0.000000
vt 0.260401 0.592027 0.000000
vt 0.245595 0.661423 0.000000
vt 0.192482 0.591503 0.000000
vt 0.166221 0.664299 0.000000
vt 0.009845 0.544943 0.000000
vt 0.009845 0.402409 0.000000
vt 0.069016 0.530083 0.000000
vt 0.098170 0.404413 0.000000
vt 0.099549 0.340745 0.000000
vt 0.009845 0.329665 0.000000
vt 0.903172 0.638793 0.000000
vt 0.817558 0.636241 0.000000
vt 0.814859 0.566950 0.000000
vt 0.568012 0.193164 0.000000
vt 0.526834 0.193145 0.000000
vt 0.567991 0.215871 0.000000
vt 0.187978 0.408846 0.000000
vt 0.943606 0.818347 0.000000
vt 0.890959 0.764222 0.000000
vt 0.891692 0.804580 0.000000
vt 0.993267 0.763535 0.000000
vt 0.993267 0.815018 0.000000
vt 0.580666 0.688638 0.000000
vt 0.580666 0.734265 0.000000
vt 0.633881 0.767430 0.000000
vt 0.653244 0.742192 0.000000
vt 0.677678 0.800417 0.000000
vt 0.695035 0.785160 0.000000
vt 0.822063 0.454991 0.000000
vt 0.701511 0.752274 0.000000
vt 0.652766 0.682055 0.000000
vt 0.757131 0.559260 0.000000
vt 0.794767 0.535436 0.000000
vt 0.580666 0.606624 0.000000
vt 0.993267 0.707556 0.000000
vt 0.903091 0.726715 0.000000
vt 0.792655 0.712265 0.000000
vt 0.763636 0.665680 0.000000
vt 0.993267 0.643871 0.000000
vt 0.580666 0.639064 0.000000
vt 0.069902 0.576576 0.000000
vt 0.315370 0.589997 0.000000
vt 0.115726 0.600042 0.000000
vt 0.254117 0.406908 0.000000
vt 0.184202 0.343680 0.000000
vt 0.374668 0.518645 0.000000
vt 0.315077 0.528542 0.000000
vt 0.357631 0.414774 0.000000
vt 0.357631 0.362621 0.000000
vt 0.327960 0.406531 0.000000
vt 0.580666 0.281628 0.000000
vt 0.675478 0.281192 0.000000
vt 0.887993 0.175388 0.000000
vt 0.789186 0.188588 0.000000
vt 0.887795 0.207369 0.000000
vt 0.788671 0.281148 0.000000
vt 0.887463 0.280984 0.000000
vt 0.993267 0.281323 0.000000
vt 0.993267 0.173290 0.000000
vt 0.993267 0.198560 0.000000
vt 0.687271 0.007963 0.000000
vt 0.679614 0.199986 0.000000
vt 0.790049 0.007963 0.000000
vt 0.580666 0.200111 0.000000
vt 0.888714 0.007963 0.000000
vt 0.993267 0.007963 0.000000
vt 0.655458 0.007963 0.000000
vt 0.580666 0.007963 0.000000
vt 0.743636 0.864840 0.000000
vt 0.808578 0.864183 0.000000
vt 0.719079 0.966502 0.000000
vt 0.808479 0.970582 0.000000
vt 0.751594 0.834932 0.000000
vt 0.808612 0.836934 0.000000
vt 0.645180 0.896791 0.000000
vt 0.733655 0.864423 0.000000
vt 0.643867 0.828481 0.000000
vt 0.732269 0.825489 0.000000
vt 0.600271 0.833124 0.000000
vt 0.617700 0.903834 0.000000
vt 0.967726 0.927096 0.000000
vt 0.906550 0.968473 0.000000
vt 0.897107 0.868071 0.000000
vt 0.869120 0.853754 0.000000
vt 0.591109 0.927099 0.000000
vt 0.647755 0.917744 0.000000
vt 0.591109 0.983164 0.000000
vt 0.670166 0.982498 0.000000
vt 0.481150 0.572266 0.000000
vt 0.550633 0.570351 0.000000
vt 0.472026 0.526937 0.000000
vt 0.571843 0.527562 0.000000
vt 0.549010 0.527419 0.000000
vt 0.571885 0.569765 0.000000
vt 0.552204 0.632182 0.000000
vt 0.490700 0.632332 0.000000
vt 0.346963 0.651900 0.000000
vt 0.343503 0.686975 0.000000
vt 0.493724 0.693706 0.000000
vt 0.339814 0.719496 0.000000
vt 0.488843 0.741158 0.000000
vt 0.554992 0.694098 0.000000
vt 0.555363 0.735632 0.000000
vt 0.571907 0.734257 0.000000
vt 0.341793 0.624074 0.000000
vt 0.331664 0.594736 0.000000
vt 0.808521 0.819853 0.000000
vt 0.867114 0.822759 0.000000
vt 0.849711 0.842790 0.000000
vt 0.967652 0.983213 0.000000
vt 0.596383 0.873365 0.000000
vt 0.331523 0.757241 0.000000
vt 0.477562 0.795541 0.000000
vt 0.552786 0.746678 0.000000
vt 0.550296 0.795541 0.000000
vt 0.224898 0.163211 0.000000
vt 0.224728 0.131941 0.000000
vt 0.285277 0.163237 0.000000
vt 0.224877 0.161435 0.000000
vt 0.224754 0.134559 0.000000
vt 0.284992 0.161494 0.000000
vt 0.222448 0.164065 0.000000
vt 0.222441 0.134787 0.000000
vt 0.286688 0.164010 0.000000
vt 0.226900 0.164954 0.000000
vt 0.226938 0.132779 0.000000
vt 0.247472 0.164978 0.000000
vt 0.103066 0.262531 0.000000
vt 0.009845 0.263062 0.000000
vt 0.247277 0.267236 0.000000
vt 0.185417 0.264786 0.000000
vt 0.357631 0.269224 0.000000
vt 0.309637 0.270250 0.000000
vt 0.100692 0.192104 0.000000
vt 0.009845 0.192104 0.000000
vt 0.248211 0.192104 0.000000
vt 0.185918 0.192104 0.000000
vt 0.357631 0.192104 0.000000
vt 0.309075 0.192104 0.000000
vt 0.225151 0.165837 0.000000
vt 0.227344 0.131550 0.000000
vt 0.271133 0.165891 0.000000
vt 0.483928 0.211604 0.000000
vt 0.484267 0.193171 0.000000
vt 0.508951 0.212039 0.000000
vt 0.526891 0.212343 0.000000
vt 0.369099 0.193211 0.000000
vt 0.369161 0.215897 0.000000
vt 0.414294 0.193158 0.000000
vt 0.409649 0.216376 0.000000
vt 0.428659 0.216497 0.000000
vt 0.441372 0.193104 0.000000
vt 0.441873 0.214034 0.000000
vt 0.483944 0.210732 0.000000
vt 0.426925 0.412467 0.000000
vt 0.511815 0.412244 0.000000
vt 0.435236 0.400019 0.000000
vt 0.501475 0.400293 0.000000
vt 0.519844 0.314136 0.000000
vt 0.510763 0.321209 0.000000
vt 0.524540 0.329454 0.000000
vt 0.516679 0.332677 0.000000
vt 0.511874 0.361961 0.000000
vt 0.501347 0.365873 0.000000
vt 0.553445 0.098118 0.000000
vt 0.481611 0.080146 0.000000
vt 0.550099 0.060628 0.000000
vt 0.485693 0.053889 0.000000
vt 0.558646 0.336187 0.000000
vt 0.541555 0.341399 0.000000
vt 0.567921 0.341122 0.000000
vt 0.543367 0.351090 0.000000
vt 0.553741 0.272251 0.000000
vt 0.531140 0.277187 0.000000
vt 0.425528 0.365830 0.000000
vt 0.481596 0.325133 0.000000
vt 0.421363 0.318602 0.000000
vt 0.441873 0.214034 0.000000
vt 0.442468 0.238933 0.000000
vt 0.483944 0.210732 0.000000
vt 0.483424 0.239010 0.000000
vt 0.483928 0.211604 0.000000
vt 0.526971 0.239014 0.000000
vt 0.567969 0.238979 0.000000
vt 0.526891 0.212343 0.000000
vt 0.369161 0.215897 0.000000
vt 0.369224 0.238981 0.000000
vt 0.409649 0.216376 0.000000
vt 0.405078 0.239227 0.000000
vt 0.507453 0.290806 0.000000
vt 0.524482 0.154360 0.000000
vt 0.396087 0.312591 0.000000
vt 0.403354 0.366961 0.000000
vt 0.455066 0.125858 0.000000
vt 0.453927 0.072529 0.000000
vt 0.470863 0.068020 0.000000
vt 0.472770 0.092185 0.000000
vt 0.485608 0.053092 0.000000
vt 0.485539 0.034007 0.000000
vt 0.541609 0.034121 0.000000
vt 0.481938 0.153903 0.000000
vt 0.549082 0.150433 0.000000
vt 0.508951 0.212039 0.000000
vt 0.428659 0.216497 0.000000
vt 0.567991 0.215871 0.000000
vt 0.189804 0.515057 0.000000
vt 0.258298 0.505498 0.000000
vt 0.117364 0.527241 0.000000
vt 0.255409 0.428677 0.000000
vt 0.189052 0.428677 0.000000
vt 0.316026 0.428677 0.000000
vt 0.315077 0.528542 0.000000
vt 0.118153 0.428677 0.000000
vt 0.069016 0.530083 0.000000
vt 0.066782 0.428677 0.000000
vt 0.347606 0.475659 0.000000
vt 0.353487 0.486053 0.000000
vt 0.345642 0.491495 0.000000
vt 0.334698 0.474517 0.000000
vt 0.365861 0.488288 0.000000
vt 0.363354 0.498526 0.000000
vt 0.361890 0.469946 0.000000
vt 0.354713 0.458450 0.000000
vt 0.367829 0.479724 0.000000
vt 0.374213 0.459962 0.000000
vt 0.571911 0.694206 0.000000
vt 0.571892 0.632134 0.000000
vt 0.571869 0.795541 0.000000
vt 0.020398 0.669565 0.000000
vt 0.028047 0.656594 0.000000
vt 0.035027 0.644146 0.000000
vt 0.041571 0.630546 0.000000
vt 0.018959 0.707302 0.000000
vt 0.020327 0.685617 0.000000
vt 0.191222 0.687187 0.000000
vt 0.214428 0.737218 0.000000
vt 0.179533 0.719443 0.000000
vt 0.117661 0.807383 0.000000
vt 0.113493 0.775478 0.000000
vt 0.155365 0.816495 0.000000
vt 0.157148 0.774999 0.000000
vt 0.097324 0.731123 0.000000
vt 0.088413 0.681688 0.000000
vt 0.127434 0.678996 0.000000
vt 0.071520 0.682416 0.000000
vt 0.079396 0.643685 0.000000
vt 0.074499 0.659158 0.000000
vt 0.041529 0.745329 0.000000
vt 0.144041 0.894368 0.000000
vt 0.094431 0.943722 0.000000
vt 0.078273 0.900107 0.000000
vt 0.196642 0.814419 0.000000
vt 0.336503 0.653954 0.000000
vt 0.294367 0.636065 0.000000
vt 0.308668 0.745203 0.000000
vt 0.255379 0.694652 0.000000
vt 0.325087 0.634288 0.000000
vt 0.374108 0.169495 0.000000
vt 0.412974 0.169060 0.000000
vt 0.375779 0.132226 0.000000
vt 0.417569 0.137498 0.000000
vt 0.261312 0.743888 0.000000
vt 0.278684 0.748124 0.000000
vt 0.333188 0.131516 0.000000
vt 0.343549 0.121623 0.000000
vt 0.326930 0.169126 0.000000
vt 0.042325 0.776761 0.000000
vt 0.111795 0.859576 0.000000
vt 0.036441 0.854327 0.000000
vt 0.041824 0.814265 0.000000
vt 0.146779 0.951368 0.000000
vt 0.191992 0.896120 0.000000
vt 0.210102 0.929716 0.000000
vt 0.315905 0.868162 0.000000
vt 0.251540 0.916719 0.000000
vt 0.268836 0.843061 0.000000
vt 0.239495 0.791503 0.000000
vt 0.024820 0.785722 0.000000
vt 0.342308 0.784872 0.000000
vt 0.271534 0.759704 0.000000
vt 0.214428 0.737218 0.000000
vt 0.681377 0.458698 0.000000
vt 0.679427 0.376084 0.000000
vt 0.793427 0.376067 0.000000
vt 0.764521 0.460474 0.000000
vt 0.894066 0.442074 0.000000
vt 0.904750 0.563438 0.000000
vt 0.692145 0.559302 0.000000
vt 0.894566 0.376022 0.000000
vt 0.245595 0.661423 0.000000
vt 0.260401 0.592027 0.000000
vt 0.192482 0.591503 0.000000
vt 0.166221 0.664299 0.000000
vt 0.009845 0.402409 0.000000
vt 0.009845 0.544943 0.000000
vt 0.069016 0.530083 0.000000
vt 0.098170 0.404413 0.000000
vt 0.099549 0.340745 0.000000
vt 0.009845 0.329665 0.000000
vt 0.903172 0.638793 0.000000
vt 0.817558 0.636241 0.000000
vt 0.814859 0.566950 0.000000
vt 0.526834 0.193145 0.000000
vt 0.568012 0.193164 0.000000
vt 0.567991 0.215871 0.000000
vt 0.187978 0.408846 0.000000
vt 0.890959 0.764222 0.000000
vt 0.943606 0.818347 0.000000
vt 0.891692 0.804580 0.000000
vt 0.633881 0.767430 0.000000
vt 0.677678 0.800417 0.000000
vt 0.653244 0.742192 0.000000
vt 0.695035 0.785160 0.000000
vt 0.822063 0.454991 0.000000
vt 0.652766 0.682055 0.000000
vt 0.701511 0.752274 0.000000
vt 0.794767 0.535436 0.000000
vt 0.757131 0.559260 0.000000
vt 0.903091 0.726715 0.000000
vt 0.792655 0.712265 0.000000
vt 0.763636 0.665680 0.000000
vt 0.069902 0.576576 0.000000
vt 0.315370 0.589997 0.000000
vt 0.115726 0.600042 0.000000
vt 0.254117 0.406908 0.000000
vt 0.184202 0.343680 0.000000
vt 0.315077 0.528542 0.000000
vt 0.374668 0.518645 0.000000
vt 0.357631 0.414774 0.000000
vt 0.357631 0.362621 0.000000
vt 0.327960 0.406531 0.000000
vt 0.675478 0.281192 0.000000
vt 0.789186 0.188588 0.000000
vt 0.887993 0.175388 0.000000
vt 0.887795 0.207369 0.000000
vt 0.887463 0.280984 0.000000
vt 0.788671 0.281148 0.000000
vt 0.679614 0.199986 0.000000
vt 0.687271 0.007963 0.000000
vt 0.790049 0.007963 0.000000
vt 0.888714 0.007963 0.000000
vt 0.655458 0.007963 0.000000
vt 0.808578 0.864183 0.000000
vt 0.743636 0.864840 0.000000
vt 0.719079 0.966502 0.000000
vt 0.808479 0.970582 0.000000
vt 0.808612 0.836934 0.000000
vt 0.751594 0.834932 0.000000
vt 0.733655 0.864423 0.000000
vt 0.645180 0.896791 0.000000
vt 0.643867 0.828481 0.000000
vt 0.732269 0.825489 0.000000
vt 0.617700 0.903834 0.000000
vt 0.600271 0.833124 0.000000
vt 0.906550 0.968473 0.000000
vt 0.967726 0.927096 0.000000
vt 0.897107 0.868071 0.000000
vt 0.869120 0.853754 0.000000
vt 0.647755 0.917744 0.000000
vt 0.591109 0.927099 0.000000
vt 0.591109 0.983164 0.000000
vt 0.670166 0.982498 0.000000
vt 0.550633 0.570351 0.000000
vt 0.481150 0.572266 0.000000
vt 0.472026 0.526937 0.000000
vt 0.549010 0.527419 0.000000
vt 0.571843 0.527562 0.000000
vt 0.571885 0.569765 0.000000
vt 0.552204 0.632182 0.000000
vt 0.490700 0.632332 0.000000
vt 0.343503 0.686975 0.000000
vt 0.346963 0.651900 0.000000
vt 0.493724 0.693706 0.000000
vt 0.488843 0.741158 0.000000
vt 0.339814 0.719496 0.000000
vt 0.554992 0.694098 0.000000
vt 0.555363 0.735632 0.000000
vt 0.571907 0.734257 0.000000
vt 0.341793 0.624074 0.000000
vt 0.331664 0.594736 0.000000
vt 0.808521 0.819853 0.000000
vt 0.867114 0.822759 0.000000
vt 0.849711 0.842790 0.000000
vt 0.967652 0.983213 0.000000
vt 0.596383 0.873365 0.000000
vt 0.331523 0.757241 0.000000
vt 0.477562 0.795541 0.000000
vt 0.552786 0.746678 0.000000
vt 0.550296 0.795541 0.000000
vt 0.224898 0.163211 0.000000
vt 0.285277 0.163237 0.000000
vt 0.224877 0.161435 0.000000
vt 0.284992 0.161494 0.000000
vt 0.286688 0.164010 0.000000
vt 0.226900 0.164954 0.000000
vt 0.247472 0.164978 0.000000
vt 0.103066 0.262531 0.000000
vt 0.009845 0.263062 0.000000
vt 0.247277 0.267236 0.000000
vt 0.185417 0.264786 0.000000
vt 0.357631 0.269224 0.000000
vt 0.309637 0.270250 0.000000
vt 0.100692 0.192104 0.000000
vt 0.009845 0.192104 0.000000
vt 0.248211 0.192104 0.000000
vt 0.185918 0.192104 0.000000
vt 0.357631 0.192104 0.000000
vt 0.309075 0.192104 0.000000
vt 0.225151 0.165837 0.000000
vt 0.483928 0.211604 0.000000
vt 0.484267 0.193171 0.000000
vt 0.508951 0.212039 0.000000
vt 0.526891 0.212343 0.000000
vt 0.369161 0.215897 0.000000
vt 0.369099 0.193211 0.000000
vt 0.414294 0.193158 0.000000
vt 0.409649 0.216376 0.000000
vt 0.441372 0.193104 0.000000
vt 0.428659 0.216497 0.000000
vt 0.441873 0.214034 0.000000
vt 0.483944 0.210732 0.000000
vt 0.511815 0.412244 0.000000
vt 0.426925 0.412467 0.000000
vt 0.435236 0.400019 0.000000
vt 0.501475 0.400293 0.000000
vt 0.510763 0.321209 0.000000
vt 0.519844 0.314136 0.000000
vt 0.524540 0.329454 0.000000
vt 0.516679 0.332677 0.000000
vt 0.511874 0.361961 0.000000
vt 0.501347 0.365873 0.000000
vt 0.481611 0.080146 0.000000
vt 0.553445 0.098118 0.000000
vt 0.550099 0.060628 0.000000
vt 0.485693 0.053889 0.000000
vt 0.541555 0.341399 0.000000
vt 0.558646 0.336187 0.000000
vt 0.567921 0.341122 0.000000
vt 0.543367 0.351090 0.000000
vt 0.531140 0.277187 0.000000
vt 0.553741 0.272251 0.000000
vt 0.425528 0.365830 0.000000
vt 0.481596 0.325133 0.000000
vt 0.421363 0.318602 0.000000
vt 0.442468 0.238933 0.000000
vt 0.441873 0.214034 0.000000
vt 0.483944 0.210732 0.000000
vt 0.483928 0.211604 0.000000
vt 0.483424 0.239010 0.000000
vt 0.567969 0.238979 0.000000
vt 0.526971 0.239014 0.000000
vt 0.526891 0.212343 0.000000
vt 0.369224 0.238981 0.000000
vt 0.369161 0.215897 0.000000
vt 0.409649 0.216376 0.000000
vt 0.405078 0.239227 0.000000
vt 0.507453 0.290806 0.000000
vt 0.524482 0.154360 0.000000
vt 0.396087 0.312591 0.000000
vt 0.403354 0.366961 0.000000
vt 0.453927 0.072529 0.000000
vt 0.455066 0.125858 0.000000
vt 0.470863 0.068020 0.000000
vt 0.472770 0.092185 0.000000
vt 0.485539 0.034007 0.000000
vt 0.485608 0.053092 0.000000
vt 0.541609 0.034121 0.000000
vt 0.481938 0.153903 0.000000
vt 0.549082 0.150433 0.000000
vt 0.508951 0.212039 0.000000
vt 0.428659 0.216497 0.000000
vt 0.567991 0.215871 0.000000
vt 0.258298 0.505498 0.000000
vt 0.189804 0.515057 0.000000
vt 0.117364 0.527241 0.000000
vt 0.255409 0.428677 0.000000
vt 0.189052 0.428677 0.000000
vt 0.315077 0.528542 0.000000
vt 0.316026 0.428677 0.000000
vt 0.118153 0.428677 0.000000
vt 0.069016 0.530083 0.000000
vt 0.066782 0.428677 0.000000
vt 0.353487 0.486053 0.000000
vt 0.347606 0.475659 0.000000
vt 0.345642 0.491495 0.000000
vt 0.334698 0.474517 0.000000
vt 0.365861 0.488288 0.000000
vt 0.363354 0.498526 0.000000
vt 0.361890 0.469946 0.000000
vt 0.354713 0.458450 0.000000
vt 0.361890 0.469946 0.000000
vt 0.367829 0.479724 0.000000
vt 0.354713 0.458450 0.000000
vt 0.374213 0.459962 0.000000
vt 0.367829 0.479724 0.000000
vt 0.571892 0.632134 0.000000
vt 0.571911 0.694206 0.000000
vt 0.571869 0.795541 0.000000
vt 0.421774 0.981350 0.000000
vt 0.425427 0.918186 0.000000
vt 0.453892 0.932714 0.000000
vt 0.395933 0.963676 0.000000
vt 0.400219 0.879151 0.000000
vt 0.364783 0.940805 0.000000
vt 0.438143 0.810104 0.000000
vt 0.450011 0.870770 0.000000
vt 0.466022 0.808940 0.000000
vt 0.474584 0.896120 0.000000
vt 0.491051 0.819519 0.000000
vt 0.516993 0.877240 0.000000
vt 0.532011 0.898212 0.000000
vt 0.496966 0.884413 0.000000
vt 0.433908 0.893472 0.000000
vt 0.454191 0.907450 0.000000
vt 0.467960 0.922767 0.000000
vt 0.490515 0.915595 0.000000
vt 0.461765 0.952886 0.000000
vt 0.483506 0.935402 0.000000
vt 0.436388 0.995021 0.000000
vt 0.469129 0.970619 0.000000
vt 0.514005 0.826298 0.000000
usemtl Material_1
f 97/97 98/98 99/99
f 99/99 100/100 97/97
f 101/101 102/102 103/103
f 103/103 104/104 101/101
f 105/105 106/106 107/107
f 107/107 108/108 105/105
f 109/109 110/110 111/111
f 112/112 113/113 114/114
f 114/114 115/115 112/112
f 116/116 117/117 111/111
f 111/111 118/118 116/116
f 99/99 107/107 119/119
f 120/120 121/121 103/103
f 103/103 102/102 120/120
f 119/119 100/100 99/99
f 104/104 103/103 122/122
f 119/119 106/106 123/123
f 124/124 125/125 126/126
f 114/114 125/125 127/127
f 128/128 129/129 130/130
f 130/130 131/131 128/128
f 132/132 129/129 128/128
f 133/133 134/134 135/135
f 135/135 136/136 133/133
f 137/137 138/138 131/131
f 131/131 130/130 137/137
f 135/135 139/139 140/140
f 135/135 134/134 141/141
f 135/135 141/141 139/139
f 142/142 143/143 123/123
f 112/112 123/123 144/144
f 107/107 106/106 119/119
f 145/145 114/114 113/113
f 106/106 142/142 123/123
f 106/106 105/105 142/142
f 113/113 146/146 145/145
f 146/146 113/113 147/147
f 148/148 149/149 124/124
f 124/124 150/150 148/148
f 125/125 124/124 151/151
f 148/148 152/152 153/153
f 153/153 149/149 148/148
f 153/153 151/151 149/149
f 154/154 155/155 156/156
f 151/151 156/156 127/127
f 157/157 150/150 124/124
f 124/124 126/126 157/157
f 107/107 99/99 158/158
f 127/127 125/125 151/151
f 156/156 159/159 127/127
f 160/160 161/161 162/162
f 144/144 147/147 113/113
f 113/113 112/112 144/144
f 110/110 118/118 111/111
f 158/158 99/99 98/98
f 107/107 158/158 108/108
f 114/114 145/145 125/125
f 146/146 163/163 157/157
f 101/101 97/97 100/100
f 100/100 102/102 101/101
f 100/100 120/120 102/102
f 126/126 125/125 145/145
f 146/146 126/126 145/145
f 117/117 112/112 115/115
f 115/115 111/111 117/117
f 127/127 115/115 114/114
f 162/162 147/147 160/160
f 122/122 121/121 118/118
f 118/118 110/110 122/122
f 164/164 154/154 153/153
f 153/153 152/152 164/164
f 151/151 124/124 149/149
f 156/156 151/151 154/154
f 153/153 154/154 151/151
f 154/154 164/164 165/165
f 165/165 155/155 154/154
f 146/146 157/157 126/126
f 144/144 160/160 147/147
f 162/162 163/163 146/146
f 162/162 146/146 147/147
f 143/143 166/166 123/123
f 160/160 144/144 123/123
f 166/166 161/161 160/160
f 160/160 123/123 166/166
f 120/120 118/118 121/121
f 119/119 116/116 120/120
f 100/100 119/119 120/120
f 122/122 103/103 121/121
f 120/120 116/116 118/118
f 117/117 119/119 123/123
f 112/112 117/117 123/123
f 117/117 116/116 119/119
f 115/115 127/127 111/111
f 156/156 155/155 167/167
f 168/168 167/167 155/155
f 155/155 165/165 168/168
f 169/169 156/156 167/167
f 156/156 169/169 159/159
f 110/110 109/109 170/170
f 109/109 159/159 169/169
f 171/171 172/172 173/173
f 174/174 173/173 172/172
f 175/175 176/176 172/172
f 174/174 172/172 176/176
f 177/177 178/178 179/179
f 180/180 179/179 178/178
f 181/181 172/172 182/182
f 171/171 182/182 172/172
f 177/177 183/183 178/178
f 184/184 178/178 183/183
f 185/185 186/186 187/187
f 188/188 187/187 186/186
f 189/189 190/190 191/191
f 192/192 190/190 193/193
f 194/194 193/193 190/190
f 191/191 190/190 192/192
f 195/195 180/180 196/196
f 197/197 196/196 180/180
f 198/198 199/199 200/200
f 192/192 193/193 201/201
f 202/202 203/203 204/204
f 203/203 202/202 205/205
f 206/206 205/205 202/202
f 207/207 208/208 209/209
f 210/210 211/211 212/212
f 213/213 176/176 175/175
f 214/214 215/215 210/210
f 216/216 217/217 213/213
f 210/210 212/212 214/214
f 181/181 218/218 215/215
f 197/197 213/213 217/217
f 184/184 176/176 213/213
f 213/213 178/178 184/184
f 203/203 205/205 219/219
f 219/219 220/220 203/203
f 210/210 207/207 209/209
f 209/209 211/211 210/210
f 210/210 215/215 207/207
f 175/175 216/216 213/213
f 216/216 175/175 181/181
f 221/221 215/215 214/214
f 196/196 221/221 220/220
f 220/220 195/195 196/196
f 219/219 195/195 220/220
f 172/172 181/181 175/175
f 221/221 222/222 215/215
f 180/180 178/178 197/197
f 223/223 179/179 195/195
f 216/216 181/181 222/222
f 213/213 197/197 178/178
f 180/180 195/195 179/179
f 182/182 218/218 181/181
f 207/207 215/215 224/224
f 215/215 222/222 181/181
f 191/191 225/225 189/189
f 185/185 226/226 186/186
f 187/187 188/188 227/227
f 228/228 201/201 229/229
f 230/230 231/231 232/232
f 230/230 226/226 231/231
f 233/233 232/232 234/234
f 234/234 232/232 231/231
f 193/193 229/229 201/201
f 173/173 174/174 235/235
f 236/236 235/235 174/174
f 237/237 238/238 239/239
f 240/240 241/241 239/239
f 241/241 242/242 239/239
f 243/243 237/237 244/244
f 245/245 246/246 247/247
f 238/238 247/247 246/246
f 246/246 248/248 236/236
f 235/235 236/236 248/248
f 240/240 236/236 176/176
f 174/174 176/176 236/236
f 236/236 240/240 246/246
f 238/238 246/246 240/240
f 237/237 249/249 238/238
f 247/247 238/238 249/249
f 243/243 250/250 237/237
f 249/249 237/237 250/250
f 246/246 245/245 251/251
f 252/252 248/248 251/251
f 241/241 184/184 242/242
f 183/183 242/242 184/184
f 240/240 176/176 241/241
f 184/184 241/241 176/176
f 253/253 254/254 255/255
f 256/256 255/255 254/254
f 257/257 258/258 253/253
f 254/254 253/253 258/258
f 259/259 260/260 261/261
f 262/262 261/261 260/260
f 263/263 264/264 261/261
f 259/259 261/261 264/264
f 265/265 266/266 267/267
f 268/268 267/267 266/266
f 269/269 270/270 271/271
f 272/272 271/271 270/270
f 273/273 274/274 275/275
f 276/276 277/277 278/278
f 279/279 274/274 280/280
f 273/273 280/280 274/274
f 281/281 282/282 280/280
f 283/283 280/280 282/282
f 284/284 285/285 282/282
f 283/283 282/282 285/285
f 280/280 283/283 279/279
f 286/286 279/279 283/283
f 285/285 287/287 283/283
f 286/286 287/287 288/288
f 281/281 280/280 289/289
f 273/273 289/289 280/280
f 273/273 275/275 289/289
f 290/290 289/289 275/275
f 257/257 291/291 258/258
f 255/255 270/270 253/253
f 258/258 291/291 292/292
f 292/292 293/293 258/258
f 268/268 266/266 256/256
f 256/256 254/254 268/268
f 254/254 258/258 293/293
f 293/293 268/268 254/254
f 268/268 293/293 292/292
f 292/292 267/267 268/268
f 272/272 270/270 255/255
f 266/266 265/265 294/294
f 295/295 264/264 263/263
f 285/285 296/296 297/297
f 296/296 285/285 284/284
f 297/297 298/298 285/285
f 299/299 298/298 297/297
f 300/300 301/301 302/302
f 303/303 304/304 305/305
f 306/306 307/307 308/308
f 309/309 310/310 311/311
f 312/312 193/193 313/313
f 194/194 313/313 193/193
f 314/314 228/228 315/315
f 229/229 315/315 228/228
f 316/316 233/233 317/317
f 234/234 317/317 233/233
f 317/317 234/234 314/314
f 228/228 314/314 234/234
f 315/315 229/229 312/312
f 193/193 312/312 229/229
f 318/318 312/312 319/319
f 313/313 319/319 312/312
f 320/320 314/314 321/321
f 315/315 321/321 314/314
f 322/322 316/316 323/323
f 317/317 323/323 316/316
f 323/323 317/317 320/320
f 314/314 320/320 317/317
f 321/321 315/315 318/318
f 312/312 318/318 315/315
f 219/219 223/223 195/195
f 224/224 215/215 218/218
f 240/240 239/239 238/238
f 239/239 242/242 244/244
f 239/239 244/244 237/237
f 246/246 251/251 248/248
f 324/324 325/325 326/326
f 327/327 199/199 328/328
f 329/329 199/199 327/327
f 330/330 200/200 199/199
f 331/331 332/332 333/333
f 334/334 333/333 332/332
f 335/335 336/336 333/333
f 337/337 336/336 335/335
f 336/336 337/337 328/328
f 338/338 328/328 337/337
f 339/339 340/340 341/341
f 342/342 341/341 340/340
f 343/343 344/344 345/345
f 346/346 345/345 344/344
f 346/346 344/344 347/347
f 348/348 347/347 344/344
f 349/349 350/350 351/351
f 352/352 351/351 350/350
f 353/353 354/354 355/355
f 356/356 355/355 354/354
f 357/357 358/358 355/355
f 353/353 355/355 358/358
f 343/343 345/345 354/354
f 356/356 354/354 345/345
f 358/358 343/343 353/353
f 354/354 353/353 343/343
f 347/347 348/348 340/340
f 342/342 340/340 348/348
f 348/348 359/359 342/342
f 341/341 342/342 359/359
f 348/348 360/360 359/359
f 361/361 359/359 360/360
f 362/362 363/363 364/364
f 365/365 366/366 363/363
f 367/367 368/368 369/369
f 370/370 371/371 372/372
f 373/373 372/372 371/371
f 374/374 360/360 344/344
f 365/365 358/358 357/357
f 357/357 367/367 365/365
f 350/350 349/349 375/375
f 376/376 361/361 373/373
f 361/361 363/363 373/373
f 376/376 377/377 359/359
f 359/359 361/361 376/376
f 348/348 344/344 360/360
f 365/365 363/363 360/360
f 374/374 358/358 365/365
f 344/344 343/343 374/374
f 343/343 358/358 374/374
f 378/378 379/379 380/380
f 380/380 381/381 378/378
f 382/382 383/383 384/384
f 384/384 351/351 382/382
f 377/377 339/339 341/341
f 341/341 359/359 377/377
f 361/361 360/360 363/363
f 385/385 378/378 375/375
f 386/386 375/375 349/349
f 381/381 375/375 378/378
f 360/360 374/374 365/365
f 350/350 375/375 381/381
f 367/367 387/387 365/365
f 373/373 363/363 372/372
f 365/365 387/387 366/366
f 363/363 362/362 388/388
f 369/369 368/368 389/389
f 390/390 391/391 187/187
f 185/185 187/187 391/391
f 185/185 186/186 187/187
f 188/188 187/187 186/186
f 392/392 390/390 227/227
f 187/187 227/227 390/390
f 391/391 390/390 393/393
f 394/394 393/393 390/390
f 395/395 396/396 393/393
f 391/391 393/393 396/396
f 397/397 394/394 392/392
f 390/390 392/392 394/394
f 397/397 392/392 398/398
f 398/398 399/399 397/397
f 185/185 226/226 186/186
f 187/187 188/188 227/227
f 396/396 226/226 391/391
f 185/185 391/391 226/226
f 225/225 398/398 392/392
f 392/392 227/227 225/225
f 400/400 401/401 402/402
f 402/402 403/403 400/400
f 401/401 404/404 405/405
f 405/405 402/402 401/401
f 406/406 400/400 403/403
f 403/403 407/407 406/406
f 408/408 406/406 407/407
f 407/407 409/409 408/408
f 410/410 411/411 286/286
f 410/410 286/286 288/288
f 279/279 286/286 411/411
f 411/411 278/278 279/279
f 274/274 277/277 275/275
f 412/412 288/288 299/299
f 299/299 288/288 298/298
f 287/287 286/286 283/283
f 98/98 97/97 413/413
f 414/414 413/413 97/97
f 415/415 101/101 416/416
f 104/104 416/416 101/101
f 417/417 105/105 418/418
f 108/108 418/418 105/105
f 419/419 420/420 421/421
f 422/422 423/423 424/424
f 425/425 424/424 423/423
f 426/426 427/427 421/421
f 428/428 421/421 427/427
f 418/418 413/413 429/429
f 430/430 431/431 416/416
f 415/415 416/416 431/431
f 414/414 429/429 413/413
f 416/416 104/104 122/122
f 417/417 429/429 432/432
f 433/433 434/434 435/435
f 433/433 424/424 436/436
f 437/437 438/438 439/439
f 440/440 439/439 438/438
f 437/437 441/441 438/438
f 442/442 443/443 444/444
f 445/445 444/444 443/443
f 446/446 447/447 440/440
f 439/439 440/440 447/447
f 448/448 444/444 449/449
f 442/442 444/444 450/450
f 450/450 444/444 448/448
f 143/143 142/142 432/432
f 432/432 423/423 451/451
f 417/417 418/418 429/429
f 424/424 452/452 422/422
f 142/142 417/417 432/432
f 105/105 417/417 142/142
f 453/453 422/422 452/452
f 422/422 453/453 454/454
f 455/455 148/148 434/434
f 150/150 434/434 148/148
f 434/434 433/433 456/456
f 152/152 148/148 457/457
f 455/455 457/457 148/148
f 456/456 457/457 455/455
f 458/458 459/459 460/460
f 460/460 456/456 436/436
f 150/150 157/157 434/434
f 435/435 434/434 157/157
f 413/413 418/418 158/158
f 433/433 436/436 456/456
f 461/461 460/460 436/436
f 161/161 462/462 162/162
f 454/454 451/451 422/422
f 423/423 422/422 451/451
f 428/428 419/419 421/421
f 413/413 158/158 98/98
f 158/158 418/418 108/108
f 452/452 424/424 433/433
f 163/163 453/453 157/157
f 97/97 101/101 414/414
f 415/415 414/414 101/101
f 431/431 414/414 415/415
f 433/433 435/435 452/452
f 435/435 453/453 452/452
f 423/423 426/426 425/425
f 421/421 425/425 426/426
f 425/425 436/436 424/424
f 454/454 162/162 462/462
f 430/430 122/122 428/428
f 419/419 428/428 122/122
f 459/459 164/164 457/457
f 152/152 457/457 164/164
f 434/434 456/456 455/455
f 456/456 460/460 459/459
f 459/459 457/457 456/456
f 164/164 459/459 165/165
f 458/458 165/165 459/459
f 157/157 453/453 435/435
f 462/462 451/451 454/454
f 163/163 162/162 453/453
f 453/453 162/162 454/454
f 166/166 143/143 432/432
f 451/451 462/462 432/432
f 161/161 166/166 462/462
f 432/432 462/462 166/166
f 428/428 431/431 430/430
f 427/427 429/429 431/431
f 429/429 414/414 431/431
f 416/416 122/122 430/430
f 427/427 431/431 428/428
f 429/429 426/426 432/432
f 426/426 423/423 432/432
f 427/427 426/426 429/429
f 436/436 425/425 421/421
f 458/458 460/460 463/463
f 463/463 168/168 458/458
f 165/165 458/458 168/168
f 460/460 464/464 463/463
f 464/464 460/460 461/461
f 420/420 419/419 465/465
f 461/461 420/420 464/464
f 466/466 171/171 173/173
f 173/173 467/467 466/466
f 468/468 469/469 466/466
f 466/466 467/467 468/468
f 470/470 177/177 179/179
f 179/179 471/471 470/470
f 466/466 472/472 182/182
f 182/182 171/171 466/466
f 183/183 177/177 470/470
f 470/470 473/473 183/183
f 474/474 475/475 476/476
f 476/476 477/477 474/474
f 478/478 479/479 480/480
f 478/478 481/481 482/482
f 482/482 483/483 478/478
f 478/478 480/480 481/481
f 471/471 484/484 485/485
f 485/485 486/486 471/471
f 487/487 488/488 489/489
f 482/482 481/481 490/490
f 491/491 492/492 493/493
f 492/492 491/491 205/205
f 205/205 206/206 492/492
f 208/208 207/207 494/494
f 495/495 496/496 497/497
f 468/468 498/498 469/469
f 499/499 500/500 496/496
f 501/501 502/502 498/498
f 497/497 496/496 500/500
f 218/218 472/472 499/499
f 498/498 486/486 501/501
f 468/468 473/473 498/498
f 470/470 498/498 473/473
f 205/205 491/491 219/219
f 503/503 219/219 491/491
f 207/207 496/496 494/494
f 495/495 494/494 496/496
f 499/499 496/496 207/207
f 502/502 469/469 498/498
f 469/469 502/502 472/472
f 499/499 504/504 500/500
f 504/504 485/485 503/503
f 484/484 503/503 485/485
f 484/484 219/219 503/503
f 472/472 466/466 469/469
f 505/505 504/504 499/499
f 470/470 471/471 486/486
f 179/179 223/223 484/484
f 472/472 502/502 505/505
f 486/486 498/498 470/470
f 484/484 471/471 179/179
f 218/218 182/182 472/472
f 499/499 207/207 224/224
f 505/505 499/499 472/472
f 506/506 480/480 479/479
f 507/507 475/475 474/474
f 477/477 476/476 508/508
f 490/490 509/509 510/510
f 511/511 512/512 513/513
f 507/507 512/512 511/511
f 513/513 514/514 515/515
f 513/513 515/515 511/511
f 510/510 482/482 490/490
f 467/467 173/173 235/235
f 235/235 516/516 467/467
f 517/517 518/518 519/519
f 520/520 521/521 519/519
f 242/242 520/520 519/519
f 518/518 243/243 244/244
f 522/522 523/523 524/524
f 524/524 517/517 522/522
f 248/248 522/522 516/516
f 516/516 235/235 248/248
f 516/516 521/521 468/468
f 468/468 467/467 516/516
f 521/521 516/516 522/522
f 522/522 517/517 521/521
f 525/525 518/518 517/517
f 517/517 524/524 525/525
f 250/250 243/243 518/518
f 518/518 525/525 250/250
f 523/523 522/522 526/526
f 248/248 252/252 526/526
f 473/473 520/520 242/242
f 242/242 183/183 473/473
f 468/468 521/521 520/520
f 520/520 473/473 468/468
f 527/527 528/528 529/529
f 529/529 530/530 527/527
f 531/531 532/532 528/528
f 528/528 527/527 531/531
f 533/533 534/534 535/535
f 535/535 536/536 533/533
f 537/537 538/538 535/535
f 535/535 534/534 537/537
f 539/539 540/540 541/541
f 541/541 542/542 539/539
f 543/543 544/544 545/545
f 545/545 546/546 543/543
f 547/547 548/548 549/549
f 550/550 551/551 552/552
f 547/547 553/553 554/554
f 554/554 548/548 547/547
f 555/555 556/556 554/554
f 554/554 557/557 555/555
f 558/558 559/559 555/555
f 555/555 557/557 558/558
f 557/557 554/554 553/553
f 553/553 560/560 557/557
f 561/561 558/558 557/557
f 561/561 560/560 562/562
f 554/554 556/556 563/563
f 563/563 548/548 554/554
f 549/549 548/548 563/563
f 563/563 564/564 549/549
f 565/565 532/532 531/531
f 543/543 529/529 528/528
f 565/565 531/531 566/566
f 567/567 566/566 531/531
f 539/539 542/542 530/530
f 527/527 530/530 542/542
f 531/531 527/527 567/567
f 542/542 567/567 527/527
f 567/567 542/542 566/566
f 541/541 566/566 542/542
f 543/543 546/546 529/529
f 540/540 539/539 568/568
f 537/537 569/569 538/538
f 570/570 558/558 571/571
f 558/558 570/570 559/559
f 572/572 571/571 558/558
f 572/572 573/573 571/571
f 301/301 574/574 575/575
f 304/304 576/576 577/577
f 307/307 306/306 578/578
f 310/310 579/579 580/580
f 482/482 581/581 582/582
f 582/582 483/483 482/482
f 509/509 583/583 584/584
f 584/584 510/510 509/509
f 514/514 585/585 586/586
f 586/586 515/515 514/514
f 515/515 586/586 583/583
f 583/583 509/509 515/515
f 510/510 584/584 581/581
f 581/581 482/482 510/510
f 581/581 587/587 588/588
f 588/588 582/582 581/581
f 583/583 589/589 590/590
f 590/590 584/584 583/583
f 585/585 591/591 592/592
f 592/592 586/586 585/585
f 586/586 592/592 589/589
f 589/589 583/583 586/586
f 584/584 590/590 587/587
f 587/587 581/581 584/584
f 223/223 219/219 484/484
f 499/499 224/224 218/218
f 519/519 521/521 517/517
f 242/242 519/519 244/244
f 244/244 519/519 518/518
f 526/526 522/522 248/248
f 325/325 593/593 326/326
f 487/487 594/594 595/595
f 487/487 596/596 594/594
f 489/489 597/597 487/487
f 598/598 599/599 600/600
f 600/600 601/601 598/598
f 602/602 603/603 600/600
f 602/602 604/604 603/603
f 604/604 602/602 595/595
f 595/595 605/605 604/604
f 606/606 607/607 608/608
f 608/608 609/609 606/606
f 610/610 611/611 612/612
f 612/612 613/613 610/610
f 610/610 613/613 614/614
f 614/614 615/615 610/610
f 616/616 617/617 618/618
f 618/618 619/619 616/616
f 620/620 621/621 622/622
f 622/622 623/623 620/620
f 624/624 625/625 622/622
f 622/622 621/621 624/624
f 612/612 611/611 620/620
f 620/620 623/623 612/612
f 611/611 624/624 621/621
f 621/621 620/620 611/611
f 615/615 614/614 606/606
f 606/606 609/609 615/615
f 626/626 615/615 609/609
f 609/609 608/608 626/626
f 627/627 615/615 626/626
f 626/626 628/628 627/627
f 629/629 630/630 631/631
f 632/632 633/633 629/629
f 634/634 635/635 636/636
f 637/637 638/638 639/639
f 639/639 640/640 637/637
f 627/627 641/641 610/610
f 624/624 633/633 625/625
f 635/635 625/625 633/633
f 617/617 616/616 642/642
f 628/628 643/643 640/640
f 629/629 628/628 640/640
f 644/644 643/643 626/626
f 628/628 626/626 643/643
f 610/610 615/615 627/627
f 629/629 633/633 627/627
f 624/624 641/641 633/633
f 611/611 610/610 641/641
f 624/624 611/611 641/641
f 645/645 646/646 647/647
f 648/648 647/647 646/646
f 649/649 650/650 651/651
f 618/618 651/651 650/650
f 607/607 644/644 608/608
f 626/626 608/608 644/644
f 627/627 628/628 629/629
f 646/646 652/652 642/642
f 642/642 653/653 617/617
f 642/642 648/648 646/646
f 641/641 627/627 633/633
f 642/642 616/616 648/648
f 654/654 635/635 633/633
f 629/629 640/640 639/639
f 654/654 633/633 632/632
f 630/630 629/629 655/655
f 634/634 636/636 656/656
f 657/657 658/658 476/476
f 476/476 475/475 657/657
f 474/474 475/475 476/476
f 476/476 477/477 474/474
f 658/658 659/659 508/508
f 508/508 476/476 658/658
f 658/658 657/657 660/660
f 660/660 661/661 658/658
f 662/662 663/663 660/660
f 660/660 657/657 662/662
f 661/661 664/664 659/659
f 659/659 658/658 661/661
f 659/659 664/664 665/665
f 666/666 665/665 664/664
f 507/507 475/475 474/474
f 477/477 476/476 508/508
f 507/507 662/662 657/657
f 657/657 475/475 507/507
f 665/665 506/506 659/659
f 508/508 659/659 506/506
f 667/667 668/668 669/669
f 670/670 669/669 668/668
f 671/671 667/667 672/672
f 669/669 672/672 667/667
f 668/668 673/673 670/670
f 674/674 670/670 673/673
f 675/675 676/676 677/677
f 678/678 674/674 679/679
f 680/680 681/681 560/560
f 560/560 681/681 562/562
f 560/560 553/553 680/680
f 552/552 680/680 553/553
f 550/550 547/547 549/549
f 562/562 682/682 573/573
f 562/562 573/573 572/572
f 560/560 561/561 557/557
f 683/683 684/684 685/685
f 683/683 686/686 684/684
f 686/686 687/687 684/684
f 686/686 688/688 687/687
f 689/689 690/690 687/687
f 689/689 691/691 690/690
f 691/691 692/692 690/690
f 691/691 693/693 692/692
f 694/694 695/695 696/696
f 685/685 697/697 698/698
f 685/685 684/684 697/697
f 684/684 687/687 697/697
f 687/687 690/690 697/697
f 690/690 698/698 697/697
f 690/690 692/692 698/698
f 692/692 699/699 698/698
f 699/699 685/685 698/698
f 692/692 695/695 700/700
f 695/695 692/692 696/696
f 699/699 701/701 685/685
f 701/701 699/699 702/702
f 683/683 685/685 701/701
f 703/703 683/683 701/701
f 704/704 701/701 702/702
f 703/703 701/701 704/704
f 693/693 705/705 694/694
f 693/693 694/694 696/696
f 693/693 696/696 692/692

