mtllib common_rightHandItem_12520.mtl

g common_RightHandItem_12520
v -7.641305 -6.984765 11.857800
v -3.583252 -4.808410 10.411950
v -5.112682 -5.113099 12.854530
v -6.855888 -4.295097 1.896800
v -4.656932 -4.753779 9.536292
v -7.427070 -6.551084 9.078186
v -7.766140 -7.225627 13.479950
v -6.834772 -6.089748 17.877120
v -5.726711 -6.284287 18.864660
v -7.998445 -7.441715 16.547040
v -8.343567 -6.782617 21.308150
v -8.179795 -7.565223 18.950820
v -6.314167 -5.612667 15.535460
v -5.166140 -5.744289 16.193880
v -4.532062 -5.207017 13.536150
v -2.480208 -3.596962 2.969804
v -3.583252 -3.720759 10.638880
v -5.112683 -4.025448 13.081470
v -4.656932 -3.666130 9.763231
v -5.726712 -5.196639 19.091610
v -8.343566 -5.694965 21.535090
v -4.532062 -4.119367 13.763100
v -5.166142 -4.656639 16.420820
v -6.834773 -5.002097 18.104060
v -6.314168 -4.525015 15.762400
v -4.862784 -4.697698 6.197954
v 1.038818 -4.817529 11.628310
v -3.802974 -4.990728 9.440688
v -4.816346 -4.697119 7.596138
v -6.538726 -4.933187 -2.768281
v -4.026586 -4.496314 -2.339102
v -7.053483 -5.431653 4.023906
v -1.915194 -1.220355 -5.611673
v -1.546007 -2.226499 -0.789325
v -3.909910 -3.122781 -6.719941
v -6.184148 -3.380325 -7.194545
v -5.787353 -0.268375 -11.861090
v -7.082233 -4.357814 4.633111
v -0.256553 -3.116385 3.475523
v 1.811114 -3.794585 6.725789
v -9.518810 -4.625182 5.850410
v -9.772219 -4.619920 7.226215
v -11.056740 -4.877769 8.899236
v -16.161890 -4.549636 10.344380
v -9.071997 -4.417734 -2.715708
v -10.571790 -1.085531 -6.257835
v -8.494561 -3.051377 -7.062157
v -11.683630 -2.068609 -1.546035
v -13.618740 -2.908278 2.478118
v -16.165920 -3.514598 5.383915
v -10.230670 -5.033389 12.472500
v -11.370440 -4.687129 9.830684
v -10.177510 -4.667799 9.124214
v -9.304213 -6.051288 17.692790
v -10.552060 -6.209136 18.504480
v -9.456463 -5.563727 15.300910
v -10.693020 -5.658212 15.781330
v -10.908660 -5.107705 13.060180
v -11.318620 -3.459323 2.310070
v -10.230670 -3.945737 12.699440
v -11.370440 -3.599479 10.057620
v -10.177520 -3.580148 9.351155
v -10.552060 -5.121486 18.731420
v -10.908660 -4.020054 13.287120
v -9.304213 -4.963636 17.919740
v -10.693020 -4.570561 16.008270
v -9.456462 -4.476076 15.527850
vt 0.528336 0.993645 0.000000
vt 0.636446 0.862717 0.000000
vt 0.552433 0.906370 0.000000
vt 0.963222 0.993645 0.000000
vt 0.672556 0.908231 0.000000
vt 0.651646 0.993645 0.000000
vt 0.434973 0.993645 0.000000
vt 0.245554 0.949344 0.000000
vt 0.168353 0.923048 0.000000
vt 0.281228 0.993645 0.000000
vt 0.011339 0.988591 0.000000
vt 0.147345 0.993645 0.000000
vt 0.376555 0.946768 0.000000
vt 0.321361 0.912194 0.000000
vt 0.496281 0.896649 0.000000
vt 0.911785 0.896845 0.000000
vt 0.643616 0.841874 0.000000
vt 0.548899 0.892099 0.000000
vt 0.685876 0.897085 0.000000
vt 0.170372 0.905386 0.000000
vt 0.006286 0.974350 0.000000
vt 0.485326 0.884457 0.000000
vt 0.323835 0.891344 0.000000
vt 0.240253 0.932736 0.000000
vt 0.377615 0.926978 0.000000
vt 0.238794 0.671035 0.000000
vt 0.461752 0.844331 0.000000
vt 0.294856 0.776090 0.000000
vt 0.232886 0.729022 0.000000
vt 0.039909 0.391528 0.000000
vt 0.185803 0.395648 0.000000
vt 0.036803 0.608649 0.000000
vt 0.274701 0.229980 0.000000
vt 0.351729 0.403843 0.000000
vt 0.157651 0.227500 0.000000
vt 0.042418 0.219051 0.000000
vt 0.028689 0.001087 0.000000
vt 0.044516 0.625590 0.000000
vt 0.521361 0.585441 0.000000
vt 0.550768 0.726437 0.000000
vt 0.238794 0.671035 0.000000
vt 0.232886 0.729022 0.000000
vt 0.294856 0.776090 0.000000
vt 0.461752 0.844331 0.000000
vt 0.185803 0.395648 0.000000
vt 0.274701 0.229980 0.000000
vt 0.157651 0.227500 0.000000
vt 0.351729 0.403843 0.000000
vt 0.521361 0.585441 0.000000
vt 0.550768 0.726437 0.000000
vt 0.552433 0.906370 0.000000
vt 0.636446 0.862717 0.000000
vt 0.672556 0.908231 0.000000
vt 0.245554 0.949344 0.000000
vt 0.168353 0.923048 0.000000
vt 0.376555 0.946768 0.000000
vt 0.321361 0.912194 0.000000
vt 0.496281 0.896649 0.000000
vt 0.911785 0.896845 0.000000
vt 0.548899 0.892099 0.000000
vt 0.643616 0.841874 0.000000
vt 0.685876 0.897085 0.000000
vt 0.170372 0.905386 0.000000
vt 0.485326 0.884457 0.000000
vt 0.240253 0.932736 0.000000
vt 0.323835 0.891344 0.000000
vt 0.377615 0.926978 0.000000
usemtl Material_2
f 1/1 2/2 3/3
f 4/4 5/5 6/6
f 3/3 7/7 1/1
f 8/8 9/9 10/10
f 9/9 11/11 12/12
f 13/13 10/10 7/7
f 14/14 8/8 10/10
f 13/13 14/14 10/10
f 15/15 13/13 7/7
f 9/9 12/12 10/10
f 3/3 15/15 7/7
f 1/1 5/5 2/2
f 1/1 6/6 5/5
f 4/4 16/16 5/5
f 3/3 2/2 17/17
f 17/17 18/18 3/3
f 2/2 5/5 19/19
f 19/19 17/17 2/2
f 11/11 9/9 20/20
f 20/20 21/21 11/11
f 5/5 16/16 19/19
f 15/15 3/3 18/18
f 18/18 22/22 15/15
f 8/8 14/14 23/23
f 23/23 24/24 8/8
f 9/9 8/8 24/24
f 24/24 20/20 9/9
f 13/13 15/15 22/22
f 22/22 25/25 13/13
f 14/14 13/13 25/25
f 25/25 23/23 14/14
f 26/26 27/27 28/28
f 28/28 29/29 26/26
f 30/30 31/31 32/32
f 33/33 34/34 31/31
f 31/31 35/35 33/33
f 35/35 36/36 37/37
f 30/30 36/36 35/35
f 35/35 31/31 30/30
f 38/38 32/32 26/26
f 33/33 35/35 37/37
f 26/26 32/32 39/39
f 26/26 40/40 27/27
f 31/31 39/39 32/32
f 31/31 34/34 39/39
f 26/26 39/39 40/40
f 41/41 42/42 43/43
f 43/43 44/44 41/41
f 30/30 32/32 45/45
f 46/46 47/47 45/45
f 45/45 48/48 46/46
f 47/47 37/37 36/36
f 30/30 45/45 47/47
f 47/47 36/36 30/30
f 38/38 41/41 32/32
f 46/46 37/37 47/47
f 41/41 49/49 32/32
f 41/41 44/44 50/50
f 45/45 32/32 49/49
f 45/45 49/49 48/48
f 41/41 50/50 49/49
f 1/1 51/51 52/52
f 4/4 6/6 53/53
f 51/51 1/1 7/7
f 54/54 10/10 55/55
f 55/55 12/12 11/11
f 56/56 7/7 10/10
f 57/57 10/10 54/54
f 56/56 10/10 57/57
f 58/58 7/7 56/56
f 55/55 10/10 12/12
f 51/51 7/7 58/58
f 1/1 52/52 53/53
f 1/1 53/53 6/6
f 4/4 53/53 59/59
f 51/51 60/60 61/61
f 61/61 52/52 51/51
f 52/52 61/61 62/62
f 62/62 53/53 52/52
f 11/11 21/21 63/63
f 63/63 55/55 11/11
f 53/53 62/62 59/59
f 58/58 64/64 60/60
f 60/60 51/51 58/58
f 54/54 65/65 66/66
f 66/66 57/57 54/54
f 55/55 63/63 65/65
f 65/65 54/54 55/55
f 56/56 67/67 64/64
f 64/64 58/58 56/56
f 57/57 66/66 67/67
f 67/67 56/56 57/57

g tx_1
v -8.506775 -0.887858 -7.526165
v -6.242451 -1.216666 -5.606343
v -6.051052 -0.692537 -8.060902
v -7.560493 -0.519804 -9.193788
v -7.637237 -1.280344 -5.623950
v -6.151746 -1.638120 -6.907190
v -6.440175 -2.538893 -3.231024
v -8.144217 -1.852958 -2.903328
v -8.506775 -0.887858 -7.526165
v -7.560493 -0.519804 -9.193788
v -5.807229 -0.065828 -11.195630
v -6.443822 -1.759790 -3.021921
v -7.637237 -1.280344 -5.623950
v -5.807229 -0.065828 -11.195630
v -8.144217 -1.852958 -2.903328
v -3.708997 -0.956792 -7.166833
v -4.385413 -0.563408 -8.955526
v -4.862999 -1.317630 -5.415718
v -4.783412 -1.899485 -2.651248
v -4.385413 -0.563408 -8.955526
v -3.708997 -0.956792 -7.166833
v -4.862999 -1.317630 -5.415718
v -4.783412 -1.899485 -2.651248
vt 0.289027 0.646504 0.000000
vt 1.003444 0.864500 0.000000
vt 0.997913 0.711201 0.000000
vt 0.536619 0.335484 0.000000
vt 0.528772 0.924251 0.000000
vt 0.997913 0.711201 0.000000
vt 1.005434 0.970015 0.000000
vt 0.522856 0.980672 0.000000
vt 0.289027 0.646504 0.000000
vt 0.536619 0.335484 0.000000
vt 0.990599 0.029066 0.000000
vt 1.005434 0.970015 0.000000
vt 0.528772 0.924251 0.000000
vt 0.990599 0.029066 0.000000
vt 0.522856 0.980672 0.000000
vt 0.289027 0.646504 0.000000
vt 0.536619 0.335484 0.000000
vt 0.528772 0.924251 0.000000
vt 0.522856 0.980672 0.000000
vt 0.536619 0.335484 0.000000
vt 0.289027 0.646504 0.000000
vt 0.528772 0.924251 0.000000
vt 0.522856 0.980672 0.000000
usemtl Material_3
f 68/68 69/69 70/70
f 70/70 71/71 68/68
f 72/72 73/73 74/74
f 74/74 75/75 72/72
f 73/73 76/76 77/77
f 77/77 78/78 73/73
f 79/79 69/69 80/80
f 70/70 81/81 71/71
f 73/73 72/72 76/76
f 82/82 79/79 80/80
f 80/80 69/69 68/68
f 83/83 84/84 70/70
f 70/70 69/69 83/83
f 85/85 86/86 74/74
f 74/74 73/73 85/85
f 73/73 87/87 88/88
f 87/87 73/73 78/78
f 79/79 89/89 69/69
f 70/70 84/84 81/81
f 73/73 88/88 85/85
f 90/90 89/89 79/79
f 89/89 83/83 69/69

g 20
v -11.040640 -4.125248 4.832152
v -12.047450 -4.570760 6.115818
v -12.404590 -4.347106 6.063761
v -11.934650 -3.992939 4.673737
v -10.753220 -4.341886 5.193589
v -10.747650 -4.453061 6.738930
v -12.750620 -4.066696 6.204216
v -12.660100 -4.072327 6.356930
v -14.017210 -4.069938 5.611834
v -13.550230 -3.754927 4.961068
v -12.897380 -4.096456 6.176697
v -12.676340 -3.872955 4.704686
v -12.493640 -4.558249 7.897140
v -14.902260 -4.776192 11.270460
v -16.057650 -4.596825 10.461720
v -13.678210 -4.298249 7.283852
v -13.885690 -4.256467 6.868683
v -12.592020 -4.436018 6.619740
v -14.761550 -4.900852 11.921470
v -16.189960 -4.817920 11.758300
v -14.106300 -5.116062 13.766780
v -15.537630 -5.102028 13.961080
v -12.020220 -5.368796 17.394490
v -13.426120 -5.382059 17.573590
v -12.108730 -5.718054 20.965460
v -13.336510 -5.834701 20.577180
v -13.190450 -5.989061 24.020900
v -14.282320 -6.230353 23.260610
v -14.139310 -6.120836 25.824340
v -15.240370 -6.369462 25.014090
v -15.209850 -6.280109 27.718830
v -16.198430 -6.508571 26.767560
v -2.170425 -4.180773 6.513233
v -2.125951 -4.110336 5.425936
v -1.373934 -3.996317 5.629604
v -1.886552 -4.296977 6.622970
v -2.629032 -4.387852 6.576459
v -3.875578 -4.377974 6.544460
v -3.117678 -4.223867 5.478531
v -2.614274 -4.166262 5.428057
v -0.562654 -4.453115 7.511767
v -1.627889 -4.577129 7.457862
v -1.591486 -4.407063 6.873415
v -0.499670 -4.270086 6.456861
v -0.997577 -4.487835 8.196195
v -2.013849 -4.631738 8.439223
v 0.935332 -4.815424 11.533070
v -0.267737 -4.891439 11.717080
v -2.310193 -5.629716 19.055580
v -3.435307 -5.569458 18.620880
v -2.166372 -5.299088 16.145240
v -1.002592 -5.319580 16.755250
v 0.744174 -4.919263 14.066920
v -0.411454 -4.967277 13.607850
v -2.703794 -6.353106 24.234950
v -3.904487 -6.174811 24.414510
v -4.013196 -5.839697 21.309390
v -2.830150 -5.952582 21.427150
v -2.213210 -6.533269 25.996600
v -3.396418 -6.335515 26.240300
v -1.655346 -6.713432 27.609320
v -2.806615 -6.522058 28.181960
vt 0.792007 0.073506 0.000000
vt 0.262409 0.073506 0.000000
vt 0.262409 0.139607 0.000000
vt 0.792007 0.139607 0.000000
vt 0.792007 0.007406 0.000000
vt 0.262409 0.007406 0.000000
vt 0.262409 0.271808 0.000000
vt 0.262409 0.337909 0.000000
vt 0.792007 0.337909 0.000000
vt 0.792007 0.271808 0.000000
vt 0.262409 0.205708 0.000000
vt 0.792007 0.205708 0.000000
vt 0.262409 0.470110 0.000000
vt 0.262409 0.536211 0.000000
vt 0.792007 0.536211 0.000000
vt 0.792007 0.470110 0.000000
vt 0.792007 0.404010 0.000000
vt 0.262409 0.404010 0.000000
vt 0.262409 0.602311 0.000000
vt 0.792007 0.602311 0.000000
vt 0.262409 0.668412 0.000000
vt 0.792007 0.668412 0.000000
vt 0.262409 0.734513 0.000000
vt 0.792007 0.734513 0.000000
vt 0.262409 0.800613 0.000000
vt 0.792007 0.800613 0.000000
vt 0.262409 0.866714 0.000000
vt 0.792007 0.866714 0.000000
vt 0.262409 0.932815 0.000000
vt 0.792007 0.932815 0.000000
vt 0.262409 0.998915 0.000000
vt 0.792007 0.998915 0.000000
vt 0.790015 0.142140 0.000000
vt 0.258411 0.144186 0.000000
vt 0.258411 0.215382 0.000000
vt 0.790015 0.213690 0.000000
vt 0.790015 0.070590 0.000000
vt 0.790015 0.000417 0.000000
vt 0.258411 0.000417 0.000000
vt 0.258411 0.072990 0.000000
vt 0.258411 0.357774 0.000000
vt 0.790015 0.356790 0.000000
vt 0.790015 0.285240 0.000000
vt 0.258411 0.286578 0.000000
vt 0.258411 0.428970 0.000000
vt 0.790015 0.428340 0.000000
vt 0.258411 0.500166 0.000000
vt 0.790015 0.499891 0.000000
vt 0.258411 0.713753 0.000000
vt 0.790015 0.714541 0.000000
vt 0.790015 0.642991 0.000000
vt 0.258411 0.642557 0.000000
vt 0.258411 0.571361 0.000000
vt 0.790015 0.571441 0.000000
vt 0.258411 0.856145 0.000000
vt 0.790015 0.857641 0.000000
vt 0.790015 0.786091 0.000000
vt 0.258411 0.784949 0.000000
vt 0.258410 0.927341 0.000000
vt 0.790015 0.929191 0.000000
vt 0.258410 0.999639 0.000000
vt 0.790015 0.999639 0.000000
usemtl Material_6
f 91/91 92/92 93/93
f 93/93 94/94 91/91
f 95/95 96/96 92/92
f 92/92 91/91 95/95
f 97/97 98/98 99/99
f 99/99 100/100 97/97
f 93/93 101/101 102/102
f 102/102 94/94 93/93
f 97/97 100/100 102/102
f 102/102 101/101 97/97
f 103/103 104/104 105/105
f 105/105 106/106 103/103
f 107/107 99/99 98/98
f 98/98 108/108 107/107
f 108/108 103/103 106/106
f 106/106 107/107 108/108
f 104/104 109/109 110/110
f 110/110 105/105 104/104
f 109/109 111/111 112/112
f 112/112 110/110 109/109
f 111/111 113/113 114/114
f 114/114 112/112 111/111
f 113/113 115/115 116/116
f 116/116 114/114 113/113
f 115/115 117/117 118/118
f 118/118 116/116 115/115
f 119/119 120/120 118/118
f 118/118 117/117 119/119
f 121/121 122/122 120/120
f 120/120 119/119 121/121
f 123/123 124/124 125/125
f 125/125 126/126 123/123
f 127/127 128/128 129/129
f 129/129 130/130 127/127
f 127/127 130/130 124/124
f 124/124 123/123 127/127
f 131/131 132/132 133/133
f 133/133 134/134 131/131
f 134/134 133/133 126/126
f 126/126 125/125 134/134
f 135/135 136/136 132/132
f 132/132 131/131 135/135
f 137/137 138/138 136/136
f 136/136 135/135 137/137
f 139/139 140/140 141/141
f 141/141 142/142 139/139
f 143/143 144/144 138/138
f 138/138 137/137 143/143
f 142/142 141/141 144/144
f 144/144 143/143 142/142
f 145/145 146/146 147/147
f 147/147 148/148 145/145
f 148/148 147/147 140/140
f 140/140 139/139 148/148
f 145/145 149/149 150/150
f 150/150 146/146 145/145
f 149/149 151/151 152/152
f 152/152 150/150 149/149

g common_RightHandItem_12520
v -1.661467 -2.428034 0.399179
v 0.048490 -2.866144 2.210334
v -1.615940 -2.605749 3.286937
v -3.382830 -2.155089 1.127226
v 5.190892 -2.973572 5.049222
v 4.985747 -3.207280 3.974822
v 7.777432 -2.763788 4.043868
v 2.193507 -3.091501 3.264669
v 2.742591 -2.995156 5.152806
v 0.346404 -2.900552 4.699687
v 0.048490 -2.866144 2.210334
v -1.661467 -2.428034 0.399179
v -1.653579 -2.021411 0.489365
v 0.057025 -2.401893 2.312982
v 4.985747 -3.207280 3.974822
v 4.991706 -2.768831 4.070341
v 7.777432 -2.763788 4.043868
v 2.193507 -3.091501 3.264669
v 2.201373 -2.622088 3.367944
v 4.991706 -2.768831 4.070341
v 4.985747 -3.207280 3.974822
v -1.653579 -2.021411 0.489365
v -3.382830 -2.155089 1.127226
v -1.615940 -2.605749 3.286937
v 0.057025 -2.401893 2.312982
v 5.190892 -2.973572 5.049222
v 2.201373 -2.622088 3.367944
v 0.346404 -2.900552 4.699687
v 2.742591 -2.995156 5.152806
v -3.436491 -0.857163 -1.126457
v -3.358571 -0.923402 0.704142
v -0.579351 -1.153496 1.904017
v -7.250549 -1.129038 -2.534833
v -6.346169 -1.403928 1.953790
v -7.573132 -1.421697 0.493181
v -7.408362 -2.432479 0.235612
v -6.143781 -2.648883 1.636257
v -3.436491 -0.857163 -1.126457
v -3.236212 -1.632547 0.505130
v -6.143781 -2.648883 1.636257
v -7.250549 -1.129038 -2.534833
v -7.408362 -2.432479 0.235612
v -12.397010 -2.272478 -1.193609
v -7.573132 -1.421697 0.493181
v -12.397010 -2.272478 -1.193609
v -0.579351 -1.153496 1.904017
v -12.397010 -2.272478 -1.193609
v -6.346169 -1.403928 1.953790
v -5.300384 -2.228790 5.724121
v -2.141885 -1.577526 4.349689
v -5.098000 -3.473744 5.406585
v -5.300384 -2.228790 5.724121
v -1.978761 -2.561580 4.089346
v -5.098000 -3.473744 5.406585
v 6.761046 -3.010841 10.965150
v 6.236614 -3.711227 15.822400
v 1.434248 -4.088088 14.333360
v 1.708055 -3.344971 8.845505
v -3.799934 -4.034797 10.851680
v -6.695442 -3.531297 7.097101
v -2.722174 -3.718243 9.118097
v 6.566685 -1.819040 11.268810
v 6.761046 -3.010841 10.965150
v 1.708055 -3.344971 8.845505
v 1.499784 -2.064990 9.171871
v -1.978761 -2.561580 4.089346
v -2.141885 -1.577526 4.349689
v 6.566685 -1.819040 11.268810
v 1.499784 -2.064990 9.171871
v 1.434248 -4.088088 14.333360
v 6.236614 -3.711227 15.822400
v -2.808945 -3.143632 9.268612
v -2.250603 -4.205020 12.497340
v -2.250603 -4.205020 12.497340
v 8.532745 -3.421491 13.569380
v 12.137890 -3.697705 19.200680
v 8.338381 -2.229692 13.873030
v 8.532745 -3.421491 13.569380
v 8.338381 -2.229692 13.873030
v 12.137890 -3.697705 19.200680
v -3.799934 -4.034797 10.851680
v -2.722174 -3.718243 9.118097
v -6.695442 -3.531297 7.097101
v -2.808945 -3.143632 9.268612
v 12.137890 -3.697705 19.200680
v -2.722174 -3.718243 9.118097
v -2.808945 -3.143632 9.268612
v -3.236212 -1.632547 0.505130
v -0.579351 -1.153496 1.904017
v -3.358571 -0.923402 0.704142
v -3.236212 -1.632547 0.505130
v -3.358571 -0.923402 0.704142
v -6.695442 -3.531297 7.097101
v -5.267107 -2.042851 -1.263727
v -5.373570 -1.362566 -3.022569
v -2.671058 -1.187380 -2.213197
v -2.895149 -1.974178 -0.388930
v 1.601394 -1.568322 3.370259
v 1.656899 -1.982696 6.121651
v 0.651028 -2.147001 3.484192
v -1.080115 -2.018842 1.181792
v -0.592466 -1.151541 -0.943654
v 0.754991 -1.312580 1.084745
v -2.895149 -1.974178 -0.388930
v -2.938352 -1.506930 -0.311774
v -5.304541 -1.633544 -1.195863
v -5.267107 -2.042851 -1.263727
v 0.651028 -2.147001 3.484192
v 1.656899 -1.982696 6.121651
v 0.608167 -1.706009 3.555604
v -1.080115 -2.018842 1.181792
v 0.651028 -2.147001 3.484192
v 0.608167 -1.706009 3.555604
v -1.124540 -1.546505 1.259272
v -5.304541 -1.633544 -1.195863
v -2.938352 -1.506930 -0.311774
v -2.671058 -1.187380 -2.213197
v -5.373570 -1.362566 -3.022569
v 1.601394 -1.568322 3.370259
v -1.124540 -1.546505 1.259272
v 0.754991 -1.312580 1.084745
v -0.592466 -1.151541 -0.943654
v -4.857443 -1.888346 -1.866694
v -5.189786 -1.284980 -3.625428
v -2.450435 -0.843653 -3.086416
v -2.429999 -1.579670 -1.227633
v 2.343716 -0.643062 2.066236
v 2.694457 -0.949807 4.809926
v 1.464769 -1.298374 2.287758
v -0.479132 -1.407193 0.160853
v -0.273835 -0.578942 -2.025327
v 1.266961 -0.546584 -0.133005
v -2.429999 -1.579670 -1.227633
v -2.508061 -1.115504 -1.159829
v -4.925394 -1.481695 -1.807063
v -4.857443 -1.888346 -1.866694
v 1.464769 -1.298374 2.287758
v 2.694457 -0.949807 4.809926
v 1.388892 -0.860528 2.350551
v -0.479132 -1.407193 0.160853
v 1.464769 -1.298374 2.287758
v 1.388892 -0.860528 2.350551
v -0.558844 -0.938059 0.228956
v -4.925394 -1.481695 -1.807063
v -2.508061 -1.115504 -1.159829
v -2.450435 -0.843653 -3.086416
v -5.189786 -1.284980 -3.625428
v 2.343716 -0.643062 2.066236
v -0.558844 -0.938059 0.228956
v 1.266961 -0.546584 -0.133005
v -0.273835 -0.578942 -2.025327
v -11.752150 -2.270876 -0.354027
v -10.150290 -2.049689 0.622078
v -12.231260 -2.440420 2.494570
v -13.724720 -2.651632 1.182250
v -19.232360 -2.593196 3.226178
v -21.633280 -2.305738 1.848539
v -18.877360 -2.835633 2.193588
v -16.008410 -2.808017 1.906010
v -14.389740 -2.671044 3.599724
v -16.828400 -2.690342 3.691954
v -13.724720 -2.651632 1.182250
v -13.734020 -2.187106 1.283566
v -11.760740 -1.863995 -0.265071
v -11.752150 -2.270876 -0.354027
v -18.877360 -2.835633 2.193588
v -21.633280 -2.305738 1.848539
v -18.883850 -2.396973 2.288180
v -16.008410 -2.808017 1.906010
v -18.877360 -2.835633 2.193588
v -18.883850 -2.396973 2.288180
v -16.016970 -2.338348 2.008057
v -11.760740 -1.863995 -0.265071
v -13.734020 -2.187106 1.283566
v -12.231260 -2.440420 2.494570
v -10.150290 -2.049689 0.622078
v -19.232360 -2.593196 3.226178
v -16.016970 -2.338348 2.008057
v -16.828400 -2.690342 3.691954
v -14.389740 -2.671044 3.599724
v -8.026721 -2.027786 -1.468977
v -10.492930 -1.906560 -0.921906
v -10.442130 -1.052493 -2.728892
v -7.660714 -1.293652 -3.170367
v -15.447220 -1.471019 2.205462
v -14.538890 -2.085515 2.425404
v -15.890610 -1.974193 4.906417
v -12.506190 -1.940769 0.385427
v -14.289100 -1.168950 0.067034
v -12.672800 -0.987240 -1.752456
v -10.492930 -1.906560 -0.921906
v -8.026721 -2.027786 -1.468977
v -7.986828 -1.622482 -1.381356
v -10.446880 -1.443888 -0.822129
v -14.538890 -2.085515 2.425404
v -14.493170 -1.648869 2.518463
v -15.890610 -1.974193 4.906417
v -12.506190 -1.940769 0.385427
v -12.458820 -1.473068 0.485883
v -14.493170 -1.648869 2.518463
v -14.538890 -2.085515 2.425404
v -7.986828 -1.622482 -1.381356
v -7.660714 -1.293652 -3.170367
v -10.442130 -1.052493 -2.728892
v -10.446880 -1.443888 -0.822129
v -15.447220 -1.471019 2.205462
v -12.458820 -1.473068 0.485883
v -12.672800 -0.987240 -1.752456
v -14.289100 -1.168950 0.067034
v -8.338449 -1.920048 -1.525520
v -10.839140 -1.623489 -1.291479
v -10.507970 -0.817564 -3.090930
v -7.716413 -1.252063 -3.179158
v -16.099290 -0.788274 1.188115
v -15.269120 -1.455990 1.528728
v -16.905200 -1.197147 3.820277
v -12.995630 -1.493903 -0.244444
v -14.668780 -0.613878 -0.793953
v -12.832160 -0.582236 -2.400751
v -10.839140 -1.623489 -1.291479
v -8.338449 -1.920048 -1.525520
v -8.282021 -1.516304 -1.439814
v -10.774190 -1.162635 -1.193824
v -15.269120 -1.455990 1.528728
v -15.205450 -1.021235 1.620073
v -16.905200 -1.197147 3.820277
v -12.995630 -1.493903 -0.244444
v -12.929110 -1.028103 -0.146025
v -15.205450 -1.021235 1.620073
v -15.269120 -1.455990 1.528728
v -8.282021 -1.516304 -1.439814
v -7.716413 -1.252063 -3.179158
v -10.507970 -0.817564 -3.090930
v -10.774190 -1.162635 -1.193824
v -16.099290 -0.788274 1.188115
v -12.929110 -1.028103 -0.146025
v -12.832160 -0.582236 -2.400751
v -14.668780 -0.613878 -0.793953
v -9.806120 -0.842011 -1.812484
v -13.111040 -1.343197 0.689741
v -10.181360 -0.990728 -0.024013
v -5.805863 -0.955682 -2.580289
v -7.425624 -1.450590 1.682651
v -7.533134 -2.685047 1.287359
v -6.063352 -2.375471 0.124730
v -5.975580 -1.373189 0.445510
v -7.533134 -2.685047 1.287359
v -10.246600 -1.693273 -0.268224
v -9.806120 -0.842011 -1.812484
v -5.805863 -0.955682 -2.580289
v -6.063352 -2.375471 0.124730
v -5.975580 -1.373189 0.445510
v -0.915477 -2.027381 -0.452395
v -0.915477 -2.027381 -0.452395
v -13.111040 -1.343197 0.689741
v -0.915477 -2.027381 -0.452395
v -7.425624 -1.450590 1.682651
v -11.958460 -1.835105 3.341571
v -9.049243 -2.466685 5.192760
v -9.049243 -2.466685 5.192760
v -9.156752 -3.701142 4.797467
v -9.156752 -3.701142 4.797467
v -12.045010 -2.810529 3.019382
v -21.776130 -3.781571 8.332118
v -16.435630 -3.894979 7.065833
v -17.042850 -4.871904 12.489910
v -21.920190 -4.684545 13.160020
v -11.312510 -4.533849 9.926608
v -12.100610 -4.168451 8.052454
v -7.857516 -3.792913 6.725301
v -21.672550 -2.599801 8.710313
v -16.324890 -2.625781 7.472179
v -16.435630 -3.894979 7.065833
v -21.776130 -3.781571 8.332118
v -11.958460 -1.835105 3.341571
v -12.045010 -2.810529 3.019382
v -21.672550 -2.599801 8.710313
v -21.920190 -4.684545 13.160020
v -17.042850 -4.871904 12.489910
v -16.324890 -2.625781 7.472179
v -12.058190 -3.599029 8.237701
v -13.104740 -4.815249 11.285410
v -13.104740 -4.815249 11.285410
v -28.407280 -4.965302 15.531600
v -23.937260 -4.350884 10.589310
v -23.937260 -4.350884 10.589310
v -23.833670 -3.169109 10.967510
v -23.833670 -3.169109 10.967510
v -28.407280 -4.965302 15.531600
v -11.312510 -4.533849 9.926608
v -12.100610 -4.168451 8.052454
v -12.058190 -3.599029 8.237701
v -7.857516 -3.792913 6.725301
v -28.407280 -4.965302 15.531600
v -12.058190 -3.599029 8.237701
v -12.100610 -4.168451 8.052454
v -10.246600 -1.693273 -0.268224
v -10.181360 -0.990728 -0.024013
v -13.111040 -1.343197 0.689741
v -10.181360 -0.990728 -0.024013
v -10.246600 -1.693273 -0.268224
v -7.857516 -3.792913 6.725301
v -8.457374 -0.893617 -7.519724
v -6.242523 -1.266253 -5.614282
v -6.051139 -0.742112 -8.068890
v -7.520427 -0.531176 -9.163631
v -7.588545 -1.291178 -5.624362
v -6.152060 -1.590013 -6.893778
v -6.440597 -2.491104 -3.216279
v -8.096172 -1.865090 -2.894287
v -8.457374 -0.893617 -7.519724
v -7.520427 -0.531176 -9.163631
v -5.811206 -0.079354 -11.144980
v -6.443908 -1.809417 -3.029665
v -7.588545 -1.291178 -5.624362
v -5.811206 -0.079354 -11.144980
v -8.096172 -1.865090 -2.894287
v -3.758925 -0.961109 -7.167830
v -4.429818 -0.573624 -8.931751
v -4.911339 -1.327187 -5.423341
v -4.832566 -1.910232 -2.649493
v -4.429818 -0.573624 -8.931751
v -3.758925 -0.961109 -7.167830
v -4.911339 -1.327187 -5.423341
v -4.832566 -1.910232 -2.649493
vt 0.515011 0.023078 0.000000
vt 0.519881 0.127127 0.000000
vt 0.350391 0.127127 0.000000
vt 0.355250 0.023078 0.000000
vt 0.373247 0.290033 0.000000
vt 0.470404 0.290033 0.000000
vt 0.406239 0.361716 0.000000
vt 0.517649 0.195953 0.000000
vt 0.361615 0.239819 0.000000
vt 0.354932 0.182240 0.000000
vt 0.544281 0.127127 0.000000
vt 0.542043 0.023078 0.000000
vt 0.515011 0.023078 0.000000
vt 0.519881 0.127127 0.000000
vt 0.496222 0.291323 0.000000
vt 0.470404 0.290033 0.000000
vt 0.406239 0.361716 0.000000
vt 0.535227 0.195953 0.000000
vt 0.517649 0.195953 0.000000
vt 0.470404 0.290033 0.000000
vt 0.496222 0.291323 0.000000
vt 0.515011 0.023078 0.000000
vt 0.355250 0.023078 0.000000
vt 0.350391 0.127127 0.000000
vt 0.519881 0.127127 0.000000
vt 0.373247 0.290033 0.000000
vt 0.517649 0.195953 0.000000
vt 0.354932 0.182240 0.000000
vt 0.361615 0.239819 0.000000
vt 0.624843 0.688957 0.000000
vt 0.687406 0.653655 0.000000
vt 0.612689 0.586541 0.000000
vt 0.735786 0.763230 0.000000
vt 0.546904 0.395810 0.000000
vt 0.542225 0.470240 0.000000
vt 0.517968 0.470120 0.000000
vt 0.517027 0.395669 0.000000
vt 0.624843 0.688957 0.000000
vt 0.687406 0.653655 0.000000
vt 0.845891 0.677397 0.000000
vt 0.735786 0.763230 0.000000
vt 0.860474 0.720647 0.000000
vt 0.929130 0.826926 0.000000
vt 0.860474 0.720647 0.000000
vt 0.527359 0.519328 0.000000
vt 0.612689 0.586541 0.000000
vt 0.929130 0.826926 0.000000
vt 0.845891 0.677397 0.000000
vt 0.908125 0.587912 0.000000
vt 0.746304 0.569203 0.000000
vt 0.517026 0.359868 0.000000
vt 0.546903 0.360009 0.000000
vt 0.746304 0.569203 0.000000
vt 0.908125 0.587912 0.000000
vt 0.555430 0.301499 0.000000
vt 0.739443 0.223915 0.000000
vt 0.975465 0.357864 0.000000
vt 0.732261 0.456523 0.000000
vt 0.989458 0.508218 0.000000
vt 0.989859 0.598727 0.000000
vt 0.910582 0.512046 0.000000
vt 0.548735 0.358619 0.000000
vt 0.516575 0.358511 0.000000
vt 0.516566 0.401522 0.000000
vt 0.548758 0.401635 0.000000
vt 0.516103 0.443285 0.000000
vt 0.542728 0.443332 0.000000
vt 0.555430 0.301499 0.000000
vt 0.732261 0.456523 0.000000
vt 0.975465 0.357864 0.000000
vt 0.739443 0.223915 0.000000
vt 0.910582 0.512046 0.000000
vt 0.995677 0.451042 0.000000
vt 0.995677 0.451042 0.000000
vt 0.564939 0.188181 0.000000
vt 0.596369 0.097900 0.000000
vt 0.548734 0.334692 0.000000
vt 0.516575 0.334583 0.000000
vt 0.564939 0.188181 0.000000
vt 0.532550 0.298999 0.000000
vt 0.989458 0.508218 0.000000
vt 0.541412 0.359426 0.000000
vt 0.533194 0.399743 0.000000
vt 0.521761 0.359417 0.000000
vt 0.596369 0.097900 0.000000
vt 0.525018 0.304005 0.000000
vt 0.538809 0.303996 0.000000
vt 0.539277 0.474944 0.000000
vt 0.528884 0.502998 0.000000
vt 0.520909 0.474952 0.000000
vt 0.520673 0.475056 0.000000
vt 0.539952 0.475047 0.000000
vt 0.989859 0.598727 0.000000
vt 0.515011 0.023078 0.000000
vt 0.355250 0.023078 0.000000
vt 0.350391 0.127127 0.000000
vt 0.519881 0.127127 0.000000
vt 0.373247 0.290033 0.000000
vt 0.406239 0.361716 0.000000
vt 0.470404 0.290033 0.000000
vt 0.517649 0.195953 0.000000
vt 0.354932 0.182240 0.000000
vt 0.361615 0.239819 0.000000
vt 0.544281 0.127127 0.000000
vt 0.519881 0.127127 0.000000
vt 0.515011 0.023078 0.000000
vt 0.542043 0.023078 0.000000
vt 0.496222 0.291323 0.000000
vt 0.406239 0.361716 0.000000
vt 0.470404 0.290033 0.000000
vt 0.535227 0.195953 0.000000
vt 0.496222 0.291323 0.000000
vt 0.470404 0.290033 0.000000
vt 0.517649 0.195953 0.000000
vt 0.515011 0.023078 0.000000
vt 0.519881 0.127127 0.000000
vt 0.350391 0.127127 0.000000
vt 0.355250 0.023078 0.000000
vt 0.373247 0.290033 0.000000
vt 0.517649 0.195953 0.000000
vt 0.361615 0.239819 0.000000
vt 0.354932 0.182240 0.000000
vt 0.515011 0.023078 0.000000
vt 0.355250 0.023078 0.000000
vt 0.350391 0.127127 0.000000
vt 0.519881 0.127127 0.000000
vt 0.373247 0.290033 0.000000
vt 0.406239 0.361716 0.000000
vt 0.470404 0.290033 0.000000
vt 0.517649 0.195953 0.000000
vt 0.354932 0.182240 0.000000
vt 0.361615 0.239819 0.000000
vt 0.544281 0.127127 0.000000
vt 0.519881 0.127127 0.000000
vt 0.515011 0.023078 0.000000
vt 0.542043 0.023078 0.000000
vt 0.496222 0.291323 0.000000
vt 0.406239 0.361716 0.000000
vt 0.470404 0.290033 0.000000
vt 0.535227 0.195953 0.000000
vt 0.496222 0.291323 0.000000
vt 0.470404 0.290033 0.000000
vt 0.517649 0.195953 0.000000
vt 0.515011 0.023078 0.000000
vt 0.519881 0.127127 0.000000
vt 0.350391 0.127127 0.000000
vt 0.355250 0.023078 0.000000
vt 0.373247 0.290033 0.000000
vt 0.517649 0.195953 0.000000
vt 0.361615 0.239819 0.000000
vt 0.354932 0.182240 0.000000
vt 0.515011 0.023078 0.000000
vt 0.355250 0.023078 0.000000
vt 0.350391 0.127127 0.000000
vt 0.519881 0.127127 0.000000
vt 0.373247 0.290033 0.000000
vt 0.406239 0.361716 0.000000
vt 0.470404 0.290033 0.000000
vt 0.517649 0.195953 0.000000
vt 0.354932 0.182240 0.000000
vt 0.361615 0.239819 0.000000
vt 0.544281 0.127127 0.000000
vt 0.519881 0.127127 0.000000
vt 0.515011 0.023078 0.000000
vt 0.542043 0.023078 0.000000
vt 0.496222 0.291323 0.000000
vt 0.406239 0.361716 0.000000
vt 0.470404 0.290033 0.000000
vt 0.535227 0.195953 0.000000
vt 0.496222 0.291323 0.000000
vt 0.470404 0.290033 0.000000
vt 0.517649 0.195953 0.000000
vt 0.515011 0.023078 0.000000
vt 0.519881 0.127127 0.000000
vt 0.350391 0.127127 0.000000
vt 0.355250 0.023078 0.000000
vt 0.373247 0.290033 0.000000
vt 0.517649 0.195953 0.000000
vt 0.361615 0.239819 0.000000
vt 0.354932 0.182240 0.000000
vt 0.515011 0.023078 0.000000
vt 0.519881 0.127127 0.000000
vt 0.350391 0.127127 0.000000
vt 0.355250 0.023078 0.000000
vt 0.373247 0.290033 0.000000
vt 0.470404 0.290033 0.000000
vt 0.406239 0.361716 0.000000
vt 0.517649 0.195953 0.000000
vt 0.361615 0.239819 0.000000
vt 0.354932 0.182240 0.000000
vt 0.544281 0.127127 0.000000
vt 0.542043 0.023078 0.000000
vt 0.515011 0.023078 0.000000
vt 0.519881 0.127127 0.000000
vt 0.496222 0.291323 0.000000
vt 0.470404 0.290033 0.000000
vt 0.406239 0.361716 0.000000
vt 0.535227 0.195953 0.000000
vt 0.517649 0.195953 0.000000
vt 0.470404 0.290033 0.000000
vt 0.496222 0.291323 0.000000
vt 0.515011 0.023078 0.000000
vt 0.355250 0.023078 0.000000
vt 0.350391 0.127127 0.000000
vt 0.519881 0.127127 0.000000
vt 0.373247 0.290033 0.000000
vt 0.517649 0.195953 0.000000
vt 0.354932 0.182240 0.000000
vt 0.361615 0.239819 0.000000
vt 0.515011 0.023078 0.000000
vt 0.519881 0.127127 0.000000
vt 0.350391 0.127127 0.000000
vt 0.355250 0.023078 0.000000
vt 0.373247 0.290033 0.000000
vt 0.470404 0.290033 0.000000
vt 0.406239 0.361716 0.000000
vt 0.517649 0.195953 0.000000
vt 0.361615 0.239819 0.000000
vt 0.354932 0.182240 0.000000
vt 0.544281 0.127127 0.000000
vt 0.542043 0.023078 0.000000
vt 0.515011 0.023078 0.000000
vt 0.519881 0.127127 0.000000
vt 0.496222 0.291323 0.000000
vt 0.470404 0.290033 0.000000
vt 0.406239 0.361716 0.000000
vt 0.535227 0.195953 0.000000
vt 0.517649 0.195953 0.000000
vt 0.470404 0.290033 0.000000
vt 0.496222 0.291323 0.000000
vt 0.515011 0.023078 0.000000
vt 0.355250 0.023078 0.000000
vt 0.350391 0.127127 0.000000
vt 0.519881 0.127127 0.000000
vt 0.373247 0.290033 0.000000
vt 0.517649 0.195953 0.000000
vt 0.354932 0.182240 0.000000
vt 0.361615 0.239819 0.000000
vt 0.624843 0.688957 0.000000
vt 0.612689 0.586541 0.000000
vt 0.687406 0.653655 0.000000
vt 0.735786 0.763230 0.000000
vt 0.546904 0.395810 0.000000
vt 0.517027 0.395669 0.000000
vt 0.517968 0.470120 0.000000
vt 0.542225 0.470240 0.000000
vt 0.845891 0.677397 0.000000
vt 0.687406 0.653655 0.000000
vt 0.624843 0.688957 0.000000
vt 0.735786 0.763230 0.000000
vt 0.860474 0.720647 0.000000
vt 0.860474 0.720647 0.000000
vt 0.929130 0.826926 0.000000
vt 0.527359 0.519328 0.000000
vt 0.612689 0.586541 0.000000
vt 0.929130 0.826926 0.000000
vt 0.845891 0.677397 0.000000
vt 0.746304 0.569203 0.000000
vt 0.908125 0.587912 0.000000
vt 0.546903 0.360009 0.000000
vt 0.517026 0.359868 0.000000
vt 0.908125 0.587912 0.000000
vt 0.746304 0.569203 0.000000
vt 0.555430 0.301499 0.000000
vt 0.732261 0.456523 0.000000
vt 0.975465 0.357864 0.000000
vt 0.742031 0.227551 0.000000
vt 0.989458 0.508218 0.000000
vt 0.910582 0.512046 0.000000
vt 0.989859 0.598727 0.000000
vt 0.548735 0.358619 0.000000
vt 0.548758 0.401635 0.000000
vt 0.516566 0.401522 0.000000
vt 0.516575 0.358511 0.000000
vt 0.542728 0.443332 0.000000
vt 0.516103 0.443285 0.000000
vt 0.555430 0.301499 0.000000
vt 0.742031 0.227551 0.000000
vt 0.975465 0.357864 0.000000
vt 0.732261 0.456523 0.000000
vt 0.910582 0.512046 0.000000
vt 0.995677 0.451042 0.000000
vt 0.995677 0.451042 0.000000
vt 0.596369 0.097900 0.000000
vt 0.564939 0.188181 0.000000
vt 0.516575 0.334583 0.000000
vt 0.548734 0.334692 0.000000
vt 0.564939 0.188181 0.000000
vt 0.532550 0.298999 0.000000
vt 0.989458 0.508218 0.000000
vt 0.541412 0.359426 0.000000
vt 0.521761 0.359417 0.000000
vt 0.533194 0.399743 0.000000
vt 0.596369 0.097900 0.000000
vt 0.538809 0.303996 0.000000
vt 0.525018 0.304005 0.000000
vt 0.539277 0.474944 0.000000
vt 0.520909 0.474952 0.000000
vt 0.528884 0.502998 0.000000
vt 0.539952 0.475047 0.000000
vt 0.520673 0.475056 0.000000
vt 0.989859 0.598727 0.000000
vt 0.816833 0.142772 0.000000
vt 0.983457 0.183314 0.000000
vt 0.982167 0.154804 0.000000
vt 0.874579 0.084930 0.000000
vt 0.872749 0.194426 0.000000
vt 0.982167 0.154804 0.000000
vt 0.983921 0.202937 0.000000
vt 0.871369 0.204919 0.000000
vt 0.816833 0.142772 0.000000
vt 0.874579 0.084930 0.000000
vt 0.980461 0.027944 0.000000
vt 0.983921 0.202937 0.000000
vt 0.872749 0.194426 0.000000
vt 0.980461 0.027944 0.000000
vt 0.871369 0.204919 0.000000
vt 0.816833 0.142772 0.000000
vt 0.874579 0.084930 0.000000
vt 0.872749 0.194426 0.000000
vt 0.871369 0.204919 0.000000
vt 0.874579 0.084930 0.000000
vt 0.816833 0.142772 0.000000
vt 0.872749 0.194426 0.000000
vt 0.871369 0.204919 0.000000
usemtl Material_1
f 153/153 154/154 155/155
f 155/155 156/156 153/153
f 157/157 158/158 159/159
f 160/160 161/161 162/162
f 161/161 160/160 158/158
f 158/158 157/157 161/161
f 163/163 164/164 165/165
f 165/165 166/166 163/163
f 167/167 168/168 169/169
f 170/170 171/171 172/172
f 172/172 173/173 170/170
f 174/174 175/175 176/176
f 176/176 177/177 174/174
f 178/178 169/169 168/168
f 179/179 180/180 181/181
f 181/181 178/178 168/168
f 168/168 179/179 181/181
f 162/162 155/155 154/154
f 154/154 160/160 162/162
f 170/170 163/163 166/166
f 166/166 171/171 170/170
f 177/177 176/176 180/180
f 180/180 179/179 177/177
f 182/182 183/183 184/184
f 185/185 183/183 182/182
f 186/186 187/187 188/188
f 188/188 189/189 186/186
f 190/190 191/191 192/192
f 193/193 190/190 192/192
f 194/194 193/193 192/192
f 185/185 195/195 196/196
f 187/187 197/197 188/188
f 191/191 190/190 198/198
f 193/193 194/194 199/199
f 200/200 201/201 202/202
f 202/202 183/183 200/200
f 189/189 203/203 204/204
f 204/204 186/186 189/189
f 192/192 191/191 205/205
f 205/205 206/206 192/192
f 207/207 208/208 209/209
f 209/209 210/210 207/207
f 211/211 212/212 213/213
f 206/206 205/205 210/210
f 210/210 213/213 206/206
f 214/214 215/215 216/216
f 216/216 217/217 214/214
f 217/217 216/216 218/218
f 218/218 219/219 217/217
f 220/220 221/221 222/222
f 222/222 223/223 220/220
f 221/221 202/202 201/201
f 201/201 224/224 221/221
f 225/225 213/213 210/210
f 210/210 209/209 225/225
f 221/221 224/224 226/226
f 226/226 222/222 221/221
f 208/208 227/227 228/228
f 215/215 214/214 229/229
f 229/229 230/230 215/215
f 220/220 223/223 231/231
f 230/230 229/229 232/232
f 224/224 233/233 226/226
f 234/234 235/235 236/236
f 208/208 207/207 227/227
f 223/223 237/237 231/231
f 204/204 203/203 238/238
f 238/238 239/239 204/204
f 240/240 241/241 242/242
f 218/218 243/243 244/244
f 244/244 219/219 218/218
f 213/213 225/225 211/211
f 224/224 245/245 233/233
f 196/196 200/200 183/183
f 183/183 185/185 196/196
f 246/246 247/247 248/248
f 248/248 249/249 246/246
f 250/250 251/251 252/252
f 253/253 254/254 255/255
f 255/255 250/250 252/252
f 252/252 253/253 255/255
f 256/256 257/257 258/258
f 258/258 259/259 256/256
f 260/260 261/261 262/262
f 263/263 264/264 265/265
f 265/265 266/266 263/263
f 267/267 268/268 269/269
f 269/269 270/270 267/267
f 271/271 262/262 261/261
f 272/272 273/273 274/274
f 273/273 272/272 262/262
f 262/262 271/271 273/273
f 254/254 253/253 249/249
f 249/249 248/248 254/254
f 263/263 266/266 257/257
f 257/257 256/256 263/263
f 268/268 272/272 274/274
f 274/274 269/269 268/268
f 275/275 276/276 277/277
f 277/277 278/278 275/275
f 279/279 280/280 281/281
f 282/282 283/283 284/284
f 284/284 279/279 281/281
f 281/281 282/282 284/284
f 285/285 286/286 287/287
f 287/287 288/288 285/285
f 289/289 290/290 291/291
f 292/292 293/293 294/294
f 294/294 295/295 292/292
f 296/296 297/297 298/298
f 298/298 299/299 296/296
f 300/300 291/291 290/290
f 301/301 302/302 303/303
f 302/302 301/301 291/291
f 291/291 300/300 302/302
f 283/283 282/282 278/278
f 278/278 277/277 283/283
f 292/292 295/295 286/286
f 286/286 285/285 292/292
f 297/297 301/301 303/303
f 303/303 298/298 297/297
f 304/304 305/305 306/306
f 306/306 307/307 304/304
f 308/308 309/309 310/310
f 311/311 312/312 313/313
f 313/313 308/308 310/310
f 310/310 311/311 313/313
f 314/314 315/315 316/316
f 316/316 317/317 314/314
f 318/318 319/319 320/320
f 321/321 322/322 323/323
f 323/323 324/324 321/321
f 325/325 326/326 327/327
f 327/327 328/328 325/325
f 329/329 320/320 319/319
f 330/330 331/331 332/332
f 331/331 330/330 320/320
f 320/320 329/329 331/331
f 312/312 311/311 307/307
f 307/307 306/306 312/312
f 321/321 324/324 315/315
f 315/315 314/314 321/321
f 326/326 330/330 332/332
f 332/332 327/327 326/326
f 333/333 334/334 335/335
f 335/335 336/336 333/333
f 337/337 338/338 339/339
f 340/340 341/341 342/342
f 341/341 340/340 338/338
f 338/338 337/337 341/341
f 343/343 344/344 345/345
f 345/345 346/346 343/343
f 347/347 348/348 349/349
f 350/350 351/351 352/352
f 352/352 353/353 350/350
f 354/354 355/355 356/356
f 356/356 357/357 354/354
f 358/358 349/349 348/348
f 359/359 360/360 361/361
f 361/361 358/358 348/348
f 348/348 359/359 361/361
f 342/342 335/335 334/334
f 334/334 340/340 342/342
f 350/350 343/343 346/346
f 346/346 351/351 350/350
f 357/357 356/356 360/360
f 360/360 359/359 357/357
f 362/362 363/363 364/364
f 364/364 365/365 362/362
f 366/366 367/367 368/368
f 369/369 370/370 371/371
f 370/370 369/369 367/367
f 367/367 366/366 370/370
f 372/372 373/373 374/374
f 374/374 375/375 372/372
f 376/376 377/377 378/378
f 379/379 380/380 381/381
f 381/381 382/382 379/379
f 383/383 384/384 385/385
f 385/385 386/386 383/383
f 387/387 378/378 377/377
f 388/388 389/389 390/390
f 390/390 387/387 377/377
f 377/377 388/388 390/390
f 371/371 364/364 363/363
f 363/363 369/369 371/371
f 379/379 372/372 375/375
f 375/375 380/380 379/379
f 386/386 385/385 389/389
f 389/389 388/388 386/386
f 391/391 392/392 393/393
f 394/394 391/391 393/393
f 395/395 396/396 397/397
f 397/397 398/398 395/395
f 399/399 400/400 401/401
f 399/399 401/401 402/402
f 403/403 399/399 402/402
f 394/394 404/404 405/405
f 398/398 397/397 406/406
f 400/400 407/407 401/401
f 402/402 408/408 403/403
f 409/409 393/393 410/410
f 410/410 411/411 409/409
f 396/396 395/395 412/412
f 412/412 413/413 396/396
f 399/399 414/414 415/415
f 415/415 400/400 399/399
f 416/416 417/417 418/418
f 418/418 419/419 416/416
f 420/420 421/421 422/422
f 414/414 421/421 417/417
f 417/417 415/415 414/414
f 423/423 424/424 425/425
f 425/425 426/426 423/423
f 424/424 427/427 428/428
f 428/428 425/425 424/424
f 429/429 430/430 431/431
f 431/431 432/432 429/429
f 432/432 433/433 411/411
f 411/411 410/410 432/432
f 434/434 418/418 417/417
f 417/417 421/421 434/434
f 432/432 431/431 435/435
f 435/435 433/433 432/432
f 419/419 436/436 437/437
f 426/426 438/438 439/439
f 439/439 423/423 426/426
f 429/429 440/440 430/430
f 438/438 441/441 439/439
f 433/433 435/435 442/442
f 443/443 444/444 445/445
f 419/419 437/437 416/416
f 430/430 440/440 446/446
f 412/412 447/447 448/448
f 448/448 413/413 412/412
f 449/449 450/450 451/451
f 428/428 427/427 452/452
f 452/452 453/453 428/428
f 421/421 420/420 434/434
f 433/433 442/442 454/454
f 404/404 394/394 393/393
f 393/393 409/409 404/404
f 455/455 456/456 457/457
f 457/457 458/458 455/455
f 459/459 460/460 461/461
f 461/461 462/462 459/459
f 460/460 463/463 464/464
f 464/464 465/465 460/460
f 466/466 456/456 467/467
f 457/457 468/468 458/458
f 460/460 459/459 463/463
f 469/469 466/466 467/467
f 467/467 456/456 455/455
f 470/470 471/471 457/457
f 457/457 456/456 470/470
f 472/472 473/473 461/461
f 461/461 460/460 472/472
f 460/460 474/474 475/475
f 474/474 460/460 465/465
f 466/466 476/476 456/456
f 457/457 471/471 468/468
f 460/460 475/475 472/472
f 477/477 476/476 466/466
f 476/476 470/470 456/456

