mtllib Mount_merry_b1.mtl

g Mount_merry_b1
v -10.573570 -27.071030 98.514950
v -13.317150 -21.340950 90.902160
v -9.940157 -22.583580 99.983760
v -13.436110 -29.350260 91.374390
v -9.840404 -37.412490 87.080560
v -7.271806 -32.692180 97.906730
v -7.893645 -16.920980 93.960950
v -6.821867 -19.004680 101.646800
v -9.239335 -13.907110 86.544490
v -14.232490 -19.512750 84.267010
v -16.374730 -23.906100 80.970890
v -14.661480 -29.824410 87.521900
v -16.135520 -30.506320 79.110440
v 0.066700 -41.517460 87.043240
v -10.052290 -39.310550 75.962160
v 0.182001 -44.092010 74.595090
v -16.202190 -25.704160 80.346730
v -11.110710 -32.292970 88.239360
v -11.579750 -35.992260 76.967740
v -12.696470 -21.826990 90.097480
v 0.039439 -41.125920 86.180020
v 0.032910 -41.732350 74.407800
v 0.121562 -42.635010 68.659250
v -10.897920 -39.730250 63.508470
v -12.038120 -37.188970 70.491910
v 0.134824 -45.012170 60.320470
v -16.982280 -27.985290 71.469310
v -16.105500 -34.423130 66.312100
v -14.234830 -20.361670 81.043380
v -14.723800 -23.601700 71.499170
v -1.859023 -10.781060 90.539630
v -1.655221 -14.045040 96.309080
v -1.500966 -15.246410 103.551400
v -0.250799 -36.416130 97.247630
v 8.857138 -25.869170 98.301140
v 7.703783 -21.492240 99.789600
v 10.805220 -19.821680 90.841740
v 11.929130 -27.726070 91.310060
v 9.369405 -36.182460 87.031850
v 6.266469 -31.854790 97.757770
v 4.202445 -18.322790 101.525500
v 4.885580 -16.116130 93.928940
v 5.836464 -12.973440 86.507190
v 11.471860 -17.920830 84.203430
v 14.123550 -22.017290 80.895420
v 14.691520 -28.564780 79.033230
v 13.185490 -28.041330 87.451280
v 9.745106 -38.063690 75.912570
v 14.171120 -23.823090 80.271580
v 10.849250 -34.579640 76.911550
v 9.982224 -30.942360 88.185870
v 10.246360 -20.382010 90.040000
v 11.369980 -35.498580 70.053050
v 10.350490 -38.195830 63.110100
v 14.975880 -24.895080 71.429100
v 13.093140 -29.854180 64.423740
v 11.553870 -18.777590 80.676310
v 12.136560 -20.889440 72.138400
v 10.435610 -13.845510 81.034710
v 15.253770 -10.220150 73.405000
v 11.865670 -18.972450 66.922550
v 18.700990 6.384821 80.606740
v 14.760690 -6.828154 65.469600
v -13.716350 -15.341250 81.094470
v -14.566880 -20.609370 66.987930
v -18.985790 -12.340650 73.489710
v -24.436750 3.713101 80.713450
v -18.673690 -7.020316 65.274480
vt 0.328545 0.808526 0.000000
vt 0.397501 0.772027 0.000000
vt 0.383239 0.828265 0.000000
vt 0.301715 0.757948 0.000000
vt 0.187130 0.726208 0.000000
vt 0.255884 0.800011 0.000000
vt 0.462276 0.769776 0.000000
vt 0.447305 0.837880 0.000000
vt 0.470114 0.720907 0.000000
vt 0.414872 0.734249 0.000000
vt 0.329646 0.669392 0.000000
vt 0.269430 0.712564 0.000000
vt 0.239549 0.657595 0.000000
vt 0.106621 0.744517 0.000000
vt 0.141402 0.653403 0.000000
vt 0.042520 0.663606 0.000000
vt 0.792612 0.948223 0.000000
vt 0.687624 0.979523 0.000000
vt 0.668449 0.945445 0.000000
vt 0.822574 0.990234 0.000000
vt 0.548255 0.970703 0.000000
vt 0.537171 0.930246 0.000000
vt 0.536164 0.879976 0.000000
vt 0.650884 0.836965 0.000000
vt 0.669604 0.888858 0.000000
vt 0.534560 0.832689 0.000000
vt 0.804587 0.884794 0.000000
vt 0.760281 0.848364 0.000000
vt 0.846669 0.955078 0.000000
vt 0.840049 0.905777 0.000000
vt 0.519629 0.732286 0.000000
vt 0.504867 0.788807 0.000000
vt 0.505169 0.852292 0.000000
vt 0.169719 0.796062 0.000000
vt 0.328545 0.808526 0.000000
vt 0.383239 0.828265 0.000000
vt 0.397501 0.772027 0.000000
vt 0.301715 0.757948 0.000000
vt 0.187130 0.726208 0.000000
vt 0.255884 0.800011 0.000000
vt 0.447305 0.837880 0.000000
vt 0.462276 0.769776 0.000000
vt 0.470114 0.720907 0.000000
vt 0.414872 0.734249 0.000000
vt 0.329646 0.669392 0.000000
vt 0.239549 0.657595 0.000000
vt 0.269430 0.712564 0.000000
vt 0.141402 0.653403 0.000000
vt 0.792612 0.948223 0.000000
vt 0.668449 0.945445 0.000000
vt 0.687624 0.979523 0.000000
vt 0.822574 0.990234 0.000000
vt 0.669604 0.888858 0.000000
vt 0.650884 0.836965 0.000000
vt 0.804587 0.884794 0.000000
vt 0.760281 0.848364 0.000000
vt 0.846669 0.955078 0.000000
vt 0.840049 0.905777 0.000000
vt 0.509119 0.103849 0.000000
vt 0.596311 0.063333 0.000000
vt 0.515141 0.002225 0.000000
vt 0.728152 0.139937 0.000000
vt 0.694267 0.023943 0.000000
vt 0.509119 0.103849 0.000000
vt 0.515141 0.002225 0.000000
vt 0.596311 0.063333 0.000000
vt 0.728152 0.139937 0.000000
vt 0.694267 0.023943 0.000000
usemtl Material_2
f 2/2 1/1 3/3
f 1/1 2/2 4/4
f 5/5 1/1 4/4
f 1/1 5/5 6/6
f 7/7 3/3 8/8
f 3/3 7/7 2/2
f 2/2 9/9 10/10
f 9/9 2/2 7/7
f 12/12 11/11 13/13
f 11/11 12/12 2/2
f 15/15 14/14 5/5
f 14/14 15/15 16/16
f 5/5 13/13 15/15
f 13/13 5/5 12/12
f 6/6 5/5 14/14
f 10/10 11/11 2/2
f 18/18 17/17 19/19
f 17/17 18/18 20/20
f 19/19 21/21 18/18
f 21/21 19/19 22/22
f 24/24 23/23 25/25
f 23/23 24/24 26/26
f 25/25 27/27 28/28
f 27/27 29/29 30/30
f 29/29 27/27 17/17
f 29/29 17/17 20/20
f 22/22 25/25 23/23
f 25/25 22/22 19/19
f 19/19 27/27 25/25
f 27/27 19/19 17/17
f 7/7 31/31 9/9
f 31/31 7/7 32/32
f 7/7 33/33 32/32
f 33/33 7/7 8/8
f 5/5 4/4 12/12
f 4/4 2/2 12/12
f 25/25 28/28 24/24
f 6/6 14/14 34/34
f 36/36 35/35 37/37
f 38/38 37/37 35/35
f 38/38 35/35 39/39
f 40/40 39/39 35/35
f 41/41 36/36 42/42
f 37/37 42/42 36/36
f 44/44 43/43 37/37
f 42/42 37/37 43/43
f 46/46 45/45 47/47
f 37/37 47/47 45/45
f 39/39 14/14 48/48
f 16/16 48/48 14/14
f 48/48 46/46 39/39
f 47/47 39/39 46/46
f 14/14 39/39 40/40
f 37/37 45/45 44/44
f 50/50 49/49 51/51
f 52/52 51/51 49/49
f 51/51 21/21 50/50
f 22/22 50/50 21/21
f 53/53 23/23 54/54
f 26/26 54/54 23/23
f 56/56 55/55 53/53
f 58/58 57/57 55/55
f 49/49 55/55 57/57
f 52/52 49/49 57/57
f 23/23 53/53 22/22
f 50/50 22/22 53/53
f 53/53 55/55 50/50
f 49/49 50/50 55/55
f 43/43 31/31 42/42
f 32/32 42/42 31/31
f 32/32 33/33 42/42
f 41/41 42/42 33/33
f 47/47 38/38 39/39
f 47/47 37/37 38/38
f 54/54 56/56 53/53
f 34/34 14/14 40/40
f 60/60 59/59 61/61
f 62/62 59/59 60/60
f 63/63 60/60 61/61
f 63/63 62/62 60/60
f 65/65 64/64 66/66
f 66/66 64/64 67/67
f 65/65 66/66 68/68
f 66/66 67/67 68/68

g Mount_merry_b1
v -15.135960 46.250140 5.381963
v -18.382160 45.012650 6.150635
v -15.287720 46.327870 3.054856
v -12.897660 43.478160 5.813267
v -19.126010 44.715240 0.223005
v -15.985700 43.856480 3.886259
v -13.073370 43.024520 0.044514
v -20.776650 34.255760 -0.116218
v -21.818040 40.871980 0.139169
v -17.191770 39.125730 9.769661
v -17.955480 37.255610 -0.064867
v -16.247240 43.351730 0.118242
v -17.103080 33.229610 -0.224550
v -9.219851 -36.186140 62.675440
v -10.243660 -34.026210 72.739200
v -4.799261 -34.084830 63.799820
v -14.747190 -26.465410 61.998650
v -13.285230 -25.745930 71.374090
v -15.067510 -16.902710 71.131600
v -10.140180 -16.183430 60.142150
v -13.875850 -25.502130 79.894840
v -10.900630 -11.219530 80.672850
v -13.929170 -20.447490 80.985100
v -13.192410 -5.211859 66.648960
v -10.772810 -4.000054 75.462520
v -1.893730 -7.375181 54.633770
v -10.301450 -6.268867 59.621490
v -1.698569 -23.002720 57.200640
v -4.404357 -27.666220 56.909930
v -0.073972 -39.880470 78.245780
v -0.200999 -38.183870 70.306950
v -9.672955 -34.490240 81.807580
v -1.969076 0.006046 53.424340
v -9.680721 4.362746 59.641100
v -11.018460 14.165840 67.362780
v -8.311013 5.036132 73.113450
v -11.647990 4.581991 64.407270
v -8.291296 16.947420 74.208130
v -13.627070 22.374380 63.752030
v -11.242120 13.625670 63.800570
v -13.833450 21.989100 54.411620
v -9.521259 16.587860 51.119870
v -9.716660 12.759850 59.169090
v -6.039058 12.312180 55.291500
v -11.286680 20.690530 68.304000
v -9.866220 28.208880 73.287890
v -12.412800 29.390370 67.263480
v -14.790680 28.428710 56.796040
v -14.060760 31.865090 47.575140
v -2.429652 24.510270 56.945200
v -4.396391 28.231160 47.851370
v -5.055762 25.361080 78.874570
v 0.570934 29.251090 78.714610
v -4.375713 29.229410 77.321140
v 0.232744 25.409240 80.035140
v -6.255999 32.277720 73.607390
v -2.224113 33.347810 73.762250
v 1.017499 34.645980 70.369610
v -3.500329 35.082620 67.552760
v -10.667790 33.344280 58.803150
v -5.211376 35.525900 59.898930
v -11.590390 36.011300 47.831410
v -6.320492 34.709480 54.503120
v -11.336810 33.276410 55.867650
v -7.129088 37.069800 46.965820
v 1.014357 34.174530 67.291110
v 0.864380 32.293760 60.449860
v -7.891294 43.605220 42.764150
v -10.253530 36.373890 36.538070
v -12.867000 39.432810 40.060390
v -12.937920 28.000390 45.725690
v -6.515546 39.447090 38.631630
v -9.979462 23.855190 43.695340
v -10.540090 37.731080 34.584680
v -13.158380 41.191040 37.670920
v -6.744557 40.688910 35.904840
v -9.013922 45.234190 39.120140
v -7.310734 -27.947500 119.761700
v -7.599517 -28.487420 116.812100
v -6.718317 -24.701680 116.449400
v -8.069996 -33.487360 116.611100
v -7.345251 -32.130600 119.973200
v -7.285420 -31.615370 122.014600
v -4.772044 -23.565660 123.565600
v -6.408437 -27.163760 123.732900
v -6.142095 -23.841250 121.468600
v -7.098003 -37.755420 116.476100
v -6.670092 -33.186110 113.686600
v -5.852602 -36.900750 113.768400
v -0.541864 -30.593850 111.364700
v -3.417711 -29.175780 111.680400
v -0.711743 -32.449790 111.329900
v -3.745848 -36.384190 112.995300
v -4.244328 -29.132800 107.338700
v -0.412369 -30.337980 108.905200
v -0.416749 -31.238620 105.919900
v -7.351588 -23.787470 109.301500
v -5.876131 -27.581350 113.057900
v -10.573570 -27.071030 98.514950
v -7.271806 -32.692180 97.906730
v -6.821867 -19.004680 101.646800
v -5.418659 -19.757130 111.554300
v -9.940157 -22.583580 99.983760
v -0.771910 -21.910970 124.120500
v -2.736243 -24.592270 126.000200
v -4.470651 -21.675240 122.462500
v -6.727057 -36.308300 118.710900
v -7.005726 -34.649410 120.583200
v -6.798564 -36.751950 119.811400
v -4.603526 -34.540660 125.581600
v -6.852674 -30.383010 124.393000
v -4.823055 -30.475940 126.656400
v -7.045570 -33.037410 123.702800
v -0.660101 -38.525460 124.797900
v -4.159107 -37.822620 123.960300
v -0.682978 -34.922670 126.333600
v -4.917346 -38.482890 118.960700
v -6.061027 -36.526260 121.048300
v -2.696418 -47.059150 117.350400
v -3.112601 -46.159550 116.163500
v -4.139871 -39.369250 120.376500
v -0.602930 -48.186710 115.540800
v -2.276354 -47.438210 115.660900
v -0.597991 -48.720320 117.231400
v -0.625643 -45.210210 112.125400
v -3.821350 -40.182600 113.190400
v -3.032588 -45.130090 112.635700
v -0.669257 -38.626800 112.708900
v -0.739494 -26.381990 127.164700
v -4.372931 -29.337040 127.092400
v -0.603694 -48.179770 114.673300
v -2.976999 -47.123290 114.569600
v -2.625842 -46.316300 113.414900
v -6.408437 -27.163760 123.732900
v -7.327148 -27.029830 122.699700
v -6.142095 -23.841250 121.468600
v -9.250145 -24.382780 124.851900
v -8.260060 -20.730730 124.121200
v -11.487330 -21.538760 125.401400
v -14.827870 -16.923950 124.289000
v -8.816984 -20.019130 122.564400
v -12.532220 -19.956160 121.844100
v -11.487330 -21.538760 125.401400
v -10.626440 -22.769470 120.013100
v -8.471214 -26.594550 119.515600
v -9.250145 -24.382780 124.851900
v -7.327148 -27.029830 122.699700
v -7.310734 -27.947500 119.761700
v -6.408437 -27.163760 123.732900
v -7.310734 -27.947500 119.761700
v -5.096502 -30.848480 35.548830
v -8.289541 -27.816830 28.927500
v -6.361112 -30.818300 28.919440
v -8.199668 -26.912090 35.028800
v -9.409142 -35.030640 34.730760
v -9.116155 -32.881360 28.867750
v -10.647950 -29.867770 28.847510
v -12.075130 -29.646200 35.291490
v -8.238553 -26.593800 37.059970
v -5.414470 -31.047410 38.289530
v -9.366146 -34.795080 38.585490
v -11.931990 -29.858590 37.368180
v -11.540530 -29.494390 42.775690
v -9.210364 -32.888840 42.948860
v -8.406720 -25.542320 41.677590
v -5.850108 -29.987680 42.370700
v -4.404357 -27.666220 56.909930
v -9.292166 -21.596860 55.283640
v -14.008350 46.937530 11.544560
v -12.897660 43.478160 5.813267
v -11.512940 45.197170 14.278040
v -15.135960 46.250140 5.381963
v -9.638976 44.853740 36.733730
v -9.303078 42.952840 28.570660
v -11.210370 45.744520 29.709310
v -12.042940 40.779830 28.303860
v -14.310470 43.917920 16.387940
v -15.416550 42.237390 13.411240
v -16.751150 41.164440 8.755929
v -16.751150 41.164440 8.755929
v -16.354120 46.278090 14.920700
v -13.592170 49.036940 13.357950
v -13.552920 43.699040 29.387770
v 1.019183 34.225630 71.711000
v 0.783022 31.611690 76.768140
v 1.050886 33.682590 76.994240
v 0.783022 31.611690 76.768140
v -2.224113 33.347810 73.762250
v 1.152619 35.611470 71.214360
v 1.019183 34.225630 71.711000
v -2.687392 38.058220 75.047980
v 1.961898 42.398570 75.911060
v -1.350519 40.586300 78.325840
v -11.090300 -16.301130 85.949000
v -1.868208 -10.740620 87.839780
v -1.625309 -14.672640 92.525320
v -11.720100 -19.338580 89.214610
v -0.713590 -30.243700 127.219000
v -6.660327 -36.175390 122.566000
v -15.361420 -7.400218 129.066900
v -17.663090 -5.585701 132.033800
v -15.934590 -7.091580 132.626900
v -17.223070 -5.876642 127.806800
v -14.190020 -5.358478 128.095200
v -14.921910 -5.123666 131.844500
v -17.060480 -3.688378 129.718400
v -15.678690 -4.290625 126.713600
v -13.848410 -9.924157 127.032300
v -15.713840 -9.365005 125.567100
v -12.175270 -8.854768 125.483300
v -13.631800 -8.517916 124.071800
v -13.367610 -15.029520 125.903400
v -10.384500 -14.052990 125.763500
v -11.587230 -13.674060 127.440800
v -10.699270 -14.324690 124.003800
v -9.251896 -20.559550 127.492700
v -6.348139 -19.586200 127.907200
v -8.423637 -18.937530 129.329800
v -6.887012 -20.797600 125.242500
v -17.004430 -4.868839 136.166100
v -14.770950 -4.560598 135.135200
v -15.605610 -5.695042 135.945200
v -13.147610 -5.059525 140.870800
v -16.887990 -4.285433 132.889300
v -16.176240 -3.597102 136.616000
v -14.458750 16.421590 152.160800
v -17.127040 5.824089 143.724400
v -18.629900 7.397939 143.398700
v -16.204550 7.790634 143.054100
v -17.774470 8.655410 142.940600
v -18.080640 3.459790 137.526900
v -19.711070 4.692074 137.555100
v -16.966940 5.072622 137.103300
v -18.797310 6.195688 135.975500
v -18.435480 -0.574710 133.441800
v -20.088910 0.114352 132.117200
v -16.656300 0.652037 131.805600
v -18.394300 1.050080 130.500300
v -17.663090 -5.585701 132.033800
v -14.921910 -5.123666 131.844500
v -16.887990 -4.285433 132.889300
v -17.060480 -3.688378 129.718400
v -9.190334 -21.128990 128.926800
v -4.372931 -29.337040 127.092400
v -6.408437 -27.163760 123.732900
v -6.856919 -23.563470 130.642300
v -4.783465 -20.277650 129.697800
v -2.736243 -24.592270 126.000200
v -8.629038 -19.180920 138.327200
v -8.476230 -18.844490 130.787200
v -6.887012 -20.797600 125.242500
v -4.772044 -23.565660 123.565600
v -9.251896 -20.559550 127.492700
v -6.348139 -19.586200 127.907200
v -8.423637 -18.937530 129.329800
v -7.836882 33.942270 67.146390
v -2.429652 24.510270 56.945200
v -0.874765 10.794680 54.801570
v 0.102320 23.535320 57.459990
v -0.647629 -40.774190 121.614900
v -1.199919 5.796764 53.828620
v -0.603465 -47.733680 118.620500
v -5.065237 -41.674110 116.384000
v -4.212161 -41.599690 114.150700
v -0.250799 -36.416130 97.247630
v -0.606661 -47.847260 113.762500
v -8.433093 -31.295060 5.116491
v -11.795950 -32.319420 5.674395
v -8.499353 -31.056880 3.086055
v -6.386599 -34.072030 6.068516
v -12.385770 -32.408210 0.183965
v -9.421268 -33.443390 3.946744
v -6.578907 -39.287020 0.130109
v -6.492189 -34.596840 0.202030
v -14.891690 -42.700390 0.005990
v -15.385200 -36.016750 0.103112
v -11.164830 -37.928750 9.887328
v -11.832950 -39.943550 0.074434
v -9.628686 -34.006920 0.183693
v -11.314650 -44.028750 0.016955
v -8.550057 -30.336030 10.163000
v -6.386599 -34.072030 6.068516
v -6.549942 -31.665450 13.479600
v -8.433093 -31.295060 5.116491
v -9.745386 -32.701370 15.382210
v -6.361112 -30.818300 28.919440
v -9.116155 -32.881360 28.867750
v -10.310210 -34.502460 12.616190
v -10.623910 -35.900560 8.824924
v -10.623910 -35.900560 8.824924
v -11.401270 -30.494270 13.070830
v -8.354887 -28.265080 11.364070
v -10.647950 -29.867770 28.847510
v -8.289541 -27.816830 28.927500
v -4.404357 -27.666220 56.909930
v -1.698569 -23.002720 57.200640
v -0.505035 -34.632890 63.320320
v -12.668130 -21.068610 90.912010
v -1.547821 -15.753750 96.223720
v -13.257160 -25.404370 86.649310
v -1.500966 -15.246410 103.551400
v -4.711234 -20.578830 118.536300
v -0.795472 -18.894730 119.984800
v -1.159027 -16.123730 114.123600
v 0.102320 23.535320 57.459990
v 2.088584 42.439340 82.696860
v 1.633143 39.946960 72.193700
v -0.625684 -44.279340 119.748500
v -0.689969 -35.634930 111.874000
v -18.382160 45.012650 6.150635
v -11.795950 -32.319420 5.674395
v -12.867490 -5.162550 73.331500
v -12.323070 3.586614 71.347090
v -8.980289 -2.830837 79.739450
v -0.924160 13.828790 80.438320
v -7.324889 19.539140 76.277080
v -0.411915 20.356080 81.828710
v -7.538846 13.608840 75.829440
v -2.209998 -5.181701 88.846300
v -2.103673 -0.884164 84.340800
v -9.315951 -8.631136 83.411600
v -12.703410 -9.622958 77.503300
v -8.557530 5.186625 77.148510
v -11.224480 15.680480 71.293460
v -2.134664 -6.195468 93.917170
v -14.960170 -7.187705 69.181270
v -14.752830 -12.143790 76.649130
v -14.060860 4.042203 66.414800
v -13.966180 13.036930 66.349280
v -14.769210 21.657010 69.507590
v -11.974930 -13.221730 83.890010
v -9.069934 27.400270 78.765660
v -8.983765 4.549417 66.278470
v -14.960170 -7.187705 69.181270
v -9.599378 -6.078559 69.229230
v -14.060860 4.042203 66.414800
v -13.966180 13.036930 66.349280
v -1.767893 -12.513100 84.016840
v -9.599378 -6.078559 69.229230
v -14.752830 -12.143790 76.649130
v -4.132785 25.023400 76.026540
v -14.769210 21.657010 69.507590
v -7.972431 20.078540 69.013210
v -9.069934 27.400270 78.765660
v -2.134664 -6.195468 93.917170
v -8.257130 -10.976160 89.433140
v -11.974930 -13.221730 83.890010
v 0.536358 28.961280 84.908450
v 0.536358 28.961280 84.908450
v 0.234603 25.409150 78.780420
v -1.866860 6.114552 81.120930
v -8.257130 -10.976160 89.433140
v -14.960170 -7.187705 69.181270
v 10.979590 14.309060 5.277373
v 10.910010 14.278940 2.956864
v 13.962710 12.495770 5.931601
v 8.284052 12.048580 5.956808
v 11.304860 11.764700 3.856245
v 14.527320 12.140470 0.182965
v 8.315175 11.186620 0.027351
v 14.906190 1.553036 0.128061
v 11.929770 7.082803 9.867750
v 16.736850 8.000197 0.211217
v 12.466890 4.871019 0.089293
v 11.505320 11.131170 0.103966
v 11.135810 0.974119 0.033614
v 7.405283 6.567814 -0.022533
v 5.091338 -30.602660 60.630250
v 3.451750 -31.270430 62.958050
v 9.282300 -33.310120 72.989340
v 11.285360 -21.667090 62.938490
v 11.002740 -23.182320 71.712000
v 11.543080 -14.185930 72.765620
v 6.206958 -12.550230 61.994040
v 11.790120 -23.907930 80.068570
v 11.261100 -18.902770 80.623100
v 7.124479 -10.103200 80.628270
v 9.244600 -5.082917 66.779900
v 6.708965 -3.899590 75.564540
v 6.447858 -6.172612 59.719230
v 0.914915 -20.424720 58.100430
v 8.788869 -33.337280 81.952820
v 5.933342 3.967378 59.673180
v 9.448399 12.631890 67.599880
v 7.891139 4.087237 64.447400
v 4.548502 4.710512 73.139870
v 7.023739 15.877580 74.355580
v 13.317020 18.718970 64.798700
v 12.898320 13.023030 57.206530
v 9.861058 11.912480 65.842910
v 7.985564 7.149690 57.043510
v 4.243902 8.614224 59.218560
v 8.170122 10.376810 61.548520
v 10.655540 27.509920 72.113010
v 10.814990 19.320270 69.020200
v 13.126690 27.222940 65.764370
v 14.447470 19.726600 56.289660
v 12.754810 19.564320 47.215520
v 2.255239 20.780740 57.356330
v 3.052480 17.115370 49.774670
v 5.441635 24.442360 78.890170
v 5.448458 28.369610 77.335750
v 7.743591 31.166500 73.443840
v 4.054633 32.798560 73.771570
v 5.492543 34.258450 67.362530
v 10.825190 25.395170 56.050620
v 5.633751 28.352770 56.346730
v 10.521820 23.729980 46.205300
v 11.177620 24.012320 53.914340
v 6.121498 25.212020 52.459100
v 6.037846 24.795600 45.476430
v 6.549312 29.327610 39.140320
v 7.783644 20.184680 35.746260
v 11.237750 15.407950 47.015050
v 10.954110 24.053930 37.635970
v 7.866386 11.085310 46.936160
v 4.479748 24.111500 36.956380
v 11.054710 24.691740 35.017370
v 7.971213 20.415310 34.124520
v 4.485134 24.041930 34.029050
v 7.296390 29.371740 34.520780
v 5.840070 -27.859460 119.751000
v 5.198850 -24.621900 116.439700
v 6.131260 -28.395480 116.801000
v 6.668329 -33.388680 116.599200
v 5.930951 -32.041710 119.962400
v 5.867544 -31.527300 122.003900
v 3.249118 -23.511960 123.559100
v 4.619324 -23.769190 121.459900
v 4.933823 -27.087830 123.723700
v 5.753363 -37.669380 116.465700
v 5.259761 -33.106230 113.676900
v 4.492228 -36.831480 113.760000
v 2.241672 -28.988120 111.623100
v 2.377491 -36.343190 112.990400
v 3.185471 -28.689430 107.194100
v 4.621520 -27.233250 112.951500
v 5.708988 -23.008070 109.047200
v 8.857138 -25.869170 98.301140
v 6.266469 -31.854790 97.757770
v 4.202445 -18.322790 101.525500
v 7.703783 -21.492240 99.789600
v 3.399466 -19.230900 111.382600
v 2.920640 -21.625760 122.456500
v 1.231211 -24.565710 125.997000
v 5.366708 -36.227330 118.701100
v 5.445940 -36.669980 119.801500
v 5.626175 -34.564840 120.573000
v 3.230874 -34.488210 125.575300
v 3.397696 -30.420900 126.649700
v 5.422204 -30.300830 124.383000
v 5.649508 -32.952410 123.692400
v 2.827809 -37.775850 123.954600
v 3.586689 -38.425960 118.953800
v 4.707451 -36.454170 121.039500
v 1.880363 -46.126140 116.159400
v 1.478199 -47.031210 117.347000
v 2.823454 -39.322630 120.370900
v 1.060498 -47.415890 115.658200
v 1.780833 -45.097870 112.631800
v 2.504168 -40.140250 113.185300
v 2.933070 -29.288130 127.086400
v 1.755091 -47.091620 114.565700
v 1.391286 -46.289410 113.411600
v 4.933823 -27.087830 123.723700
v 4.619324 -23.769190 121.459900
v 5.848972 -26.941610 122.689000
v 7.739846 -24.269020 124.838100
v 6.699759 -20.630570 124.109000
v 9.939642 -21.395300 125.383900
v 13.216270 -16.736180 124.266100
v 7.244571 -19.911590 122.551300
v 10.957450 -19.798880 121.825100
v 9.939642 -21.395300 125.383900
v 9.086537 -22.637480 119.997000
v 6.981925 -26.491090 119.503000
v 7.739846 -24.269020 124.838100
v 5.848972 -26.941610 122.689000
v 5.840070 -27.859460 119.751000
v 4.933823 -27.087830 123.723700
v 5.840070 -27.859460 119.751000
v 1.431952 -14.980130 36.985070
v 2.870143 -13.353460 30.565840
v 5.595461 -11.184930 31.339060
v 5.574890 -12.155350 37.583460
v 4.348575 -19.788740 34.714000
v 4.895745 -16.017030 29.758700
v 7.246741 -13.713780 30.530940
v 8.462157 -15.836750 36.730570
v 5.619973 -12.538270 39.610460
v 1.561706 -16.141780 39.502460
v 4.203959 -20.814770 38.219000
v 8.175491 -16.661140 38.640090
v 7.611762 -18.199660 43.869750
v 4.388635 -20.606480 42.975000
v 5.824248 -13.387060 44.407600
v 0.914915 -20.424720 58.100430
v 6.193279 -14.547140 58.353920
v 2.052450 -16.846440 43.643460
v 11.067390 15.533010 11.466640
v 8.468576 14.312420 14.298450
v 8.284052 12.048580 5.956808
v 10.979590 14.309060 5.277373
v 7.816704 27.349890 32.348010
v 6.859926 20.997660 26.953960
v 9.053007 23.708310 26.198570
v 9.391353 18.833970 28.054070
v 11.217670 13.330370 16.613840
v 11.412710 10.698070 13.482270
v 11.786540 9.141353 8.800431
v 11.786540 9.141353 8.800431
v 13.482480 14.666280 14.391460
v 11.075290 17.184050 12.079840
v 4.054633 32.798560 73.771570
v 5.556649 37.178050 74.899360
v 4.901127 39.918850 78.213130
v 11.196530 21.653280 27.176860
v 7.965727 -15.120960 85.901840
v 8.961053 -18.036050 89.162800
v 5.304471 -36.095280 122.556200
v 13.629990 -7.206095 129.043400
v 14.204770 -6.889772 132.602400
v 15.911980 -5.360891 132.006500
v 15.469020 -5.657739 127.780200
v 12.429770 -5.180237 128.073600
v 13.164560 -4.935601 131.821600
v 15.280250 -3.471828 129.692100
v 13.901760 -4.092556 126.689600
v 12.147610 -9.750091 127.011200
v 14.003000 -9.166018 125.542900
v 10.457790 -8.703224 125.464900
v 11.907370 -8.346910 124.051000
v 11.733390 -14.861450 125.883000
v 8.737249 -13.924960 125.747900
v 9.937514 -13.529940 127.423300
v 9.052760 -14.192430 123.987800
v 7.694694 -20.446080 127.478900
v 4.778841 -19.511700 127.898200
v 6.847776 -18.835280 129.317400
v 5.329551 -20.715810 125.232500
v 15.250510 -4.652866 136.139900
v 13.011420 -4.374566 135.112600
v 13.862520 -5.497729 135.921200
v 11.404250 -4.895127 140.850900
v 15.120930 -4.071105 132.863200
v 14.406080 -3.392323 136.591200
v 12.445950 16.601730 152.138900
v 16.723320 7.634655 143.369900
v 15.242200 6.040829 143.698100
v 14.292360 7.994847 143.029300
v 15.850370 8.880563 142.913300
v 16.217280 3.689447 137.498900
v 17.831120 4.943454 137.524600
v 15.081410 5.287215 137.077300
v 16.894730 6.434678 135.946500
v 16.619480 -0.339986 133.413300
v 18.261380 0.371139 132.086000
v 14.821370 0.862809 131.780100
v 16.551760 1.284073 130.471900
v 15.911980 -5.360891 132.006500
v 13.164560 -4.935601 131.821600
v 15.120930 -4.071105 132.863200
v 15.280250 -3.471828 129.692100
v 7.643098 -21.016280 128.913100
v 4.933823 -27.087830 123.723700
v 2.933070 -29.288130 127.086400
v 5.345286 -23.481770 130.632400
v 3.226480 -20.224030 129.691300
v 1.231211 -24.565710 125.997000
v 7.071056 -19.075800 138.314500
v 6.901489 -18.741520 130.774700
v 5.329551 -20.715810 125.232500
v 3.249118 -23.511960 123.559100
v 7.694694 -20.446080 127.478900
v 4.778841 -19.511700 127.898200
v 6.847776 -18.835280 129.317400
v 9.547999 32.431370 66.582930
v 2.255239 20.780740 57.356330
v 2.915483 -41.551960 114.144900
v 3.773116 -41.614930 116.376800
v 5.827892 -4.041230 7.414523
v 4.749067 -4.528293 3.079796
v 8.942447 -5.353555 7.447847
v 3.574920 -6.527464 7.226672
v 5.949688 -6.764287 3.999036
v 8.874802 -5.374964 0.320438
v 4.035088 -12.964040 0.166172
v 3.325666 -8.326456 0.177154
v 12.726160 -15.244440 0.350250
v 7.497314 -11.466870 9.098814
v 12.326700 -8.553876 0.380268
v 9.328711 -12.917630 0.286677
v 6.355269 -7.325519 0.251815
v 9.358181 -17.035800 0.263287
v 6.328522 -6.616475 13.830800
v 3.355412 -9.396540 15.286070
v 3.574920 -6.527464 7.226672
v 5.827892 -4.041230 7.414523
v 5.876606 -12.177130 16.223330
v 2.870143 -13.353460 30.565840
v 4.895745 -16.017030 29.758700
v 6.440953 -11.522860 12.284780
v 7.244841 -9.391309 8.832454
v 7.244841 -9.391309 8.832454
v 8.348053 -9.782280 15.430930
v 6.276706 -6.218502 15.278410
v 7.246741 -13.713780 30.530940
v 5.595461 -11.184930 31.339060
v 0.914915 -20.424720 58.100430
v 10.127220 -19.632920 90.854910
v 11.233990 -23.861870 86.587960
v 3.140133 -20.526260 118.530000
v 13.962710 12.495770 5.931601
v 8.942447 -5.353555 7.447847
v 8.841484 -5.037793 73.458180
v 4.853534 -2.751338 79.820180
v 8.488725 3.059634 71.389850
v 6.413434 18.592020 76.384540
v 5.819007 12.687950 75.933930
v 5.246054 -7.729286 83.375570
v 8.700843 -8.297354 77.450340
v 4.787053 4.848722 77.175930
v 9.795729 14.149570 71.520100
v 11.005390 -7.038483 69.332800
v 11.041420 -10.546310 76.585320
v 10.265980 3.426220 66.464810
v 14.391600 19.104910 69.550960
v 12.215570 11.062690 66.664340
v 8.453474 -11.956560 83.839470
v 9.749300 25.753240 78.793640
v 5.221618 4.189718 66.307660
v 5.632016 -5.991028 69.318120
v 11.005390 -7.038483 69.332800
v 10.265980 3.426220 66.464810
v 12.215570 11.062690 66.664340
v 11.041420 -10.546310 76.585320
v 5.632016 -5.991028 69.318120
v 4.482440 24.269400 76.039340
v 7.425453 18.730950 69.036090
v 14.391600 19.104910 69.550960
v 9.749300 25.753240 78.793640
v 4.514368 -10.185200 89.401560
v 8.453474 -11.956560 83.839470
v 4.514368 -10.185200 89.401560
v 11.005390 -7.038483 69.332800
v -12.726030 38.332710 -0.128934
vt 0.694116 0.746393 0.000000
vt 0.669866 0.745716 0.000000
vt 0.704140 0.736275 0.000000
vt 0.669866 0.745716 0.000000
vt 0.662478 0.718490 0.000000
vt 0.680354 0.736606 0.000000
vt 0.662478 0.718490 0.000000
vt 0.571595 0.718490 0.000000
vt 0.624236 0.718490 0.000000
vt 0.622901 0.764363 0.000000
vt 0.532741 0.718490 0.000000
vt 0.675417 0.718490 0.000000
vt 0.571595 0.718490 0.000000
vt 0.113281 0.451920 0.000000
vt 0.128432 0.503095 0.000000
vt 0.049840 0.475087 0.000000
vt 0.243882 0.464739 0.000000
vt 0.207868 0.509139 0.000000
vt 0.305705 0.527116 0.000000
vt 0.349399 0.457988 0.000000
vt 0.203420 0.567931 0.000000
vt 0.376669 0.592266 0.000000
vt 0.250000 0.567861 0.000000
vt 0.414737 0.516234 0.000000
vt 0.432754 0.576816 0.000000
vt 0.409796 0.414620 0.000000
vt 0.416921 0.465579 0.000000
vt 0.351527 0.415909 0.000000
vt 0.328032 0.423787 0.000000
vt 0.014821 0.515239 0.000000
vt 0.013402 0.493192 0.000000
vt 0.079212 0.535869 0.000000
vt 0.504520 0.414919 0.000000
vt 0.534167 0.476420 0.000000
vt 0.647182 0.536299 0.000000
vt 0.543378 0.575512 0.000000
vt 0.530838 0.513714 0.000000
vt 0.685035 0.585683 0.000000
vt 0.767118 0.505720 0.000000
vt 0.644208 0.513474 0.000000
vt 0.732841 0.444952 0.000000
vt 0.656346 0.441449 0.000000
vt 0.625646 0.476050 0.000000
vt 0.632112 0.439251 0.000000
vt 0.761226 0.542948 0.000000
vt 0.851026 0.568062 0.000000
vt 0.860343 0.523994 0.000000
vt 0.817899 0.447837 0.000000
vt 0.844869 0.408945 0.000000
vt 0.767118 0.505708 0.000000
vt 0.817899 0.447837 0.000000
vt 0.799706 0.609309 0.000000
vt 0.879834 0.633707 0.000000
vt 0.867188 0.610002 0.000000
vt 0.800323 0.631943 0.000000
vt 0.898024 0.588643 0.000000
vt 0.936102 0.605633 0.000000
vt 0.986293 0.582611 0.000000
vt 0.953211 0.549529 0.000000
vt 0.899712 0.472072 0.000000
vt 0.968578 0.492471 0.000000
vt 0.907085 0.411814 0.000000
vt 0.942006 0.452985 0.000000
vt 0.892262 0.450922 0.000000
vt 0.951954 0.413882 0.000000
vt 0.984765 0.556400 0.000000
vt 0.911870 0.539646 0.000000
vt 0.977664 0.369483 0.000000
vt 0.815827 0.345798 0.000000
vt 0.892853 0.356160 0.000000
vt 0.781781 0.401019 0.000000
vt 0.892853 0.356160 0.000000
vt 0.708374 0.401866 0.000000
vt 0.830532 0.326063 0.000000
vt 0.905157 0.330760 0.000000
vt 0.905157 0.330760 0.000000
vt 0.985821 0.335878 0.000000
vt 0.312645 0.937193 0.000000
vt 0.300781 0.916016 0.000000
vt 0.343018 0.921218 0.000000
vt 0.235832 0.905578 0.000000
vt 0.252231 0.934560 0.000000
vt 0.252776 0.947748 0.000000
vt 0.343280 0.968321 0.000000
vt 0.313451 0.965012 0.000000
vt 0.356847 0.953484 0.000000
vt 0.197640 0.902516 0.000000
vt 0.241475 0.890782 0.000000
vt 0.199185 0.885469 0.000000
vt 0.247712 0.863516 0.000000
vt 0.291605 0.878369 0.000000
vt 0.222656 0.863281 0.000000
vt 0.199199 0.876415 0.000000
vt 0.286754 0.848303 0.000000
vt 0.238231 0.852853 0.000000
vt 0.222173 0.836514 0.000000
vt 0.364206 0.862710 0.000000
vt 0.312038 0.894116 0.000000
vt 0.328545 0.808526 0.000000
vt 0.255884 0.800011 0.000000
vt 0.447305 0.837880 0.000000
vt 0.442231 0.884721 0.000000
vt 0.383239 0.828265 0.000000
vt 0.410101 0.990995 0.000000
vt 0.342586 0.977905 0.000000
vt 0.387751 0.964674 0.000000
vt 0.205296 0.923872 0.000000
vt 0.221167 0.935835 0.000000
vt 0.197711 0.931227 0.000000
vt 0.216165 0.975189 0.000000
vt 0.265379 0.962196 0.000000
vt 0.266625 0.979275 0.000000
vt 0.237098 0.959902 0.000000
vt 0.139267 0.979750 0.000000
vt 0.169801 0.964593 0.000000
vt 0.209961 0.995366 0.000000
vt 0.164063 0.923828 0.000000
vt 0.197888 0.937121 0.000000
vt 0.053324 0.905722 0.000000
vt 0.067323 0.896164 0.000000
vt 0.142770 0.932897 0.000000
vt 0.014445 0.891668 0.000000
vt 0.043338 0.891733 0.000000
vt 0.011464 0.903004 0.000000
vt 0.078125 0.853516 0.000000
vt 0.165840 0.873861 0.000000
vt 0.078125 0.867188 0.000000
vt 0.136719 0.857422 0.000000
vt 0.320313 0.996094 0.000000
vt 0.310095 0.979235 0.000000
vt 0.014445 0.884303 0.000000
vt 0.052601 0.882816 0.000000
vt 0.052282 0.871956 0.000000
vt 0.969980 0.917894 0.000000
vt 0.980044 0.924530 0.000000
vt 0.953219 0.926556 0.000000
vt 0.996094 0.949219 0.000000
vt 0.986154 0.956241 0.000000
vt 0.984375 0.970703 0.000000
vt 0.925457 0.997895 0.000000
vt 0.965272 0.958346 0.000000
vt 0.941536 0.967091 0.000000
vt 0.887370 0.971847 0.000000
vt 0.938352 0.946265 0.000000
vt 0.911733 0.921685 0.000000
vt 0.871768 0.951986 0.000000
vt 0.866834 0.930148 0.000000
vt 0.896097 0.913324 0.000000
vt 0.857762 0.916032 0.000000
vt 0.924088 0.914674 0.000000
vt 0.251165 0.308708 0.000000
vt 0.323067 0.274281 0.000000
vt 0.251118 0.277476 0.000000
vt 0.332216 0.304804 0.000000
vt 0.148659 0.299480 0.000000
vt 0.185110 0.272719 0.000000
vt 0.251118 0.277476 0.000000
vt 0.251165 0.308708 0.000000
vt 0.329855 0.332224 0.000000
vt 0.241089 0.330318 0.000000
vt 0.138583 0.325228 0.000000
vt 0.241089 0.330318 0.000000
vt 0.241260 0.358366 0.000000
vt 0.147858 0.355009 0.000000
vt 0.304334 0.362126 0.000000
vt 0.241260 0.358366 0.000000
vt 0.243413 0.450077 0.000000
vt 0.321081 0.426059 0.000000
vt 0.922087 0.099778 0.000000
vt 0.836477 0.048388 0.000000
vt 0.898438 0.130859 0.000000
vt 0.896158 0.025369 0.000000
vt 0.981006 0.308727 0.000000
vt 0.916573 0.277691 0.000000
vt 0.978975 0.262847 0.000000
vt 0.850904 0.274738 0.000000
vt 0.851397 0.157466 0.000000
vt 0.814807 0.128346 0.000000
vt 0.771516 0.083014 0.000000
vt 0.652505 0.764363 0.000000
vt 0.898438 0.130859 0.000000
vt 0.978975 0.125163 0.000000
vt 0.916573 0.277691 0.000000
vt 0.982627 0.602404 0.000000
vt 0.931538 0.626090 0.000000
vt 0.036821 0.815615 0.000000
vt 0.013384 0.815615 0.000000
vt 0.025103 0.792177 0.000000
vt 0.071978 0.776552 0.000000
vt 0.048540 0.778505 0.000000
vt 0.091509 0.801943 0.000000
vt 0.173540 0.811708 0.000000
vt 0.130571 0.825380 0.000000
vt 0.283893 0.610420 0.000000
vt 0.334961 0.641438 0.000000
vt 0.288893 0.639343 0.000000
vt 0.239436 0.625226 0.000000
vt 0.265625 0.996094 0.000000
vt 0.199605 0.949541 0.000000
vt 0.934042 0.786964 0.000000
vt 0.955094 0.817786 0.000000
vt 0.934042 0.822189 0.000000
vt 0.955094 0.782561 0.000000
vt 0.955094 0.782561 0.000000
vt 0.955094 0.817786 0.000000
vt 0.988778 0.802375 0.000000
vt 0.980357 0.769352 0.000000
vt 0.904569 0.769352 0.000000
vt 0.921411 0.758344 0.000000
vt 0.921411 0.758344 0.000000
vt 0.934042 0.742933 0.000000
vt 0.849834 0.753941 0.000000
vt 0.849834 0.753941 0.000000
vt 0.854044 0.769352 0.000000
vt 0.849834 0.736328 0.000000
vt 0.765625 0.760545 0.000000
vt 0.765625 0.760545 0.000000
vt 0.782467 0.778158 0.000000
vt 0.765625 0.740731 0.000000
vt 0.955094 0.855213 0.000000
vt 0.955094 0.855213 0.000000
vt 0.942463 0.850810 0.000000
vt 0.946673 0.897043 0.000000
vt 0.976146 0.830996 0.000000
vt 0.971936 0.861818 0.000000
vt 0.915524 0.896969 0.000000
vt 0.811814 0.868145 0.000000
vt 0.833911 0.862912 0.000000
vt 0.833911 0.862912 0.000000
vt 0.843553 0.855543 0.000000
vt 0.762150 0.832473 0.000000
vt 0.778488 0.827756 0.000000
vt 0.778488 0.827756 0.000000
vt 0.796300 0.818029 0.000000
vt 0.695868 0.803612 0.000000
vt 0.703635 0.789906 0.000000
vt 0.703635 0.789906 0.000000
vt 0.705643 0.776716 0.000000
vt 0.627298 0.801624 0.000000
vt 0.627298 0.801624 0.000000
vt 0.653146 0.809066 0.000000
vt 0.642297 0.782391 0.000000
vt 0.883433 0.824219 0.000000
vt 0.789489 0.806639 0.000000
vt 0.795642 0.791815 0.000000
vt 0.859996 0.833984 0.000000
vt 0.883433 0.824219 0.000000
vt 0.793589 0.789063 0.000000
vt 0.914683 0.876953 0.000000
vt 0.914683 0.832031 0.000000
vt 0.883433 0.785156 0.000000
vt 0.813121 0.781250 0.000000
vt 0.891246 0.802734 0.000000
vt 0.891246 0.802734 0.000000
vt 0.922496 0.812500 0.000000
vt 0.908356 0.538530 0.000000
vt 0.676475 0.407670 0.000000
vt 0.628613 0.411381 0.000000
vt 0.675027 0.396986 0.000000
vt 0.094560 0.951223 0.000000
vt 0.568503 0.420112 0.000000
vt 0.011719 0.914063 0.000000
vt 0.136510 0.902014 0.000000
vt 0.121121 0.881690 0.000000
vt 0.169719 0.796062 0.000000
vt 0.015625 0.873047 0.000000
vt 0.694116 0.746393 0.000000
vt 0.669866 0.745716 0.000000
vt 0.704140 0.736275 0.000000
vt 0.669866 0.745716 0.000000
vt 0.662478 0.718490 0.000000
vt 0.680354 0.736606 0.000000
vt 0.624236 0.718490 0.000000
vt 0.662478 0.718490 0.000000
vt 0.571595 0.718490 0.000000
vt 0.624236 0.718490 0.000000
vt 0.622901 0.764363 0.000000
vt 0.532741 0.718490 0.000000
vt 0.675417 0.718490 0.000000
vt 0.571595 0.718490 0.000000
vt 0.922087 0.099778 0.000000
vt 0.836477 0.048388 0.000000
vt 0.898438 0.130859 0.000000
vt 0.896158 0.025369 0.000000
vt 0.851397 0.157466 0.000000
vt 0.915127 0.263584 0.000000
vt 0.851155 0.261258 0.000000
vt 0.814807 0.128346 0.000000
vt 0.771516 0.083014 0.000000
vt 0.652505 0.764363 0.000000
vt 0.898438 0.130859 0.000000
vt 0.978975 0.125163 0.000000
vt 0.915127 0.263584 0.000000
vt 0.978975 0.256482 0.000000
vt 0.050781 0.432841 0.000000
vt 0.012859 0.432841 0.000000
vt 0.012859 0.472094 0.000000
vt 0.186393 0.644529 0.000000
vt 0.290432 0.654201 0.000000
vt 0.157015 0.575937 0.000000
vt 0.505169 0.852292 0.000000
vt 0.402344 0.939453 0.000000
vt 0.455056 0.956560 0.000000
vt 0.493766 0.901072 0.000000
vt 0.758298 0.512634 0.000000
vt 0.169634 0.858583 0.000000
vt 0.138384 0.784365 0.000000
vt 0.053914 0.934865 0.000000
vt 0.199219 0.863281 0.000000
vt 0.836477 0.048388 0.000000
vt 0.836477 0.048388 0.000000
vt 0.148556 0.154774 0.000000
vt 0.306254 0.147214 0.000000
vt 0.178115 0.198698 0.000000
vt 0.440036 0.237645 0.000000
vt 0.505557 0.192839 0.000000
vt 0.529525 0.246680 0.000000
vt 0.424124 0.188150 0.000000
vt 0.129013 0.268339 0.000000
vt 0.198636 0.242792 0.000000
vt 0.087310 0.206559 0.000000
vt 0.089827 0.175564 0.000000
vt 0.309982 0.189085 0.000000
vt 0.458183 0.157395 0.000000
vt 0.080538 0.289325 0.000000
vt 0.136932 0.130648 0.000000
vt 0.053429 0.159996 0.000000
vt 0.313132 0.117706 0.000000
vt 0.410354 0.122578 0.000000
vt 0.520195 0.151216 0.000000
vt 0.033183 0.214418 0.000000
vt 0.594957 0.200956 0.000000
vt 0.773438 0.650391 0.000000
vt 0.742188 0.662109 0.000000
vt 0.742188 0.650391 0.000000
vt 0.773438 0.662109 0.000000
vt 0.816406 0.662109 0.000000
vt 0.004842 0.158055 0.000000
vt 0.005492 0.143590 0.000000
vt 0.033876 0.140683 0.000000
vt 0.917969 0.640625 0.000000
vt 0.855469 0.662109 0.000000
vt 0.855469 0.640625 0.000000
vt 0.920025 0.662109 0.000000
vt 0.033330 0.183691 0.000000
vt 0.033330 0.168536 0.000000
vt 0.033330 0.153428 0.000000
vt 0.630146 0.261230 0.000000
vt 0.992188 0.662109 0.000000
vt 0.976563 0.640625 0.000000
vt 0.318402 0.235469 0.000000
vt 0.045653 0.255788 0.000000
vt 0.005308 0.136840 0.000000
vt 0.694116 0.746393 0.000000
vt 0.704140 0.736275 0.000000
vt 0.669866 0.745716 0.000000
vt 0.669866 0.745716 0.000000
vt 0.680354 0.736606 0.000000
vt 0.662478 0.718490 0.000000
vt 0.662478 0.718490 0.000000
vt 0.571595 0.718490 0.000000
vt 0.622901 0.764363 0.000000
vt 0.624236 0.718490 0.000000
vt 0.532741 0.718490 0.000000
vt 0.675417 0.718490 0.000000
vt 0.571595 0.718490 0.000000
vt 0.624236 0.718490 0.000000
vt 0.113281 0.451920 0.000000
vt 0.049840 0.475087 0.000000
vt 0.128432 0.503095 0.000000
vt 0.243882 0.464739 0.000000
vt 0.207868 0.509139 0.000000
vt 0.305705 0.527116 0.000000
vt 0.349399 0.457988 0.000000
vt 0.203420 0.567931 0.000000
vt 0.250000 0.567861 0.000000
vt 0.376669 0.592266 0.000000
vt 0.414737 0.516234 0.000000
vt 0.432754 0.576816 0.000000
vt 0.416921 0.465579 0.000000
vt 0.328032 0.423787 0.000000
vt 0.079212 0.535869 0.000000
vt 0.534167 0.476420 0.000000
vt 0.647182 0.536299 0.000000
vt 0.530838 0.513714 0.000000
vt 0.543378 0.575512 0.000000
vt 0.685035 0.585683 0.000000
vt 0.767118 0.505720 0.000000
vt 0.732841 0.444952 0.000000
vt 0.644208 0.513474 0.000000
vt 0.656346 0.441449 0.000000
vt 0.632112 0.439251 0.000000
vt 0.625646 0.476050 0.000000
vt 0.851026 0.568062 0.000000
vt 0.761226 0.542948 0.000000
vt 0.860343 0.523994 0.000000
vt 0.817899 0.447837 0.000000
vt 0.844869 0.408945 0.000000
vt 0.767118 0.505708 0.000000
vt 0.817899 0.447837 0.000000
vt 0.799706 0.609309 0.000000
vt 0.867188 0.610002 0.000000
vt 0.898024 0.588643 0.000000
vt 0.936102 0.605633 0.000000
vt 0.953211 0.549529 0.000000
vt 0.899712 0.472072 0.000000
vt 0.968578 0.492471 0.000000
vt 0.907085 0.411814 0.000000
vt 0.892262 0.450922 0.000000
vt 0.942006 0.452985 0.000000
vt 0.951954 0.413882 0.000000
vt 0.977664 0.369483 0.000000
vt 0.815827 0.345798 0.000000
vt 0.781781 0.401019 0.000000
vt 0.892853 0.356160 0.000000
vt 0.708374 0.401866 0.000000
vt 0.892853 0.356160 0.000000
vt 0.905157 0.330760 0.000000
vt 0.830532 0.326063 0.000000
vt 0.905157 0.330760 0.000000
vt 0.985821 0.335878 0.000000
vt 0.312645 0.937193 0.000000
vt 0.343018 0.921218 0.000000
vt 0.300781 0.916016 0.000000
vt 0.235832 0.905578 0.000000
vt 0.252231 0.934560 0.000000
vt 0.252776 0.947748 0.000000
vt 0.343280 0.968321 0.000000
vt 0.356847 0.953484 0.000000
vt 0.313451 0.965012 0.000000
vt 0.197640 0.902516 0.000000
vt 0.241475 0.890782 0.000000
vt 0.199185 0.885469 0.000000
vt 0.291605 0.878369 0.000000
vt 0.199199 0.876415 0.000000
vt 0.286754 0.848303 0.000000
vt 0.312038 0.894116 0.000000
vt 0.364206 0.862710 0.000000
vt 0.328545 0.808526 0.000000
vt 0.255884 0.800011 0.000000
vt 0.447305 0.837880 0.000000
vt 0.383239 0.828265 0.000000
vt 0.442231 0.884721 0.000000
vt 0.387751 0.964674 0.000000
vt 0.342586 0.977905 0.000000
vt 0.205296 0.923872 0.000000
vt 0.197711 0.931227 0.000000
vt 0.221167 0.935835 0.000000
vt 0.216165 0.975189 0.000000
vt 0.266625 0.979275 0.000000
vt 0.265379 0.962196 0.000000
vt 0.237098 0.959902 0.000000
vt 0.169801 0.964593 0.000000
vt 0.164063 0.923828 0.000000
vt 0.197888 0.937121 0.000000
vt 0.067323 0.896164 0.000000
vt 0.053324 0.905722 0.000000
vt 0.142770 0.932897 0.000000
vt 0.043338 0.891733 0.000000
vt 0.078125 0.867188 0.000000
vt 0.165840 0.873861 0.000000
vt 0.310095 0.979235 0.000000
vt 0.052601 0.882816 0.000000
vt 0.052282 0.871956 0.000000
vt 0.969980 0.917894 0.000000
vt 0.953219 0.926556 0.000000
vt 0.980044 0.924530 0.000000
vt 0.996094 0.949219 0.000000
vt 0.986154 0.956241 0.000000
vt 0.984375 0.970703 0.000000
vt 0.925457 0.997895 0.000000
vt 0.965272 0.958346 0.000000
vt 0.941536 0.967091 0.000000
vt 0.887370 0.971847 0.000000
vt 0.938352 0.946265 0.000000
vt 0.911733 0.921685 0.000000
vt 0.871768 0.951986 0.000000
vt 0.866834 0.930148 0.000000
vt 0.896097 0.913324 0.000000
vt 0.857762 0.916032 0.000000
vt 0.924088 0.914674 0.000000
vt 0.251165 0.308708 0.000000
vt 0.251118 0.277476 0.000000
vt 0.323067 0.274281 0.000000
vt 0.332216 0.304804 0.000000
vt 0.148659 0.299480 0.000000
vt 0.185110 0.272719 0.000000
vt 0.251118 0.277476 0.000000
vt 0.251165 0.308708 0.000000
vt 0.329855 0.332224 0.000000
vt 0.241089 0.330318 0.000000
vt 0.138583 0.325228 0.000000
vt 0.241089 0.330318 0.000000
vt 0.241260 0.358366 0.000000
vt 0.147858 0.355009 0.000000
vt 0.304334 0.362126 0.000000
vt 0.243413 0.450077 0.000000
vt 0.321081 0.426059 0.000000
vt 0.241260 0.358366 0.000000
vt 0.922087 0.099778 0.000000
vt 0.898438 0.130859 0.000000
vt 0.836477 0.048388 0.000000
vt 0.896158 0.025369 0.000000
vt 0.981006 0.308727 0.000000
vt 0.916573 0.277691 0.000000
vt 0.978975 0.262847 0.000000
vt 0.850904 0.274738 0.000000
vt 0.851397 0.157466 0.000000
vt 0.814807 0.128346 0.000000
vt 0.771516 0.083014 0.000000
vt 0.652505 0.764363 0.000000
vt 0.898438 0.130859 0.000000
vt 0.978975 0.125163 0.000000
vt 0.025103 0.792177 0.000000
vt 0.091509 0.801943 0.000000
vt 0.130571 0.825380 0.000000
vt 0.916573 0.277691 0.000000
vt 0.283893 0.610420 0.000000
vt 0.239436 0.625226 0.000000
vt 0.199605 0.949541 0.000000
vt 0.934042 0.786964 0.000000
vt 0.934042 0.822189 0.000000
vt 0.955094 0.817786 0.000000
vt 0.955094 0.782561 0.000000
vt 0.955094 0.782561 0.000000
vt 0.955094 0.817786 0.000000
vt 0.988778 0.802375 0.000000
vt 0.980357 0.769352 0.000000
vt 0.904569 0.769352 0.000000
vt 0.921411 0.758344 0.000000
vt 0.921411 0.758344 0.000000
vt 0.934042 0.742933 0.000000
vt 0.849834 0.753941 0.000000
vt 0.849834 0.753941 0.000000
vt 0.854044 0.769352 0.000000
vt 0.849834 0.736328 0.000000
vt 0.765625 0.760545 0.000000
vt 0.765625 0.760545 0.000000
vt 0.782467 0.778158 0.000000
vt 0.765625 0.740731 0.000000
vt 0.955094 0.855213 0.000000
vt 0.955094 0.855213 0.000000
vt 0.942463 0.850810 0.000000
vt 0.946673 0.897043 0.000000
vt 0.976146 0.830996 0.000000
vt 0.971936 0.861818 0.000000
vt 0.915524 0.896969 0.000000
vt 0.833911 0.862912 0.000000
vt 0.811814 0.868145 0.000000
vt 0.833911 0.862912 0.000000
vt 0.843553 0.855543 0.000000
vt 0.762150 0.832473 0.000000
vt 0.778488 0.827756 0.000000
vt 0.778488 0.827756 0.000000
vt 0.796300 0.818029 0.000000
vt 0.695868 0.803612 0.000000
vt 0.703635 0.789906 0.000000
vt 0.703635 0.789906 0.000000
vt 0.705643 0.776716 0.000000
vt 0.627298 0.801624 0.000000
vt 0.627298 0.801624 0.000000
vt 0.653146 0.809066 0.000000
vt 0.642297 0.782391 0.000000
vt 0.883433 0.824219 0.000000
vt 0.795642 0.791815 0.000000
vt 0.789489 0.806639 0.000000
vt 0.859996 0.833984 0.000000
vt 0.883433 0.824219 0.000000
vt 0.793589 0.789063 0.000000
vt 0.914683 0.876953 0.000000
vt 0.914683 0.832031 0.000000
vt 0.883433 0.785156 0.000000
vt 0.813121 0.781250 0.000000
vt 0.891246 0.802734 0.000000
vt 0.891246 0.802734 0.000000
vt 0.922496 0.812500 0.000000
vt 0.908356 0.538530 0.000000
vt 0.676475 0.407670 0.000000
vt 0.121121 0.881690 0.000000
vt 0.136510 0.902014 0.000000
vt 0.694116 0.746393 0.000000
vt 0.704140 0.736275 0.000000
vt 0.669866 0.745716 0.000000
vt 0.669866 0.745716 0.000000
vt 0.680354 0.736606 0.000000
vt 0.662478 0.718490 0.000000
vt 0.624236 0.718490 0.000000
vt 0.662478 0.718490 0.000000
vt 0.571595 0.718490 0.000000
vt 0.622901 0.764363 0.000000
vt 0.624236 0.718490 0.000000
vt 0.532741 0.718490 0.000000
vt 0.675417 0.718490 0.000000
vt 0.571595 0.718490 0.000000
vt 0.922087 0.099778 0.000000
vt 0.898438 0.130859 0.000000
vt 0.836477 0.048388 0.000000
vt 0.896158 0.025369 0.000000
vt 0.851397 0.157466 0.000000
vt 0.915127 0.263584 0.000000
vt 0.851155 0.261258 0.000000
vt 0.814807 0.128346 0.000000
vt 0.771516 0.083014 0.000000
vt 0.652505 0.764363 0.000000
vt 0.898438 0.130859 0.000000
vt 0.978975 0.125163 0.000000
vt 0.915127 0.263584 0.000000
vt 0.978975 0.256482 0.000000
vt 0.050781 0.432841 0.000000
vt 0.186393 0.644529 0.000000
vt 0.157015 0.575937 0.000000
vt 0.402344 0.939453 0.000000
vt 0.836477 0.048388 0.000000
vt 0.836477 0.048388 0.000000
vt 0.148556 0.154774 0.000000
vt 0.178115 0.198698 0.000000
vt 0.306254 0.147214 0.000000
vt 0.505557 0.192839 0.000000
vt 0.424124 0.188150 0.000000
vt 0.087310 0.206559 0.000000
vt 0.089827 0.175564 0.000000
vt 0.309982 0.189085 0.000000
vt 0.458183 0.157395 0.000000
vt 0.136932 0.130648 0.000000
vt 0.053429 0.159996 0.000000
vt 0.313132 0.117706 0.000000
vt 0.520195 0.151216 0.000000
vt 0.410354 0.122578 0.000000
vt 0.033183 0.214418 0.000000
vt 0.594957 0.200956 0.000000
vt 0.773438 0.650391 0.000000
vt 0.742188 0.650391 0.000000
vt 0.742188 0.662109 0.000000
vt 0.773438 0.662109 0.000000
vt 0.816406 0.662109 0.000000
vt 0.033876 0.140683 0.000000
vt 0.005492 0.143590 0.000000
vt 0.917969 0.640625 0.000000
vt 0.855469 0.640625 0.000000
vt 0.855469 0.662109 0.000000
vt 0.920025 0.662109 0.000000
vt 0.033330 0.168536 0.000000
vt 0.033330 0.153428 0.000000
vt 0.045653 0.255788 0.000000
vt 0.005308 0.136840 0.000000
vt 0.624236 0.718490 0.000000
usemtl Material_1
f 70/70 69/69 71/71
f 69/69 72/72 71/71
f 73/73 70/70 74/74
f 75/75 74/74 72/72
f 77/77 76/76 78/78
f 78/78 70/70 77/77
f 70/70 73/73 77/77
f 77/77 73/73 76/76
f 76/76 73/73 79/79
f 73/73 80/80 79/79
f 75/75 79/79 80/80
f 81/81 79/79 75/75
f 73/73 74/74 80/80
f 75/75 80/80 74/74
f 81/81 78/78 79/79
f 76/76 79/79 78/78
f 74/74 71/71 72/72
f 74/74 70/70 71/71
f 83/83 82/82 84/84
f 85/85 82/82 83/83
f 85/85 86/86 87/87
f 87/87 88/88 85/85
f 89/89 86/86 83/83
f 90/90 87/87 91/91
f 90/90 92/92 87/87
f 92/92 90/90 93/93
f 88/88 87/87 92/92
f 95/95 94/94 96/96
f 96/96 97/97 88/88
f 98/98 83/83 99/99
f 83/83 98/98 100/100
f 101/101 95/95 102/102
f 95/95 101/101 94/94
f 104/104 103/103 105/105
f 103/103 104/104 106/106
f 108/108 107/107 109/109
f 111/111 110/110 112/112
f 113/113 106/106 114/114
f 113/113 114/114 115/115
f 113/113 115/115 107/107
f 115/115 116/116 107/107
f 109/109 116/116 117/117
f 119/119 118/118 110/110
f 114/114 106/106 120/120
f 120/120 121/121 122/122
f 121/121 120/120 123/123
f 121/121 124/124 122/122
f 124/124 121/121 125/125
f 125/125 126/126 127/127
f 128/128 127/127 129/129
f 131/131 130/130 132/132
f 130/130 131/131 133/133
f 129/129 127/127 134/134
f 118/118 129/129 135/135
f 118/118 119/119 131/131
f 133/133 131/131 119/119
f 130/130 133/133 136/136
f 138/138 137/137 139/139
f 140/140 119/119 141/141
f 133/133 140/140 136/136
f 142/142 138/138 143/143
f 138/138 142/142 137/137
f 142/142 140/140 137/137
f 140/140 142/142 144/144
f 145/145 136/136 140/140
f 140/140 144/144 145/145
f 147/147 146/146 148/148
f 146/146 149/149 150/150
f 149/149 146/146 147/147
f 150/150 151/151 146/146
f 153/153 152/152 154/154
f 156/156 155/155 149/149
f 155/155 156/156 157/157
f 158/158 156/156 159/159
f 158/158 160/160 156/156
f 161/161 156/156 160/160
f 156/156 161/161 157/157
f 163/163 162/162 164/164
f 165/165 162/162 166/166
f 162/162 167/167 168/168
f 167/167 162/162 165/165
f 170/170 169/169 171/171
f 173/173 172/172 174/174
f 176/176 175/175 177/177
f 179/179 178/178 180/180
f 178/178 179/179 181/181
f 182/182 178/178 183/183
f 178/178 182/182 184/184
f 177/177 185/185 186/186
f 187/187 185/185 188/188
f 185/185 187/187 189/189
f 191/191 190/190 192/192
f 194/194 193/193 195/195
f 193/193 194/194 196/196
f 198/198 197/197 173/173
f 199/199 191/191 200/200
f 191/191 199/199 190/190
f 195/195 193/193 201/201
f 203/203 202/202 204/204
f 205/205 203/203 204/204
f 204/204 206/206 205/205
f 207/207 205/205 206/206
f 208/208 207/207 206/206
f 206/206 209/209 208/208
f 208/208 209/209 210/210
f 208/208 210/210 211/211
f 206/206 204/204 209/209
f 213/213 212/212 204/204
f 210/210 209/209 212/212
f 212/212 211/211 210/210
f 211/211 212/212 214/214
f 212/212 213/213 214/214
f 216/216 215/215 213/213
f 215/215 216/216 217/217
f 218/218 213/213 204/204
f 220/220 219/219 221/221
f 219/219 220/220 222/222
f 221/221 223/223 224/224
f 223/223 225/225 224/224
f 222/222 225/225 226/226
f 225/225 222/222 220/220
f 219/219 227/227 228/228
f 227/227 219/219 222/222
f 229/229 219/219 228/228
f 219/219 229/229 223/223
f 229/229 226/226 223/223
f 226/226 230/230 227/227
f 229/229 231/231 230/230
f 231/231 229/229 232/232
f 233/233 230/230 231/231
f 230/230 233/233 227/227
f 235/235 234/234 236/236
f 234/234 235/235 82/82
f 82/82 231/231 232/232
f 231/231 82/82 85/85
f 85/85 88/88 236/236
f 238/238 237/237 239/239
f 237/237 238/238 240/240
f 241/241 144/144 242/242
f 242/242 243/243 241/241
f 144/144 244/244 242/242
f 244/244 144/144 142/142
f 242/242 245/245 239/239
f 245/245 242/242 244/244
f 246/246 238/238 239/239
f 238/238 246/246 247/247
f 248/248 78/78 72/72
f 247/247 246/246 249/249
f 237/237 249/249 250/250
f 241/241 143/143 145/145
f 251/251 244/244 143/143
f 252/252 126/126 125/125
f 121/121 253/253 125/125
f 255/255 254/254 256/256
f 256/256 257/257 258/258
f 257/257 256/256 259/259
f 260/260 259/259 261/261
f 165/165 171/171 167/167
f 248/248 70/70 78/78
f 245/245 251/251 249/249
f 251/251 245/245 244/244
f 249/249 251/251 243/243
f 243/243 239/239 250/250
f 239/239 243/243 242/242
f 91/91 87/87 86/86
f 91/91 86/86 89/89
f 91/91 262/262 90/90
f 263/263 262/262 264/264
f 262/262 263/263 90/90
f 264/264 262/262 265/265
f 262/262 91/91 265/265
f 265/265 91/91 89/89
f 266/266 198/198 180/180
f 198/198 266/266 197/197
f 151/151 267/267 181/181
f 176/176 186/186 267/267
f 150/150 176/176 151/151
f 149/149 155/155 175/175
f 177/177 175/175 185/185
f 176/176 177/177 186/186
f 179/179 198/198 153/153
f 198/198 179/179 180/180
f 176/176 267/267 151/151
f 269/269 268/268 270/270
f 268/268 269/269 271/271
f 270/270 272/272 273/273
f 272/272 270/270 268/268
f 274/274 273/273 272/272
f 274/274 271/271 269/269
f 271/271 274/274 275/275
f 271/271 276/276 268/268
f 276/276 271/271 277/277
f 272/272 268/268 276/276
f 275/275 272/272 278/278
f 275/275 277/277 271/271
f 277/277 275/275 279/279
f 276/276 277/277 280/280
f 276/276 281/281 278/278
f 281/281 276/276 282/282
f 278/278 283/283 279/279
f 283/283 278/278 281/281
f 279/279 280/280 277/277
f 280/280 279/279 283/283
f 282/282 280/280 284/284
f 282/282 285/285 281/281
f 285/285 282/282 286/286
f 283/283 281/281 285/285
f 280/280 283/283 287/287
f 269/269 270/270 288/288
f 270/270 273/273 289/289
f 288/288 290/290 291/291
f 290/290 289/289 291/291
f 288/288 292/292 269/269
f 292/292 288/288 293/293
f 293/293 288/288 291/291
f 291/291 289/289 293/293
f 295/295 294/294 296/296
f 297/297 294/294 295/295
f 298/298 294/294 297/297
f 296/296 294/294 298/298
f 296/296 299/299 295/295
f 299/299 296/296 300/300
f 295/295 301/301 297/297
f 301/301 295/295 299/299
f 298/298 297/297 301/301
f 298/298 300/300 296/296
f 300/300 298/298 302/302
f 300/300 303/303 299/299
f 303/303 300/300 304/304
f 301/301 299/299 303/303
f 302/302 301/301 305/305
f 302/302 304/304 300/300
f 304/304 302/302 306/306
f 303/303 304/304 307/307
f 303/303 308/308 305/305
f 308/308 303/303 309/309
f 305/305 310/310 306/306
f 310/310 305/305 308/308
f 304/304 306/306 310/310
f 273/273 293/293 289/289
f 293/293 273/273 292/292
f 312/312 311/311 313/313
f 311/311 312/312 314/314
f 312/312 315/315 314/314
f 315/315 312/312 316/316
f 311/311 314/314 317/317
f 314/314 315/315 317/317
f 318/318 311/311 317/317
f 317/317 315/315 318/318
f 313/313 319/319 320/320
f 319/319 313/313 321/321
f 320/320 319/319 322/322
f 323/323 311/311 318/318
f 311/311 323/323 321/321
f 311/311 321/321 313/313
f 315/315 323/323 318/318
f 323/323 315/315 322/322
f 315/315 316/316 322/322
f 92/92 93/93 104/104
f 178/178 266/266 180/180
f 266/266 178/178 184/184
f 127/127 124/124 125/125
f 124/124 127/127 324/324
f 249/249 237/237 240/240
f 239/239 237/237 250/250
f 245/245 249/249 246/246
f 239/239 245/245 246/246
f 145/145 143/143 138/138
f 251/251 143/143 241/241
f 241/241 243/243 251/251
f 144/144 241/241 145/145
f 119/119 140/140 133/133
f 112/112 110/110 325/325
f 326/326 112/112 327/327
f 107/107 103/103 113/113
f 103/103 107/107 108/108
f 108/108 109/109 111/111
f 141/141 109/109 139/139
f 109/109 141/141 110/110
f 139/139 137/137 141/141
f 103/103 106/106 113/113
f 189/189 183/183 267/267
f 189/189 182/182 183/183
f 182/182 189/189 328/328
f 175/175 155/155 185/185
f 226/226 229/229 230/230
f 226/226 227/227 222/222
f 233/233 228/228 227/227
f 228/228 233/233 234/234
f 234/234 229/229 228/228
f 229/229 234/234 232/232
f 112/112 329/329 102/102
f 102/102 108/108 111/111
f 108/108 102/102 105/105
f 103/103 108/108 105/105
f 111/111 109/109 110/110
f 138/138 139/139 117/117
f 95/95 88/88 92/92
f 102/102 95/95 105/105
f 101/101 102/102 329/329
f 92/92 104/104 105/105
f 187/187 192/192 330/330
f 191/191 192/192 187/187
f 331/331 157/157 332/332
f 157/157 331/331 155/155
f 161/161 194/194 157/157
f 150/150 175/175 176/176
f 149/149 175/175 150/150
f 162/162 168/168 333/333
f 188/188 191/191 187/187
f 332/332 200/200 331/331
f 200/200 332/332 201/201
f 200/200 334/334 199/199
f 334/334 200/200 201/201
f 148/148 146/146 154/154
f 165/165 148/148 170/170
f 201/201 193/193 334/334
f 233/233 231/231 85/85
f 85/85 236/236 233/233
f 88/88 235/235 236/236
f 336/336 335/335 337/337
f 335/335 338/338 337/337
f 339/339 336/336 340/340
f 338/338 341/341 342/342
f 342/342 340/340 338/338
f 344/344 343/343 345/345
f 345/345 336/336 344/344
f 336/336 339/339 344/344
f 344/344 339/339 343/343
f 343/343 339/339 346/346
f 339/339 347/347 346/346
f 342/342 346/346 347/347
f 348/348 346/346 342/342
f 341/341 348/348 342/342
f 339/339 340/340 347/347
f 342/342 347/347 340/340
f 348/348 345/345 346/346
f 343/343 346/346 345/345
f 340/340 337/337 338/338
f 340/340 336/336 337/337
f 345/345 341/341 338/338
f 341/341 345/345 348/348
f 350/350 349/349 351/351
f 349/349 350/350 352/352
f 354/354 353/353 351/351
f 353/353 354/354 355/355
f 356/356 350/350 351/351
f 350/350 356/356 357/357
f 358/358 345/345 338/338
f 357/357 356/356 359/359
f 349/349 359/359 360/360
f 358/358 336/336 345/345
f 353/353 361/361 359/359
f 361/361 353/353 355/355
f 359/359 361/361 362/362
f 362/362 351/351 360/360
f 351/351 362/362 354/354
f 359/359 349/349 352/352
f 351/351 349/349 360/360
f 353/353 359/359 356/356
f 351/351 353/353 356/356
f 84/84 82/82 363/363
f 84/84 364/364 365/365
f 364/364 84/84 363/363
f 264/264 366/366 367/367
f 366/366 264/264 265/265
f 89/89 100/100 368/368
f 100/100 89/89 83/83
f 265/265 368/368 366/366
f 368/368 265/265 89/89
f 159/159 156/156 166/166
f 148/148 165/165 166/166
f 169/169 170/170 369/369
f 370/370 148/148 154/154
f 371/371 370/370 174/174
f 370/370 371/371 372/372
f 152/152 174/174 154/154
f 174/174 370/370 154/154
f 174/174 172/172 371/371
f 173/173 197/197 172/172
f 170/170 148/148 370/370
f 327/327 112/112 325/325
f 112/112 326/326 329/329
f 105/105 95/95 92/92
f 131/131 132/132 128/128
f 128/128 129/129 131/131
f 95/95 96/96 88/88
f 119/119 110/110 141/141
f 135/135 129/129 134/134
f 118/118 135/135 373/373
f 130/130 138/138 117/117
f 130/130 117/117 116/116
f 128/128 132/132 116/116
f 128/128 115/115 324/324
f 115/115 128/128 116/116
f 324/324 114/114 124/124
f 114/114 324/324 115/115
f 122/122 124/124 114/114
f 120/120 122/122 114/114
f 130/130 136/136 138/138
f 127/127 126/126 134/134
f 254/254 374/374 261/261
f 257/257 259/259 375/375
f 259/259 260/260 375/375
f 256/256 254/254 259/259
f 254/254 261/261 259/259
f 260/260 261/261 374/374
f 370/370 372/372 170/170
f 170/170 372/372 369/369
f 149/149 147/147 166/166
f 147/147 148/148 166/166
f 173/173 174/174 152/152
f 332/332 195/195 201/201
f 267/267 178/178 181/181
f 178/178 267/267 183/183
f 151/151 181/181 179/179
f 162/162 333/333 164/164
f 162/162 159/159 166/166
f 162/162 163/163 159/159
f 159/159 163/163 158/158
f 328/328 187/187 376/376
f 187/187 328/328 189/189
f 188/188 185/185 331/331
f 331/331 185/185 155/155
f 376/376 187/187 330/330
f 186/186 185/185 189/189
f 189/189 267/267 186/186
f 146/146 151/151 179/179
f 146/146 179/179 153/153
f 331/331 200/200 188/188
f 188/188 200/200 191/191
f 332/332 157/157 194/194
f 196/196 161/161 377/377
f 161/161 196/196 194/194
f 161/161 160/160 377/377
f 194/194 195/195 332/332
f 170/170 171/171 165/165
f 247/247 249/249 378/378
f 249/249 240/240 378/378
f 357/357 359/359 379/379
f 359/359 352/352 379/379
f 234/234 82/82 232/232
f 236/236 234/234 233/233
f 85/85 83/83 86/86
f 214/214 213/213 215/215
f 275/275 278/278 279/279
f 274/274 272/272 275/275
f 320/320 322/322 316/316
f 303/303 307/307 309/309
f 282/282 284/284 286/286
f 276/276 280/280 282/282
f 272/272 276/276 278/278
f 301/301 303/303 305/305
f 298/298 301/301 302/302
f 302/302 305/305 306/306
f 270/270 289/289 290/290
f 288/288 270/270 290/290
f 304/304 310/310 307/307
f 283/283 285/285 287/287
f 359/359 362/362 360/360
f 249/249 243/243 250/250
f 226/226 225/225 223/223
f 244/244 142/142 143/143
f 109/109 117/117 139/139
f 112/112 102/102 111/111
f 219/219 223/223 221/221
f 140/140 141/141 137/137
f 118/118 131/131 129/129
f 324/324 127/127 128/128
f 130/130 116/116 132/132
f 145/145 138/138 136/136
f 99/99 84/84 365/365
f 84/84 99/99 83/83
f 204/204 212/212 209/209
f 280/280 287/287 284/284
f 149/149 166/166 156/156
f 109/109 107/107 116/116
f 381/381 380/380 382/382
f 384/384 383/383 385/385
f 383/383 384/384 386/386
f 382/382 387/387 388/388
f 387/387 382/382 389/389
f 382/382 380/380 390/390
f 382/382 388/388 391/391
f 382/382 390/390 389/389
f 384/384 392/392 386/386
f 387/387 389/389 393/393
f 390/390 394/394 395/395
f 394/394 390/390 380/380
f 380/380 396/396 394/394
f 396/396 380/380 381/381
f 397/397 392/392 398/398
f 399/399 390/390 395/395
f 390/390 399/399 389/389
f 400/400 392/392 384/384
f 392/392 400/400 398/398
f 402/402 401/401 403/403
f 401/401 402/402 404/404
f 401/401 404/404 405/405
f 407/407 406/406 408/408
f 410/410 409/409 411/411
f 409/409 410/410 412/412
f 406/406 413/413 414/414
f 406/406 414/414 415/415
f 411/411 405/405 410/410
f 401/401 405/405 411/411
f 381/381 382/382 391/391
f 400/400 384/384 416/416
f 417/417 409/409 412/412
f 409/409 417/417 418/418
f 416/416 384/384 385/385
f 419/419 386/386 391/391
f 386/386 419/419 383/383
f 396/396 381/381 392/392
f 420/420 389/389 399/399
f 407/407 408/408 421/421
f 408/408 406/406 415/415
f 392/392 381/381 386/386
f 386/386 381/381 391/391
f 396/396 392/392 397/397
f 393/393 389/389 420/420
f 391/391 388/388 419/419
f 423/423 422/422 424/424
f 423/423 425/425 422/422
f 426/426 424/424 427/427
f 425/425 426/426 428/428
f 430/430 429/429 431/431
f 431/431 424/424 430/430
f 431/431 427/427 424/424
f 429/429 427/427 431/431
f 432/432 427/427 429/429
f 432/432 433/433 427/427
f 433/433 432/432 428/428
f 428/428 432/432 434/434
f 428/428 434/434 435/435
f 433/433 426/426 427/427
f 426/426 433/433 428/428
f 432/432 430/430 434/434
f 430/430 432/432 429/429
f 425/425 423/423 426/426
f 423/423 424/424 426/426
f 434/434 430/430 435/435
f 437/437 436/436 438/438
f 438/438 436/436 439/439
f 441/441 440/440 439/439
f 439/439 442/442 441/441
f 438/438 440/440 443/443
f 444/444 441/441 445/445
f 441/441 446/446 445/445
f 447/447 445/445 446/446
f 446/446 441/441 442/442
f 96/96 94/94 448/448
f 442/442 449/449 96/96
f 99/99 438/438 98/98
f 450/450 98/98 438/438
f 451/451 448/448 101/101
f 94/94 101/101 448/448
f 453/453 452/452 454/454
f 455/455 454/454 452/452
f 457/457 456/456 458/458
f 460/460 459/459 461/461
f 462/462 455/455 463/463
f 464/464 462/462 463/463
f 456/456 464/464 463/463
f 456/456 465/465 464/464
f 466/466 465/465 457/457
f 459/459 467/467 468/468
f 469/469 455/455 462/462
f 470/470 121/121 469/469
f 123/123 469/469 121/121
f 470/470 471/471 121/121
f 472/472 121/121 471/471
f 473/473 126/126 472/472
f 473/473 474/474 475/475
f 477/477 476/476 478/478
f 479/479 478/478 476/476
f 134/134 473/473 475/475
f 135/135 475/475 467/467
f 478/478 468/468 467/467
f 468/468 478/478 479/479
f 480/480 479/479 476/476
f 482/482 481/481 483/483
f 484/484 468/468 485/485
f 480/480 485/485 479/479
f 486/486 483/483 487/487
f 481/481 487/487 483/483
f 481/481 485/485 487/487
f 488/488 487/487 485/485
f 485/485 489/489 488/488
f 489/489 485/485 480/480
f 491/491 490/490 492/492
f 494/494 493/493 490/490
f 492/492 490/490 493/493
f 490/490 495/495 494/494
f 497/497 496/496 498/498
f 493/493 499/499 500/500
f 501/501 500/500 499/499
f 502/502 500/500 158/158
f 500/500 160/160 158/158
f 160/160 500/500 503/503
f 501/501 503/503 500/500
f 164/164 504/504 163/163
f 505/505 504/504 506/506
f 508/508 507/507 504/504
f 506/506 504/504 507/507
f 510/510 509/509 511/511
f 512/512 172/172 513/513
f 515/515 514/514 516/516
f 518/518 517/517 519/519
f 520/520 519/519 517/517
f 521/521 517/517 182/182
f 184/184 182/182 517/517
f 523/523 522/522 515/515
f 524/524 522/522 525/525
f 526/526 525/525 522/522
f 192/192 190/190 527/527
f 528/528 193/193 529/529
f 196/196 529/529 193/193
f 513/513 197/197 530/530
f 531/531 527/527 199/199
f 190/190 199/199 527/527
f 532/532 193/193 528/528
f 534/534 533/533 535/535
f 534/534 535/535 536/536
f 536/536 537/537 534/534
f 537/537 536/536 538/538
f 537/537 538/538 539/539
f 539/539 540/540 537/537
f 541/541 540/540 539/539
f 542/542 541/541 539/539
f 540/540 534/534 537/537
f 534/534 543/543 544/544
f 543/543 540/540 541/541
f 541/541 542/542 543/543
f 545/545 543/543 542/542
f 545/545 544/544 543/543
f 544/544 546/546 547/547
f 548/548 547/547 546/546
f 534/534 544/544 549/549
f 551/551 550/550 552/552
f 553/553 552/552 550/550
f 554/554 551/551 555/555
f 556/556 554/554 555/555
f 557/557 556/556 553/553
f 552/552 553/553 556/556
f 559/559 558/558 550/550
f 553/553 550/550 558/558
f 559/559 550/550 560/560
f 554/554 560/560 550/550
f 554/554 557/557 560/560
f 561/561 560/560 557/557
f 561/561 562/562 560/560
f 563/563 560/560 562/562
f 562/562 561/561 564/564
f 558/558 564/564 561/561
f 566/566 565/565 442/442
f 436/436 565/565 567/567
f 563/563 562/562 436/436
f 439/439 436/436 562/562
f 566/566 442/442 439/439
f 569/569 568/568 570/570
f 571/571 570/570 568/568
f 573/573 572/572 574/574
f 572/572 573/573 488/488
f 573/573 575/575 488/488
f 487/487 488/488 575/575
f 569/569 576/576 573/573
f 575/575 573/573 576/576
f 569/569 570/570 577/577
f 578/578 577/577 570/570
f 425/425 430/430 579/579
f 580/580 577/577 578/578
f 581/581 580/580 568/568
f 489/489 486/486 572/572
f 487/487 575/575 486/486
f 472/472 126/126 252/252
f 472/472 253/253 121/121
f 582/582 254/254 255/255
f 258/258 257/257 582/582
f 583/583 582/582 257/257
f 584/584 583/583 260/260
f 507/507 510/510 506/506
f 430/430 424/424 579/579
f 580/580 585/585 576/576
f 575/575 576/576 585/585
f 574/574 585/585 580/580
f 581/581 569/569 574/574
f 573/573 574/574 569/569
f 440/440 441/441 444/444
f 443/443 440/440 444/444
f 445/445 586/586 444/444
f 264/264 586/586 263/263
f 445/445 263/263 586/586
f 587/587 586/586 264/264
f 587/587 444/444 586/586
f 443/443 444/444 587/587
f 518/518 530/530 266/266
f 197/197 266/266 530/530
f 520/520 588/588 495/495
f 588/588 523/523 516/516
f 495/495 516/516 494/494
f 514/514 499/499 493/493
f 522/522 514/514 515/515
f 523/523 515/515 516/516
f 498/498 530/530 519/519
f 518/518 519/519 530/530
f 495/495 588/588 516/516
f 590/590 589/589 591/591
f 592/592 591/591 589/589
f 594/594 593/593 590/590
f 589/589 590/590 593/593
f 593/593 594/594 595/595
f 591/591 592/592 595/595
f 596/596 595/595 592/592
f 589/589 597/597 592/592
f 598/598 592/592 597/597
f 597/597 589/589 593/593
f 599/599 593/593 596/596
f 592/592 598/598 596/596
f 600/600 596/596 598/598
f 601/601 598/598 597/597
f 599/599 602/602 597/597
f 603/603 597/597 602/602
f 600/600 604/604 599/599
f 602/602 599/599 604/604
f 598/598 601/601 600/600
f 604/604 600/600 601/601
f 605/605 601/601 603/603
f 602/602 606/606 603/603
f 607/607 603/603 606/606
f 606/606 602/602 604/604
f 608/608 604/604 601/601
f 609/609 590/590 591/591
f 610/610 594/594 590/590
f 612/612 611/611 609/609
f 612/612 610/610 611/611
f 591/591 613/613 609/609
f 614/614 609/609 613/613
f 612/612 609/609 614/614
f 614/614 610/610 612/612
f 616/616 615/615 617/617
f 617/617 615/615 618/618
f 618/618 615/615 619/619
f 619/619 615/615 616/616
f 617/617 620/620 616/616
f 621/621 616/616 620/620
f 618/618 622/622 617/617
f 620/620 617/617 622/622
f 622/622 618/618 619/619
f 616/616 621/621 619/619
f 623/623 619/619 621/621
f 620/620 624/624 621/621
f 625/625 621/621 624/624
f 624/624 620/620 622/622
f 626/626 622/622 623/623
f 621/621 625/625 623/623
f 627/627 623/623 625/625
f 628/628 625/625 624/624
f 626/626 629/629 624/624
f 630/630 624/624 629/629
f 627/627 631/631 626/626
f 629/629 626/626 631/631
f 631/631 627/627 625/625
f 610/610 614/614 594/594
f 613/613 594/594 614/614
f 633/633 632/632 634/634
f 635/635 634/634 632/632
f 635/635 636/636 634/634
f 637/637 634/634 636/636
f 638/638 635/635 632/632
f 638/638 636/636 635/635
f 638/638 632/632 639/639
f 639/639 636/636 638/638
f 641/641 640/640 633/633
f 642/642 633/633 640/640
f 643/643 640/640 641/641
f 639/639 632/632 644/644
f 642/642 644/644 632/632
f 633/633 642/642 632/632
f 639/639 644/644 636/636
f 643/643 636/636 644/644
f 643/643 637/637 636/636
f 454/454 447/447 446/446
f 518/518 266/266 517/517
f 184/184 517/517 266/266
f 472/472 471/471 473/473
f 645/645 473/473 471/471
f 571/571 568/568 580/580
f 581/581 568/568 569/569
f 577/577 580/580 576/576
f 577/577 576/576 569/569
f 483/483 486/486 489/489
f 572/572 585/585 574/574
f 585/585 572/572 486/486
f 489/489 572/572 488/488
f 479/479 485/485 468/468
f 646/646 459/459 460/460
f 327/327 460/460 326/326
f 463/463 452/452 456/456
f 458/458 456/456 452/452
f 461/461 457/457 458/458
f 482/482 457/457 484/484
f 459/459 484/484 457/457
f 484/484 481/481 482/482
f 463/463 455/455 452/452
f 588/588 521/521 526/526
f 521/521 182/182 526/526
f 328/328 526/526 182/182
f 522/522 499/499 514/514
f 561/561 557/557 558/558
f 553/553 558/558 557/557
f 558/558 559/559 564/564
f 567/567 564/564 559/559
f 559/559 560/560 567/567
f 563/563 567/567 560/560
f 451/451 329/329 460/460
f 461/461 458/458 451/451
f 453/453 451/451 458/458
f 453/453 458/458 452/452
f 459/459 457/457 461/461
f 466/466 482/482 483/483
f 446/446 442/442 448/448
f 453/453 448/448 451/451
f 329/329 451/451 101/101
f 453/453 454/454 446/446
f 330/330 192/192 525/525
f 525/525 192/192 527/527
f 647/647 501/501 648/648
f 499/499 648/648 501/501
f 501/501 529/529 503/503
f 516/516 514/514 494/494
f 494/494 514/514 493/493
f 333/333 508/508 504/504
f 525/525 527/527 524/524
f 648/648 531/531 647/647
f 532/532 647/647 531/531
f 199/199 334/334 531/531
f 532/532 531/531 334/334
f 497/497 490/490 491/491
f 511/511 491/491 506/506
f 334/334 193/193 532/532
f 439/439 564/564 566/566
f 564/564 439/439 562/562
f 567/567 565/565 566/566
f 650/650 649/649 651/651
f 650/650 652/652 649/649
f 653/653 651/651 654/654
f 656/656 655/655 652/652
f 652/652 653/653 656/656
f 658/658 657/657 659/659
f 659/659 651/651 658/658
f 659/659 654/654 651/651
f 657/657 654/654 659/659
f 660/660 654/654 657/657
f 660/660 661/661 654/654
f 661/661 660/660 656/656
f 656/656 660/660 662/662
f 656/656 662/662 655/655
f 661/661 653/653 654/654
f 653/653 661/661 656/656
f 660/660 658/658 662/662
f 658/658 660/660 657/657
f 652/652 650/650 653/653
f 650/650 651/651 653/653
f 652/652 655/655 658/658
f 662/662 658/658 655/655
f 664/664 663/663 665/665
f 666/666 665/665 663/663
f 664/664 667/667 668/668
f 669/669 668/668 667/667
f 664/664 665/665 670/670
f 671/671 670/670 665/665
f 652/652 658/658 672/672
f 673/673 670/670 671/671
f 674/674 673/673 663/663
f 658/658 651/651 672/672
f 673/673 675/675 667/667
f 669/669 667/667 675/675
f 676/676 675/675 673/673
f 674/674 664/664 676/676
f 668/668 676/676 664/664
f 666/666 663/663 673/673
f 674/674 663/663 664/664
f 670/670 673/673 667/667
f 670/670 667/667 664/664
f 677/677 436/436 437/437
f 365/365 364/364 437/437
f 677/677 437/437 364/364
f 367/367 678/678 264/264
f 587/587 264/264 678/678
f 679/679 450/450 443/443
f 438/438 443/443 450/450
f 678/678 679/679 587/587
f 443/443 587/587 679/679
f 505/505 500/500 502/502
f 505/505 506/506 491/491
f 372/372 511/511 369/369
f 497/497 491/491 680/680
f 512/512 680/680 371/371
f 372/372 371/371 680/680
f 497/497 512/512 496/496
f 497/497 680/680 512/512
f 371/371 172/172 512/512
f 172/172 197/197 513/513
f 680/680 491/491 511/511
f 646/646 460/460 327/327
f 329/329 326/326 460/460
f 446/446 448/448 453/453
f 474/474 478/478 475/475
f 478/478 474/474 477/477
f 442/442 96/96 448/448
f 484/484 459/459 468/468
f 134/134 475/475 135/135
f 373/373 135/135 467/467
f 466/466 483/483 476/476
f 465/465 466/466 476/476
f 465/465 477/477 474/474
f 645/645 464/464 474/474
f 465/465 474/474 464/464
f 471/471 462/462 645/645
f 464/464 645/645 462/462
f 462/462 471/471 470/470
f 462/462 470/470 469/469
f 483/483 480/480 476/476
f 134/134 126/126 473/473
f 584/584 374/374 254/254
f 375/375 583/583 257/257
f 375/375 260/260 583/583
f 583/583 254/254 582/582
f 583/583 584/584 254/254
f 374/374 584/584 260/260
f 511/511 372/372 680/680
f 369/369 511/511 509/509
f 505/505 492/492 493/493
f 505/505 491/491 492/492
f 496/496 512/512 513/513
f 532/532 528/528 647/647
f 520/520 517/517 588/588
f 521/521 588/588 517/517
f 519/519 520/520 495/495
f 164/164 333/333 504/504
f 505/505 502/502 504/504
f 502/502 163/163 504/504
f 158/158 163/163 502/502
f 376/376 525/525 328/328
f 526/526 328/328 525/525
f 648/648 522/522 524/524
f 499/499 522/522 648/648
f 330/330 525/525 376/376
f 526/526 522/522 523/523
f 523/523 588/588 526/526
f 519/519 495/495 490/490
f 498/498 519/519 490/490
f 524/524 531/531 648/648
f 527/527 531/531 524/524
f 529/529 501/501 647/647
f 377/377 503/503 196/196
f 529/529 196/196 503/503
f 377/377 160/160 503/503
f 647/647 528/528 529/529
f 506/506 510/510 511/511
f 681/681 580/580 578/578
f 681/681 571/571 580/580
f 682/682 673/673 671/671
f 682/682 666/666 673/673
f 563/563 436/436 567/567
f 564/564 567/567 566/566
f 440/440 438/438 439/439
f 546/546 544/544 545/545
f 600/600 599/599 596/596
f 596/596 593/593 595/595
f 637/637 643/643 641/641
f 630/630 628/628 624/624
f 607/607 605/605 603/603
f 603/603 601/601 597/597
f 599/599 597/597 593/593
f 626/626 624/624 622/622
f 623/623 622/622 619/619
f 627/627 626/626 623/623
f 611/611 610/610 590/590
f 611/611 590/590 609/609
f 628/628 631/631 625/625
f 608/608 606/606 604/604
f 674/674 676/676 673/673
f 581/581 574/574 580/580
f 556/556 557/557 554/554
f 486/486 575/575 585/585
f 482/482 466/466 457/457
f 461/461 451/451 460/460
f 554/554 550/550 551/551
f 481/481 484/484 485/485
f 475/475 478/478 467/467
f 473/473 645/645 474/474
f 477/477 465/465 476/476
f 480/480 483/483 489/489
f 365/365 437/437 99/99
f 438/438 99/99 437/437
f 540/540 543/543 534/534
f 605/605 608/608 601/601
f 500/500 505/505 493/493
f 465/465 456/456 457/457
f 684/684 683/683 685/685
f 385/385 383/383 686/686
f 687/687 686/686 383/383
f 388/388 387/387 684/684
f 688/688 684/684 387/387
f 689/689 683/683 684/684
f 690/690 388/388 684/684
f 688/688 689/689 684/684
f 687/687 691/691 686/686
f 393/393 688/688 387/387
f 693/693 692/692 689/689
f 683/683 689/689 692/692
f 692/692 694/694 683/683
f 685/685 683/683 694/694
f 695/695 691/691 696/696
f 693/693 689/689 697/697
f 688/688 697/697 689/689
f 686/686 691/691 698/698
f 695/695 698/698 691/691
f 700/700 699/699 701/701
f 702/702 701/701 699/699
f 703/703 702/702 699/699
f 704/704 406/406 705/705
f 707/707 706/706 708/708
f 709/709 708/708 706/706
f 710/710 413/413 406/406
f 711/711 710/710 406/406
f 708/708 703/703 707/707
f 707/707 703/703 699/699
f 690/690 684/684 685/685
f 416/416 686/686 698/698
f 709/709 706/706 417/417
f 418/418 417/417 706/706
f 385/385 686/686 416/416
f 690/690 687/687 419/419
f 383/383 419/419 687/687
f 691/691 685/685 694/694
f 697/697 688/688 712/712
f 713/713 704/704 705/705
f 711/711 406/406 704/704
f 687/687 685/685 691/691
f 690/690 685/685 687/687
f 696/696 691/691 694/694
f 712/712 688/688 393/393
f 419/419 388/388 690/690
f 72/72 714/714 75/75
f 714/714 81/81 75/75
f 78/78 714/714 72/72
f 428/428 435/435 425/425
f 425/425 435/435 430/430
f 714/714 78/78 81/81

